<?xml version="1.0" encoding="utf-8"?>
<!-- Generator: Adobe Illustrator 27.5.0, SVG Export Plug-In . SVG Version: 6.00 Build 0)  -->
<svg version="1.1" xmlns="http://www.w3.org/2000/svg" xmlns:xlink="http://www.w3.org/1999/xlink" x="0px" y="0px"
	 viewBox="0 0 500 500" style="enable-background:new 0 0 500 500;" xml:space="preserve">
<g id="BACKGROUND">
	<g>
		<rect style="fill:#264C51;" width="500" height="500"/>
	</g>
</g>
<g id="OBJECTS">
	<g>
		<path style="opacity:0.4;" d="M479.369,148.91c0-9.319-7.533-16.805-16.852-16.805c-6.406,0-11.957,3.896-14.815,8.896H61.859
			C54.079,141,48,147.195,48,154.974v208.885C48,371.638,54.079,378,61.859,378h395.115c7.78,0,14.026-6.362,14.026-14.141V163.44
			C476,160.506,479.369,155.105,479.369,148.91z"/>
		<g>
			<g>
				<path style="fill:#C1C0B6;" d="M52.442,368.551c-7.78,0-14.109-6.329-14.109-14.108V145.558c0-7.78,6.329-14.109,14.109-14.109
					h395.115c7.78,0,14.109,6.329,14.109,14.109v208.885c0,7.779-6.329,14.108-14.109,14.108H52.442z"/>
				<path style="fill:#FFFFFF;" d="M447.558,133.449H52.442c-6.688,0-12.109,5.421-12.109,12.109v208.885
					c0,6.688,5.421,12.109,12.109,12.109h395.115c6.688,0,12.109-5.421,12.109-12.109V145.558
					C459.667,138.87,454.245,133.449,447.558,133.449z"/>
				<path style="fill:#F2F1E4;" d="M458,145.56v208.88c0,6.69-5.38,12.11-12.01,12.11H54.01c-6.63,0-12.01-5.42-12.01-12.11V145.56
					c0-6.69,5.38-12.11,12.01-12.11h391.98C452.62,133.45,458,138.87,458,145.56z"/>
				<path style="fill:#E0DED1;" d="M459.67,344.24v10.2c0,6.69-5.42,12.11-12.11,12.11H52.44c-6.69,0-12.11-5.42-12.11-12.11v-10.2
					c0,6.69,5.42,12.11,12.11,12.11h395.12C454.25,356.35,459.67,350.93,459.67,344.24z"/>
				<path style="fill:#FFFFFF;" d="M458,145.56v2.06c-2.11-3.57-5.99-5.97-10.44-5.97H52.44c-4.45,0-8.33,2.4-10.44,5.97v-2.06
					c0-6.69,5.38-12.11,12.01-12.11h391.98C452.62,133.45,458,138.87,458,145.56z"/>
				<path style="fill:#FFFFFF;" d="M459.67,342.37v1.99c0,6.69-5.42,12.11-12.11,12.11H52.44c-6.69,0-12.11-5.42-12.11-12.11v-1.99
					c0,6.69,5.42,12.11,12.11,12.11h395.12C454.25,354.48,459.67,349.06,459.67,342.37z"/>
				<path style="fill:#DDDBCE;" d="M458,147.62v1.99c-2.11-3.57-5.99-5.97-10.44-5.97H52.44c-4.45,0-8.33,2.4-10.44,5.97v-1.99
					c2.11-3.57,5.99-5.97,10.44-5.97h395.12C452.01,141.65,455.89,144.05,458,147.62z"/>
				<g>
					
						<ellipse transform="matrix(0.5719 -0.8203 0.8203 0.5719 -116.3558 161.9806)" style="fill:#99D9E5;" cx="97.018" cy="192.472" rx="10.908" ry="10.908"/>
					<path style="fill:#99D9E5;" d="M95.4,206.755c-0.646,4.914-5.153,8.374-10.066,7.728c-4.914-0.646-8.374-5.153-7.728-10.066
						s5.153-8.374,10.066-7.728C92.585,197.335,96.045,201.842,95.4,206.755z"/>
					<path style="fill:#99D9E5;" d="M85.478,190.956c-0.375,2.857-2.996,4.868-5.853,4.493c-2.857-0.376-4.868-2.996-4.493-5.853
						c0.375-2.857,2.996-4.868,5.853-4.493C83.842,185.479,85.854,188.099,85.478,190.956z"/>
					
						<ellipse transform="matrix(0.7886 -0.615 0.615 0.7886 -116.4428 94.5427)" style="fill:#99D9E5;" cx="79.266" cy="216.607" rx="5.243" ry="5.243"/>
					<path style="fill:#99D9E5;" d="M113.123,175.257c-0.323,2.459-2.579,4.191-5.038,3.867c-2.459-0.323-4.191-2.579-3.867-5.038
						c0.323-2.459,2.579-4.191,5.038-3.868C111.715,170.542,113.446,172.798,113.123,175.257z"/>
					<path style="fill:#99D9E5;" d="M102.316,179.575c-0.442,3.365-3.528,5.734-6.893,5.292c-3.365-0.442-5.734-3.528-5.292-6.893
						c0.442-3.365,3.528-5.734,6.893-5.292C100.389,173.124,102.758,176.21,102.316,179.575z"/>
					<circle style="fill:#99D9E5;" cx="113.195" cy="189.098" r="8.869"/>
					<path style="fill:#99D9E5;" d="M75.944,207.342c-0.224,1.707-1.79,2.909-3.496,2.684c-1.707-0.224-2.908-1.79-2.684-3.496
						c0.224-1.707,1.79-2.909,3.496-2.684C74.967,204.07,76.169,205.636,75.944,207.342z"/>
					<path style="fill:#99D9E5;" d="M84.902,179.222c-0.224,1.707-1.79,2.909-3.496,2.684s-2.909-1.79-2.684-3.496
						c0.224-1.707,1.79-2.908,3.496-2.684C83.924,175.949,85.126,177.515,84.902,179.222z"/>
				</g>
				<path style="fill:#99D9E5;" d="M212.98,250c0,11.15-2.55,21.71-7.11,31.11c-11.56,23.9-36.04,40.38-64.38,40.38
					c-23.01,0-43.48-10.87-56.55-27.76C75.57,281.64,70,266.47,70,250c0-39.48,32.01-71.49,71.49-71.49
					C180.98,178.51,212.98,210.52,212.98,250z"/>
				<g style="opacity:0.8;">
					
						<ellipse transform="matrix(0.7071 -0.7071 0.7071 0.7071 -170.0611 146.3028)" style="fill:#72B8C1;" cx="91.573" cy="278.433" rx="8.132" ry="8.132"/>
					<circle style="fill:#72B8C1;" cx="138.341" cy="277.368" r="5.052"/>
					<path style="fill:#72B8C1;" d="M105.721,281.28c0,1.446,1.172,2.618,2.618,2.618c1.446,0,2.618-1.172,2.618-2.618
						c0-1.446-1.172-2.618-2.618-2.618C106.893,278.662,105.721,279.835,105.721,281.28z"/>
					<circle style="fill:#72B8C1;" cx="105.339" cy="267.683" r="2.618"/>
					
						<ellipse transform="matrix(0.0384 -0.9993 0.9993 0.0384 -73.7023 438.6475)" style="fill:#72B8C1;" cx="191.062" cy="257.618" rx="8.243" ry="8.243"/>
					<path style="fill:#72B8C1;" d="M196.504,275.84c0,2.087,1.692,3.778,3.778,3.778s3.778-1.692,3.778-3.778
						c0-2.087-1.692-3.778-3.778-3.778S196.504,273.754,196.504,275.84z"/>
					<path style="fill:#72B8C1;" d="M205.87,281.11c-11.56,23.9-36.04,40.38-64.38,40.38c-23.01,0-43.48-10.87-56.55-27.76
						c2.97-4.65,8.18-7.73,14.1-7.73c5.39,0,10.18,2.57,13.23,6.53c1.37-5.84,6.6-10.19,12.86-10.19c6.22,0,11.42,4.3,12.83,10.09
						c2.21-1.56,4.8-2.62,7.59-3.06c-0.02-0.28-0.04-0.56-0.04-0.85c0-7,5.68-12.68,12.68-12.68c3.26,0,6.22,1.24,8.47,3.26
						c1.05-6.84,6.95-12.09,14.09-12.09c7.88,0,14.27,6.39,14.27,14.27c0,0.25-0.02,0.49-0.03,0.73c1.99-0.97,4.22-1.53,6.59-1.53
						C203.07,280.48,204.51,280.7,205.87,281.11z"/>
				</g>
				<g>
					<g>
						<g>
							<polygon style="fill:#FFAF34;" points="73.66,219.717 111.911,242.537 113.84,288.523 135.059,261.518 167.523,284.974 
								209.323,180.81 							"/>
							<polygon style="fill:#FF9135;" points="111.911,242.537 112.837,264.45 113.84,288.523 135.059,261.518 129.233,257.043 
								172.442,207.411 							"/>
							<polygon style="opacity:0.3;fill:#735414;" points="112.837,270.267 113.358,277.123 113.84,288.523 135.059,261.518 
								129.233,257.043 172.442,207.411 							"/>
						</g>
						<polygon style="opacity:0.4;fill:#FFFFFF;" points="111.911,242.537 83.969,221.64 209.323,180.81 73.66,219.717 						"/>
						<polygon style="opacity:0.4;fill:#FFFFFF;" points="172.442,207.411 129.233,257.043 135.059,261.518 						"/>
					</g>
					<polygon style="fill:#ED9621;" points="129.233,257.043 113.84,288.523 133.63,263.335 138.962,264.338 					"/>
				</g>
				<g>
					<g>
						<path style="fill:none;stroke:#264C51;stroke-width:2;stroke-linecap:round;stroke-linejoin:round;" d="M110.782,292.1
							c-0.52,0.655-1.049,1.298-1.582,1.936"/>
						
							<path style="fill:none;stroke:#264C51;stroke-width:2;stroke-linecap:round;stroke-linejoin:round;stroke-dasharray:5.0921,5.0921;" d="
							M105.924,297.933c-1.9,2.313-3.691,4.704-5.098,7.445c-1.943,3.786-3.088,8.113-2.437,12.318
							c1.91,12.344,15.475,11.668,24.017,6.554c3.529-2.113,6.62-4.856,9.555-7.717c2.883-2.81,6.012-5.175,9.245-7.602
							c6.679-5.014,13.727-9.573,21.297-13.127c7.315-3.434,16.967-5.815,25.014-4.172c6.31,1.289,9.611,6.068,9.57,12.404
							c-0.014,2.103-0.453,4.173-1.188,6.146"/>
						<path style="fill:none;stroke:#264C51;stroke-width:2;stroke-linecap:round;stroke-linejoin:round;" d="M194.876,312.514
							c-0.376,0.745-0.79,1.471-1.234,2.174"/>
					</g>
				</g>
				<path style="fill:#264C51;" d="M196.504,318.583c0,2.439-1.977,4.417-4.417,4.417c-2.439,0-4.417-1.977-4.417-4.417
					c0-2.439,1.977-4.417,4.417-4.417C194.526,314.167,196.504,316.144,196.504,318.583z"/>
				<g>
					<rect x="239.667" y="148.833" style="fill:#DDDBCE;" width="2" height="202.333"/>
					<rect x="237.651" y="148.833" style="fill:#FFFFFF;" width="2" height="202.333"/>
				</g>
				<g>
					
						<text transform="matrix(1 0 0 1 262.5833 187.3408)" style="fill:#38949B; font-family:'Montserrat-SemiBold'; font-size:30.1867px;">SUBSCRIBE</text>
					<g>
						<g>
							<g>
								<text transform="matrix(1 0 0 1 291.249 201.3496)" style="fill:#38949B; font-family:'OpenSans'; font-size:9px;">Lorem Ipsum Dolor Sit Amet</text>
							</g>
						</g>
					</g>
				</g>
				<g>
					<g>
						<g>
							<g>
								<g>
									<rect x="262.881" y="228.025" style="fill:#E6E7E8;" width="175.57" height="26.093"/>
									<rect x="262.882" y="224.525" style="fill:#FFFFFF;" width="175.566" height="3.5"/>
									<rect x="262.882" y="254.118" style="fill:#DDDBCE;" width="175.566" height="3.5"/>
								</g>
							</g>
						</g>
					</g>
					<g>
						
							<text transform="matrix(1 0 0 1 328.0518 246.1442)" style="fill:#A7A9AC; font-family:'OpenSans-Semibold'; font-size:12.6811px;">Name</text>
					</g>
				</g>
				<g>
					<g>
						<g>
							<g>
								<g>
									<rect x="262.881" y="266.572" style="fill:#E6E7E8;" width="175.57" height="26.093"/>
									<rect x="262.882" y="263.072" style="fill:#FFFFFF;" width="175.566" height="3.5"/>
									<rect x="262.882" y="292.665" style="fill:#DDDBCE;" width="175.566" height="3.5"/>
								</g>
							</g>
						</g>
					</g>
					<g>
						
							<text transform="matrix(1 0 0 1 328.0518 284.6915)" style="fill:#A7A9AC; font-family:'OpenSans-Semibold'; font-size:12.6811px;">Email</text>
					</g>
				</g>
				<g>
					<path style="fill:#E2E1E0;" d="M391.539,309.593h-81.745c-9.045,0-16.378,8.112-16.378,18.118l0,0
						c0,10.006,7.332,18.118,16.378,18.118h81.745c9.045,0,16.377-8.112,16.377-18.118l0,0
						C407.916,317.705,400.584,309.593,391.539,309.593z"/>
					<path style="fill:#38949B;" d="M389.826,309.593h-80.318c-8.887,0-16.092,7.204-16.092,16.092v0
						c0,8.887,7.204,16.092,16.092,16.092h80.318c8.887,0,16.092-7.204,16.092-16.092v0
						C405.918,316.798,398.713,309.593,389.826,309.593z"/>
					<path style="opacity:0.4;fill:#264C51;" d="M405.916,325.682c0,8.89-7.2,16.09-16.09,16.09h-80.32c-4.44,0-8.47-1.8-11.38-4.71
						c-2.91-2.91-4.71-6.93-4.71-11.38c0-0.66,0.04-1.31,0.12-1.95c0.44,3.66,2.12,6.94,4.59,9.42c2.91,2.91,6.94,4.71,11.38,4.71
						h80.32c8.22,0,15-6.17,15.97-14.13C405.876,324.372,405.916,325.022,405.916,325.682z"/>
					<g>
						<path style="opacity:0.4;fill:#FFFFFF;" d="M403.769,325.904c0,0.323-0.008,0.639-0.033,0.954
							c-0.239-3.815-1.911-7.243-4.498-9.781c-2.801-2.749-6.673-4.446-10.949-4.446h-77.244c-8.222,0-14.953,6.289-15.447,14.227
							c-0.025-0.315-0.033-0.63-0.033-0.954c0-8.391,6.928-15.189,15.48-15.189h77.244c4.276,0,8.148,1.698,10.949,4.446
							C402.039,317.909,403.769,321.709,403.769,325.904z"/>
					</g>
					<g>
						
							<text transform="matrix(1 0 0 1 328.8149 334.3865)" style="fill:#F1F5F8; font-family:'BebasNeueBold'; font-size:25.9371px; letter-spacing:1;">SENT</text>
					</g>
				</g>
				<g>
					
						<ellipse transform="matrix(0.2169 -0.9762 0.9762 0.2169 218.6793 551.5779)" style="fill:#FFFFFF;" cx="453.121" cy="139.493" rx="16.873" ry="16.873"/>
					
						<ellipse transform="matrix(0.2311 -0.9729 0.9729 0.2311 212.7069 548.1223)" style="fill:#F2F1E4;" cx="453.121" cy="139.493" rx="13.165" ry="13.165"/>
					<path style="fill:#38949B;" d="M457.168,132.38l-4.046,4.047l-4.047-4.047c-0.847-0.847-2.219-0.847-3.066,0l0,0
						c-0.847,0.847-0.847,2.219,0,3.066l4.047,4.047l-4.047,4.046c-0.847,0.847-0.847,2.219,0,3.066l0,0
						c0.847,0.847,2.219,0.847,3.066,0l4.047-4.046l4.046,4.046c0.847,0.847,2.219,0.847,3.066,0l0,0
						c0.847-0.847,0.847-2.219,0-3.066l-4.046-4.046l4.046-4.047c0.847-0.847,0.847-2.219,0-3.066l0,0
						C459.387,131.534,458.014,131.534,457.168,132.38z"/>
				</g>
			</g>
		</g>
	</g>
</g>
</svg>
