<?xml version="1.0" encoding="utf-8"?>
<!-- Generator: Adobe Illustrator 23.0.5, SVG Export Plug-In . SVG Version: 6.00 Build 0)  -->
<svg version="1.1" id="_x32_" xmlns="http://www.w3.org/2000/svg" xmlns:xlink="http://www.w3.org/1999/xlink" x="0px" y="0px"
	 viewBox="0 0 877 705" style="enable-background:new 0 0 877 705;" xml:space="preserve">
<style type="text/css">
	.st0{fill:none;stroke:#000000;stroke-width:50;stroke-miterlimit:10;}
</style>
<g>
	<path class="st0" d="M837.9,126.4c-3.6-18.2-11.7-34.8-22.9-48.5c-2.4-3-4.8-5.7-7.5-8.4C787.6,49.5,759.6,37,729,37H151
		c-30.6,0-58.5,12.5-78.5,32.6C69.8,72.3,67.3,75,65,78c-11.3,13.6-19.3,30.3-22.8,48.4c-1.5,7-2.2,14.3-2.2,21.6v406
		c0,15.6,3.3,30.5,9.2,44.1c5.5,12.9,13.5,24.6,23.3,34.4c2.5,2.5,5,4.8,7.6,7c19.2,15.9,44,25.5,70.8,25.5H729
		c26.8,0,51.7-9.6,70.8-25.6c2.7-2.2,5.2-4.4,7.6-6.9c9.8-9.8,17.9-21.5,23.4-34.4V598c5.9-13.5,9.1-28.4,9.1-44V148
		C840,140.7,839.3,133.4,837.9,126.4z M112.7,109.7c9.9-9.9,23.2-15.9,38.3-15.9h578c15.1,0,28.5,6,38.3,15.9
		c1.8,1.8,3.4,3.7,4.9,5.7l-303,264.1c-8.4,7.3-18.7,10.9-29.2,10.9c-10.4,0-20.7-3.6-29.2-10.9L107.9,115.3
		C109.3,113.3,110.9,111.5,112.7,109.7z M96.8,554V174L316,365.3L96.9,556.4C96.8,555.6,96.8,554.8,96.8,554z M729,608.2H151
		c-9.8,0-19-2.6-26.8-7.1l231.2-201.5l21.6,18.8c18,15.6,40.6,23.6,63,23.6c22.5,0,45.1-8,63.2-23.6l21.6-18.8l231.1,201.5
		C748,605.6,738.8,608.2,729,608.2z M783.2,554c0,0.8,0,1.6-0.1,2.4L564,365.4l219.2-191.3V554z"/>
</g>
</svg>
