<?xml version="1.0" encoding="utf-8"?>
<!-- Generator: Adobe Illustrator 23.0.5, SVG Export Plug-In . SVG Version: 6.00 Build 0)  -->
<svg version="1.1" id="Capa_1" xmlns="http://www.w3.org/2000/svg" xmlns:xlink="http://www.w3.org/1999/xlink" x="0px" y="0px"
	 viewBox="0 0 212.7 212.6" style="enable-background:new 0 0 212.7 212.6;" xml:space="preserve">
<style type="text/css">
	.st0{fill-rule:evenodd;clip-rule:evenodd;fill:#7B8E6A;}
	.st1{fill-rule:evenodd;clip-rule:evenodd;fill:#383540;}
	.st2{fill:#E7247B;}
	.st3{fill-rule:evenodd;clip-rule:evenodd;fill:#FFFFFF;}
</style>
<g id="Capa_5">
	<g>
		<rect x="0.4" y="0.2" class="st0" width="212.6" height="212.6"/>
		<g>
			<path class="st1" d="M106.7,54.7c39.1,0,70.9,13.6,70.9,25.4c0,11.7-31.7,17.2-70.9,17.2S35.9,91.8,35.9,80
				C35.9,68.3,67.6,54.7,106.7,54.7z"/>
			<path class="st2" d="M79.9,68.6c-1.9,0-3.2,1.1-4,2c-0.8-0.9-2.1-2-4-2c-2.8,0-5,3.1-5,7c0,2.7,1.1,7.9,8.6,12.6l0.5,0.3l0.5-0.3
				c7.5-4.7,8.6-9.9,8.6-12.6C84.9,71.6,82.7,68.6,79.9,68.6z M75.8,85.5c-4.5-2.9-7-6.6-7-10c0-2.1,1-4.4,3-4.4c2,0,3.1,1.9,3.2,2
				l0.8,1.6l0.9-1.6c0,0,1.1-2,3.2-2c2,0,3,2.3,3,4.4C82.9,79,80.3,82.6,75.8,85.5z"/>
			<path class="st2" d="M141.1,68.6c-1.9,0-3.2,1.1-4,2c-0.8-0.9-2.1-2-4-2c-2.8,0-5,3.1-5,7c0,2.7,1.1,7.9,8.6,12.6l0.5,0.3
				l0.5-0.3c7.5-4.7,8.6-9.9,8.6-12.6C146.2,71.6,144,68.6,141.1,68.6z M137.1,85.5c-4.5-2.9-7-6.6-7-10c0-2.1,1-4.4,3-4.4
				c2,0,3.1,1.9,3.2,2l0.8,1.6l0.9-1.6c0,0,1.1-2,3.2-2c2,0,3,2.3,3,4.4C144.1,79,141.6,82.6,137.1,85.5z"/>
		</g>
		<g>
			<path class="st3" d="M57.1,112.9c13.4,17.7,30.7,28.3,49.6,28.3c19,0,36.2-10.6,49.6-28.3"/>
			<path class="st0" d="M59,104.7c12.9,17.7,29.4,28.3,47.6,28.3c18.2,0,34.7-10.6,47.6-28.3"/>
		</g>
	</g>
</g>
</svg>
