<?xml version="1.0" encoding="utf-8"?>
<!-- Generator: Adobe Illustrator 23.0.5, SVG Export Plug-In . SVG Version: 6.00 Build 0)  -->
<svg version="1.1" id="Capa_1" xmlns="http://www.w3.org/2000/svg" xmlns:xlink="http://www.w3.org/1999/xlink" x="0px" y="0px"
	 viewBox="0 0 212.7 212.6" style="enable-background:new 0 0 212.7 212.6;" xml:space="preserve">
<style type="text/css">
	.st0{fill-rule:evenodd;clip-rule:evenodd;fill:#A768A8;}
	.st1{fill-rule:evenodd;clip-rule:evenodd;fill:#383540;}
	.st2{fill-rule:evenodd;clip-rule:evenodd;fill:#6DB9DB;}
	.st3{fill-rule:evenodd;clip-rule:evenodd;fill:#5291CC;}
	.st4{fill-rule:evenodd;clip-rule:evenodd;fill:#A5A8AE;}
	.st5{fill:#FFFFFF;}
	.st6{fill:#B2B5B6;}
	.st7{fill:#626161;}
</style>
<g id="Capa_4">
	<g>
		<rect x="0.4" y="0" class="st0" width="212.6" height="212.6"/>
		<g>
			<path class="st1" d="M107.7,53.3c35.2,0,63.8,18.2,63.8,33.8S143,110,107.7,110s-63.8-7.2-63.8-22.9
				C43.9,71.5,72.5,53.3,107.7,53.3z"/>
			<g>
				<ellipse class="st1" cx="106.7" cy="81.7" rx="14.7" ry="14.7"/>
				
					<ellipse transform="matrix(0.9872 -0.1596 0.1596 0.9872 -11.6689 18.0787)" class="st2" cx="106.7" cy="81.7" rx="11.5" ry="11.5"/>
				<path class="st3" d="M106.7,90.4c4.8,0,8.7-3.9,8.7-8.7c0-4.8-3.9-8.7-8.7-8.7S98,76.9,98,81.7C98,86.5,101.9,90.4,106.7,90.4z"
					/>
				<path class="st4" d="M106.7,65.4c-4.5,0-8.6,1.8-11.5,4.8s-4.8,7-4.8,11.5s1.8,8.6,4.8,11.5s7,4.8,11.5,4.8s8.6-1.8,11.5-4.8
					s4.8-7,4.8-11.5s-1.8-8.6-4.8-11.5C115.3,67.2,111.2,65.4,106.7,65.4L106.7,65.4z M94.2,69.1c3.2-3.2,7.6-5.2,12.5-5.2
					s9.3,2,12.5,5.2c3.2,3.2,5.2,7.6,5.2,12.5s-2,9.3-5.2,12.5c-3.2,3.2-7.6,5.2-12.5,5.2s-9.3-2-12.5-5.2C91,91,89,86.6,89,81.7
					C89,76.8,91,72.4,94.2,69.1z"/>
			</g>
		</g>
		<g>
			<path class="st5" d="M59.7,131.9c0.1-2.6,0.5-4.9,0.9-5.4c2.5-3.3,12.2-2.3,48.7-2.8c36.5-0.5,46.1-1.7,48.7,1.5
				c0.5,0.7,0.8,3.1,1,5.4c0,0,0.4,4.7-0.5,8.3c-2.2,9.2-44.2,9.6-49,9.7c0,0-46.3,0.3-49-9C59.5,136.1,59.7,131.9,59.7,131.9z"/>
			<path class="st6" d="M109.4,133.4c14.2-0.3,18.8-0.2,36.6-0.6c5.4-0.1,9.8-0.2,12.5-0.3c0.2-0.6,0.3-1.3,0.3-1.9
				c-0.1-9.5-0.1-7.5-49.7-6.8c-49.6,0.7-49.6-1.3-49.5,8.2c0,0.7,0.2,1.4,0.4,2.1c5.9,0.1,15.1,0.2,26.4,0
				C96.2,133.9,95.8,133.7,109.4,133.4z"/>
			<g>
				<path class="st7" d="M146.8,144.8c1.7,0.3,3.3-0.2,3.9-1.3c0.1-0.2,0.3-0.6,0.3-1.1l-0.1-19.3c-1.2-0.1-2.6-0.1-4.2-0.1
					L146.8,144.8z"/>
				<path class="st7" d="M68.7,124.3l0.1,19.7c0,0.1,0.1,0.3,0.2,0.4c0.9,1.6,3.4,1.6,4.1,1.6l-0.1-21.9
					C71.4,124.1,69.9,124.2,68.7,124.3z"/>
				<path class="st7" d="M100.1,148.4c1.4,0.1,2.8,0.1,4.2,0.2l-0.2-24.7c-1.5,0-2.9,0-4.2,0L100.1,148.4z"/>
				<path class="st7" d="M131.2,147.1c1.4,0.1,2.8,0.1,4.2,0.2l-0.2-24.1c-1.5,0-2.9,0-4.2,0L131.2,147.1z"/>
				<path class="st7" d="M115.6,148.4c1.4,0.1,2.8,0.1,4.2,0.2l-0.2-25c-1.5,0-2.9,0-4.2,0L115.6,148.4z"/>
				<path class="st7" d="M84.5,147.4c1.4,0.1,2.8,0.1,4.2,0.2l-0.2-23.8c-1.5,0-2.9,0-4.2,0L84.5,147.4z"/>
			</g>
		</g>
	</g>
</g>
</svg>
