<?xml version="1.0" encoding="utf-8"?>
<!-- Generator: Adobe Illustrator 23.0.5, SVG Export Plug-In . SVG Version: 6.00 Build 0)  -->
<svg version="1.1" id="Capa_1" xmlns="http://www.w3.org/2000/svg" xmlns:xlink="http://www.w3.org/1999/xlink" x="0px" y="0px"
	 viewBox="0 0 212.7 212.6" style="enable-background:new 0 0 212.7 212.6;" xml:space="preserve">
<style type="text/css">
	.st0{fill-rule:evenodd;clip-rule:evenodd;fill:#635963;}
	.st1{fill-rule:evenodd;clip-rule:evenodd;fill:#383540;}
	.st2{fill-rule:evenodd;clip-rule:evenodd;fill:#6DB9DB;}
	.st3{fill-rule:evenodd;clip-rule:evenodd;fill:#FFFFFF;}
	.st4{fill:#FFFFFF;}
	.st5{fill:#B2B5B6;}
	.st6{fill:#626161;}
</style>
<g id="Capa_6">
	<g>
		<rect x="0.4" y="0.5" class="st0" width="212.6" height="212.6"/>
		<g>
			<path class="st1" d="M105.7,60.7c39.1,0,70.9,13.6,70.9,25.4s-31.7,17.2-70.9,17.2s-70.9-5.4-70.9-17.2
				C34.8,74.3,66.5,60.7,105.7,60.7z"/>
			<g>
				<path class="st2" d="M81.9,96.1c5.1,0,9.3-4.9,9.3-10.9S87,74.4,81.9,74.4c-5.1,0-9.3,4.9-9.3,10.9S76.8,96.1,81.9,96.1z"/>
				<path class="st2" d="M129.8,96.1c5.1,0,9.3-4.9,9.3-10.9s-4.2-10.9-9.3-10.9c-5.1,0-9.3,4.9-9.3,10.9S124.7,96.1,129.8,96.1z"/>
			</g>
			<path class="st3" d="M85.4,84.4c2.2,0,4-1.8,4-4s-1.8-4-4-4s-4,1.8-4,4S83.3,84.4,85.4,84.4z"/>
			<path class="st3" d="M133.3,84.4c2.2,0,4-1.8,4-4s-1.8-4-4-4c-2.2,0-4,1.8-4,4S131.1,84.4,133.3,84.4z"/>
		</g>
		<g>
			<path class="st4" d="M56.1,138.3c-0.2-10.2-0.2-8,49.4-10.2c49.6-2.2,49.6-4.3,49.8,5.8c0.2,10.2-21.8,19.4-49.2,20.6
				C78.7,155.7,56.3,148.5,56.1,138.3z"/>
			<path class="st4" d="M56.1,138.3c-0.2-10.2-0.2-8,49.4-10.2c49.6-2.2,49.6-4.3,49.8,5.8c0.2,10.2-21.8,19.4-49.2,20.6
				C78.7,155.7,56.3,148.5,56.1,138.3z"/>
			<path class="st5" d="M153.8,127.8c-4.9,8.4-24.4,15.3-48,16.3c-23.5,1-43.3-4.2-48.5-12c-1.3,1.3-1.3,3.2-1.2,6.3
				c0.2,10.2,22.6,17.4,50,16.2c27.4-1.2,49.4-10.4,49.2-20.6C155.2,130.9,155.1,128.9,153.8,127.8z"/>
			<path class="st6" d="M112.3,154c1.4-0.1,2.8-0.3,4.2-0.5l-0.5-26c-1.4,0.1-2.8,0.1-4.2,0.2L112.3,154z"/>
			<path class="st6" d="M127.3,127l0.5,24.6c1.4-0.3,2.9-0.7,4.2-1.1l-0.5-23.8C130.3,126.9,128.8,126.9,127.3,127z"/>
			<path class="st6" d="M143.4,146.5c1.5-0.7,2.9-1.5,4.2-2.3l-0.4-17.9c-1.2,0-2.6,0-4.2,0L143.4,146.5z"/>
			<path class="st6" d="M65,129.9l0.4,18.6c1.3,0.6,2.7,1.2,4.3,1.7l-0.4-20.7C67.7,129.7,66.2,129.8,65,129.9z"/>
			<path class="st6" d="M96.7,154.6c1.4,0,2.8,0.1,4.2,0l-0.6-26.3c-1.5,0.1-2.9,0.1-4.2,0.2L96.7,154.6z"/>
			<path class="st6" d="M81.1,153.1c1.4,0.2,2.8,0.4,4.3,0.6l-0.5-24.8c-1.5,0-2.9,0.1-4.2,0.2L81.1,153.1z"/>
		</g>
	</g>
</g>
</svg>
