<?xml version="1.0" encoding="utf-8"?>
<!-- Generator: Adobe Illustrator 23.0.5, SVG Export Plug-In . SVG Version: 6.00 Build 0)  -->
<svg version="1.1" id="Capa_1" xmlns="http://www.w3.org/2000/svg" xmlns:xlink="http://www.w3.org/1999/xlink" x="0px" y="0px"
	 viewBox="0 0 212.7 212.6" style="enable-background:new 0 0 212.7 212.6;" xml:space="preserve">
<style type="text/css">
	.st0{fill-rule:evenodd;clip-rule:evenodd;fill:#9F6CA3;}
	.st1{fill-rule:evenodd;clip-rule:evenodd;fill:#383540;}
	.st2{fill-rule:evenodd;clip-rule:evenodd;fill:#6DB9DB;}
	.st3{fill:#FFFFFF;}
	.st4{fill:#B2B5B6;}
	.st5{fill:#626161;}
</style>
<g id="Capa_3">
	<g>
		<rect x="0.4" y="0.2" class="st0" width="212.6" height="212.6"/>
		<g>
			<path class="st1" d="M106.7,54.7c39.1,0,70.9,13.6,70.9,25.4c0,11.7-31.7,17.2-70.9,17.2S35.8,91.8,35.8,80
				C35.8,68.3,67.6,54.7,106.7,54.7z"/>
			<g>
				<g>
					<path class="st2" d="M80,68.2L89.9,80c1.3,1.6,1.3,4.1,0,5.7c-1.3,1.6-3.5,1.6-4.8,0l-9.9-11.8c-1.3-1.6-1.3-4.1,0-5.7
						S78.7,66.6,80,68.2z"/>
					<path class="st2" d="M85.1,68.2L75.2,80c-1.3,1.6-1.3,4.1,0,5.7s3.5,1.6,4.8,0l9.9-11.8c1.3-1.6,1.3-4.1,0-5.7
						C88.6,66.6,86.4,66.6,85.1,68.2z"/>
				</g>
				<g>
					<path class="st2" d="M134.2,68.2l9.9,11.8c1.3,1.6,1.3,4.1,0,5.7s-3.5,1.6-4.8,0l-9.9-11.8c-1.3-1.6-1.3-4.1,0-5.7
						C130.8,66.6,132.9,66.6,134.2,68.2z"/>
					<path class="st2" d="M139.3,68.2L129.4,80c-1.3,1.6-1.3,4.1,0,5.7s3.5,1.6,4.8,0l9.9-11.8c1.3-1.6,1.3-4.1,0-5.7
						S140.6,66.6,139.3,68.2z"/>
				</g>
			</g>
		</g>
		<g>
			<path class="st3" d="M126.1,133.6c0,11.7-9.5,21.3-21.3,21.3s-21.3-9.5-21.3-21.3c0-11.7,9.5-21.3,21.3-21.3
				S126.1,121.8,126.1,133.6z"/>
			<path class="st4" d="M104.8,121.8c10.1,0,18.5,7,20.7,16.5c0.4-1.5,0.6-3.1,0.6-4.8c0-11.7-9.5-21.3-21.3-21.3
				s-21.3,9.5-21.3,21.3c0,1.6,0.2,3.2,0.6,4.8C86.3,128.9,94.7,121.8,104.8,121.8z"/>
			<g>
				<path class="st5" d="M106.6,154.7l-0.2-42.3c-0.6,0-1.1-0.1-1.7-0.1c-0.8,0-1.7,0.1-2.5,0.2l0.2,42.2c0.8,0.1,1.5,0.1,2.3,0.1
					C105.4,154.8,106,154.8,106.6,154.7z"/>
				<path class="st5" d="M91.2,117.2c-1.6,1.3-3,2.9-4.1,4.6l0.1,23.7c1.2,1.7,2.6,3.2,4.2,4.5L91.2,117.2z"/>
				<path class="st5" d="M121.7,120.8c-1.2-1.6-2.6-3-4.2-4.1l0.1,33.8c1.6-1.2,2.9-2.6,4.1-4.2L121.7,120.8z"/>
			</g>
		</g>
	</g>
</g>
</svg>
