<?xml version="1.0" encoding="utf-8"?>
<!-- Generator: Adobe Illustrator 23.0.5, SVG Export Plug-In . SVG Version: 6.00 Build 0)  -->
<svg version="1.1" id="Capa_1" xmlns="http://www.w3.org/2000/svg" xmlns:xlink="http://www.w3.org/1999/xlink" x="0px" y="0px"
	 viewBox="0 0 212.6 212.3" style="enable-background:new 0 0 212.6 212.3;" xml:space="preserve">
<style type="text/css">
	.st0{fill:#A0C85C;}
	.st1{fill:#FFFFFF;}
	.st2{fill:#B2B5B6;}
	.st3{fill:#626161;}
	.st4{fill-rule:evenodd;clip-rule:evenodd;fill:#383540;}
	.st5{fill-rule:evenodd;clip-rule:evenodd;fill:#6DB9DB;}
</style>
<g>
	<g>
		<rect y="-0.3" class="st0" width="212.6" height="212.6"/>
		<path class="st1" d="M54.7,131.3c0-0.7-0.5-3.5,1.2-5.6c5.5-7.2,22.8,5.4,48.6,6.5c25.7,1.1,43.9-10,48.8-2.4
			c1.5,2.3,0.8,5,0.7,5.7c-0.4,10-23,17.1-50.4,15.9C76.1,150.3,54.2,141.3,54.7,131.3z"/>
		<path class="st1" d="M54.7,131.3c0-0.7-0.5-3.5,1.2-5.6c5.5-7.2,22.8,5.4,48.6,6.5c25.7,1.1,43.9-10,48.8-2.4
			c1.5,2.3,0.8,5,0.7,5.7c-0.4,10-23,17.1-50.4,15.9C76.1,150.3,54.2,141.3,54.7,131.3z"/>
		<path class="st2" d="M104.4,132.2c39.8,1.7,47.7,0.7,49.1,5.4c0.2-0.6,0.4-1.3,0.4-1.9c0.1-2.5,0.2-4.2-0.7-5.7
			c-0.9-1.5-2.5-2.1-3.2-2.3c-2.1-0.8-3.9-0.4-4.9-0.3c-4.3,0.7-8.6,1-12.9,1.8c0,0-3.5,0.7-8.4,1.5
			C120.4,131.1,113,132.4,104.4,132.2c-1.7,0-9.9-0.3-19.9-3c-7.7-2.1-11.6-3.1-13.3-3.7c-3.4-1.2-7.2-2.9-11.5-1.8
			c-2.5,0.6-3.4,1.7-3.8,2.1c-1.4,1.8-1.2,4.3-1.2,5.7c0,0.7,0.1,1.5,0.3,2.2C56.6,128.7,64,130.4,104.4,132.2z"/>
		<g>
			<path class="st3" d="M110.2,151.8c1.4-0.1,2.8-0.1,4.2-0.2l0.3-19.4c-1.4,0-2.8,0-4.2,0.1L110.2,151.8z"/>
			<path class="st3" d="M125.6,130.4l0.6,20.5c1.4-0.3,2.8-0.6,4.2-1l-0.6-19.8C128.5,130.2,127.1,130.3,125.6,130.4z"/>
			<path class="st3" d="M143.7,147.1c1.4-0.9,2.6-1.9,3.8-2.9L144,127c-1.2,0.2-2.6,0.4-4.2,0.7L143.7,147.1z"/>
			<path class="st3" d="M64.1,123.8l-0.8,18.3c1.3,0.7,2.7,1.4,4.2,2.1l0.9-20.3C66.8,123.8,65.3,123.8,64.1,123.8z"/>
			<path class="st3" d="M94.2,151.2c1.4,0.1,2.8,0.2,4.2,0.3l1.1-19.7c-1.5-0.1-2.9-0.1-4.2-0.1L94.2,151.2z"/>
			<path class="st3" d="M78.7,149.2c1.4,0.3,2.8,0.6,4.2,0.9l1-22.5c-1.5-0.1-2.9-0.1-4.2-0.2L78.7,149.2z"/>
		</g>
		<g>
			<path class="st4" d="M106.3,60.2c39.1,0,70.9,13.6,70.9,25.4s-31.7,17.2-70.9,17.2s-70.9-5.4-70.9-17.2
				C35.4,73.8,67.2,60.2,106.3,60.2z"/>
			<path class="st5" d="M70.9,84.5c0-1.7,1.4-3,3.2-3c1.8,0,3.2,1.4,3.2,3c0,1.4,0.6,2.7,1.6,3.6c1,0.9,2.3,1.5,3.8,1.5
				s2.9-0.6,3.8-1.5c1-0.9,1.6-2.2,1.6-3.6c0-1.7,1.4-3,3.2-3c1.8,0,3.2,1.4,3.2,3c0,3.1-1.3,5.9-3.5,7.9c-2.2,2-5.1,3.3-8.4,3.3
				s-6.3-1.3-8.4-3.3C72.2,90.4,70.9,87.6,70.9,84.5z"/>
			<path class="st5" d="M94.6,85.5c0,1.7-1.4,3-3.2,3c-1.8,0-3.2-1.4-3.2-3c0-1.4-0.6-2.7-1.6-3.6c-1-0.9-2.3-1.5-3.8-1.5
				s-2.9,0.6-3.8,1.5c-1,0.9-1.6,2.2-1.6,3.6c0,1.7-1.4,3-3.2,3c-1.8,0-3.2-1.4-3.2-3c0-3.1,1.3-5.9,3.5-7.9c2.2-2,5.1-3.3,8.4-3.3
				s6.3,1.3,8.4,3.3C93.3,79.7,94.6,82.5,94.6,85.5z"/>
			<path class="st5" d="M141.7,85.5c0,1.7-1.4,3-3.2,3s-3.2-1.4-3.2-3c0-1.4-0.6-2.7-1.6-3.6s-2.3-1.5-3.8-1.5S127,81,126,81.9
				s-1.6,2.2-1.6,3.6c0,1.7-1.4,3-3.2,3c-1.8,0-3.2-1.4-3.2-3c0-3.1,1.3-5.9,3.5-7.9c2.2-2,5.1-3.3,8.4-3.3s6.3,1.3,8.4,3.3
				C140.4,79.7,141.7,82.5,141.7,85.5z"/>
		</g>
	</g>
</g>
</svg>
