<?xml version="1.0" encoding="utf-8"?>
<!-- Generator: Adobe Illustrator 27.5.0, SVG Export Plug-In . SVG Version: 6.00 Build 0)  -->
<svg version="1.1" xmlns="http://www.w3.org/2000/svg" xmlns:xlink="http://www.w3.org/1999/xlink" x="0px" y="0px"
	 viewBox="0 0 1122 1122" style="enable-background:new 0 0 1122 1122;" xml:space="preserve">
<g id="BG">
	<rect id="XMLID_23831_" x="0" y="0" style="fill:#38BCB6;" width="1122" height="1122"/>
</g>
<g id="Object">
	<polygon id="XMLID_23738_" style="opacity:0.2;fill:#414042;" points="1011.081,408.224 58.201,743.193 365.99,1122 1120.218,1122 
		1122,526.469 	"/>
	<g id="XMLID_23630_">
		<g id="XMLID_23672_">
			<g id="XMLID_23718_">
				<g id="XMLID_23733_">
					<path id="XMLID_23737_" style="fill:#FFFFFF;" d="M675.441,385.052c0-9.504-7.704-17.208-17.208-17.208H126.469
						c-9.504,0-17.208,7.704-17.208,17.208v355.356h566.179V385.052z"/>
					<path id="XMLID_23734_" style="fill:#1F191A;" d="M675.44,742.319c1.055,0,1.911-0.855,1.911-1.911V385.052
						c0-10.543-8.576-19.119-19.118-19.119H126.469c-10.543,0-19.119,8.577-19.119,19.119v355.356c0,1.056,0.855,1.911,1.911,1.911
						H675.44z M111.172,385.052c0-8.435,6.863-15.297,15.297-15.297h531.764c8.435,0,15.296,6.863,15.296,15.297v353.445H111.172
						V385.052z"/>
				</g>
				<g id="XMLID_23728_">
					<path id="XMLID_23732_" style="fill:#FFFFFF;" d="M663.769,754.156c13.911,0,64.33-1.492,64.33-15.404v-9.538
						c0-2.786-2.259-5.045-5.045-5.045H61.648c-2.786,0-5.045,2.259-5.045,5.045v9.538c0,13.911,50.418,15.404,64.33,15.404H663.769
						z"/>
					<path id="XMLID_23729_" style="fill:#1F191A;" d="M120.933,756.067h542.837c3.447,0,21.465-0.121,37.66-2.505
						c19.232-2.832,28.581-7.676,28.581-14.81v-9.538c0-3.836-3.12-6.956-6.956-6.956H61.648c-3.836,0-6.957,3.12-6.957,6.956v9.538
						c0,7.133,9.349,11.977,28.581,14.81C99.468,755.946,117.485,756.067,120.933,756.067z M58.514,738.752v-9.538
						c0-1.728,1.406-3.134,3.134-3.134h661.406c1.728,0,3.134,1.406,3.134,3.134v9.538c0,8.858-31.4,13.493-62.418,13.493H120.933
						C89.914,752.245,58.514,747.61,58.514,738.752z"/>
				</g>
				<g id="XMLID_23723_">
					<rect id="XMLID_23727_" x="137.443" y="394.618" style="fill:#3F3E40;" width="509.815" height="307.063"/>
					<path id="XMLID_23724_" style="fill:#1F191A;" d="M647.258,703.592c1.055,0,1.911-0.855,1.911-1.911V394.618
						c0-1.056-0.855-1.911-1.911-1.911H137.443c-1.055,0-1.911,0.855-1.911,1.911v307.063c0,1.056,0.855,1.911,1.911,1.911H647.258z
						 M139.354,396.529h505.993V699.77H139.354V396.529z"/>
				</g>
				<g id="XMLID_23721_">
					<path id="XMLID_23722_" style="fill:#1F191A;" d="M726.501,743.193c1.055,0,1.911-0.855,1.911-1.911
						c0-1.056-0.855-1.911-1.911-1.911H58.201c-1.056,0-1.911,0.855-1.911,1.911c0,1.055,0.856,1.911,1.911,1.911H726.501z"/>
				</g>
				<g id="XMLID_23719_">
					<path id="XMLID_23720_" style="fill:#1F191A;" d="M324.386,722.259c-1.056,0-1.911,0.855-1.911,1.911v2.095
						c0,4.554,3.705,8.259,8.259,8.259h123.233c4.554,0,8.259-3.705,8.259-8.259v-2.095c0-1.056-0.855-1.911-1.911-1.911
						c-1.056,0-1.911,0.855-1.911,1.911v2.095c0,2.447-1.99,4.437-4.437,4.437H330.734c-2.447,0-4.437-1.99-4.437-4.437v-2.095
						C326.297,723.114,325.442,722.259,324.386,722.259z"/>
				</g>
			</g>
			<g id="XMLID_23713_">
				<path id="XMLID_23717_" style="fill:#FFFFFF;" d="M392.351,384.247c1.694,0,3.067-1.374,3.067-3.068
					c0-1.694-1.373-3.068-3.067-3.068c-1.694,0-3.068,1.373-3.068,3.068C389.283,382.874,390.657,384.247,392.351,384.247z"/>
				<path id="XMLID_23714_" style="fill:#1F191A;" d="M396.947,381.18c0-2.535-2.062-4.597-4.596-4.597
					c-2.535,0-4.597,2.062-4.597,4.597c0,2.534,2.062,4.596,4.597,4.596C394.886,385.776,396.947,383.714,396.947,381.18z
					 M390.812,381.18c0-0.849,0.691-1.539,1.539-1.539c0.848,0,1.539,0.69,1.539,1.539c0,0.848-0.691,1.539-1.539,1.539
					C391.502,382.718,390.812,382.028,390.812,381.18z"/>
			</g>
		</g>
		<g id="XMLID_23651_">
			<g id="XMLID_23667_">
				<path id="XMLID_23671_" style="fill:#FFFFFF;" d="M997.56,754.123c8.542,0,15.466-6.924,15.466-15.466V421.746
					c0-8.542-6.925-15.466-15.466-15.466H783.198c-8.542,0-15.466,6.924-15.466,15.466v316.911c0,8.542,6.924,15.466,15.466,15.466
					H997.56z"/>
				<path id="XMLID_23668_" style="fill:#1F191A;" d="M997.56,756.067c9.6,0,17.411-7.811,17.411-17.411V421.746
					c0-9.6-7.81-17.411-17.411-17.411H783.198c-9.6,0-17.411,7.811-17.411,17.411v316.911c0,9.6,7.811,17.411,17.411,17.411H997.56z
					 M769.676,738.656V421.746c0-7.456,6.065-13.521,13.521-13.521H997.56c7.456,0,13.521,6.065,13.521,13.521v316.911
					c0,7.456-6.065,13.521-13.521,13.521H783.198C775.742,752.177,769.676,746.112,769.676,738.656z"/>
			</g>
			<g id="XMLID_23662_">
				<rect id="XMLID_23666_" x="783.542" y="437.09" style="fill:#3F3E40;" width="213.674" height="285.11"/>
				<path id="XMLID_23663_" style="fill:#1F191A;" d="M997.216,724.145c1.074,0,1.945-0.871,1.945-1.945V437.09
					c0-1.074-0.871-1.945-1.945-1.945H783.542c-1.074,0-1.945,0.871-1.945,1.945V722.2c0,1.074,0.871,1.945,1.945,1.945H997.216z
					 M785.487,439.035h209.784v281.221H785.487V439.035z"/>
			</g>
			<g id="XMLID_23657_">
				<circle id="XMLID_23661_" style="fill:#FFFFFF;" cx="890.379" cy="737.906" r="9.611"/>
				<path id="XMLID_23658_" style="fill:#1F191A;" d="M901.935,737.906c0-6.372-5.184-11.557-11.556-11.557
					c-6.372,0-11.557,5.184-11.557,11.557c0,6.372,5.184,11.556,11.557,11.556C896.751,749.462,901.935,744.278,901.935,737.906z
					 M882.712,737.906c0-4.228,3.439-7.667,7.667-7.667c4.227,0,7.666,3.439,7.666,7.667c0,4.227-3.439,7.666-7.666,7.666
					C886.151,745.573,882.712,742.133,882.712,737.906z"/>
			</g>
			<g id="XMLID_23652_">
				<path id="XMLID_23656_" style="fill:#FFFFFF;" d="M899.898,426.762c1.189,0,2.152-0.964,2.152-2.152v-0.044
					c0-1.189-0.964-2.152-2.152-2.152H880.86c-1.189,0-2.152,0.964-2.152,2.152v0.044c0,1.189,0.964,2.152,2.152,2.152H899.898z"/>
				<path id="XMLID_23653_" style="fill:#1F191A;" d="M899.898,428.707c2.259,0,4.097-1.838,4.097-4.141
					c0-2.259-1.838-4.097-4.097-4.097H880.86c-2.259,0-4.097,1.838-4.097,4.14c0,2.259,1.838,4.097,4.097,4.097H899.898z
					 M880.653,424.566c0-0.115,0.093-0.207,0.207-0.207h19.038c0.115,0,0.207,0.093,0.207,0.251c0,0.115-0.093,0.207-0.207,0.207
					H880.86C880.745,424.817,880.653,424.724,880.653,424.566z"/>
			</g>
		</g>
		<g id="XMLID_23631_">
			<g id="XMLID_23646_">
				<path id="XMLID_23650_" style="fill:#FFFFFF;" d="M721.909,755.133h-95.92c-8.074,0-14.619-6.545-14.619-14.619V508.269
					c0-8.074,6.545-14.619,14.619-14.619h95.92c8.074,0,14.619,6.545,14.619,14.619v232.244
					C736.528,748.588,729.983,755.133,721.909,755.133z"/>
				<path id="XMLID_23647_" style="fill:#1F191A;" d="M721.909,756.067h-95.92c-8.576,0-15.553-6.977-15.553-15.554V508.269
					c0-8.576,6.977-15.554,15.553-15.554h95.92c8.576,0,15.553,6.977,15.553,15.554v232.245
					C737.462,749.09,730.485,756.067,721.909,756.067z M625.989,494.584c-7.546,0-13.685,6.139-13.685,13.685v232.245
					c0,7.546,6.139,13.685,13.685,13.685h95.92c7.546,0,13.685-6.139,13.685-13.685V508.269c0-7.546-6.139-13.685-13.685-13.685
					H625.989z"/>
			</g>
			<g id="XMLID_23641_">
				<rect id="XMLID_23645_" x="618.132" y="524.946" style="fill:#3F3E40;" width="111.633" height="198.818"/>
				<path id="XMLID_23642_" style="fill:#1F191A;" d="M729.766,724.699H618.132c-0.516,0-0.934-0.418-0.934-0.934V524.946
					c0-0.516,0.418-0.934,0.934-0.934h111.634c0.516,0,0.934,0.418,0.934,0.934v198.818
					C730.7,724.281,730.282,724.699,729.766,724.699z M619.066,722.831h109.765v-196.95H619.066V722.831z"/>
			</g>
			<g id="XMLID_23637_">
				<path id="XMLID_23638_" style="fill:#1F191A;" d="M684.31,512.147h-20.723c-1.807,0-3.277-1.47-3.277-3.277v-0.047
					c0-1.807,1.47-3.277,3.277-3.277h20.723c1.807,0,3.277,1.47,3.277,3.277v0.047C687.587,510.677,686.117,512.147,684.31,512.147z
					 M663.588,507.414c-0.777,0-1.409,0.632-1.409,1.409v0.047c0,0.777,0.632,1.409,1.409,1.409h20.723
					c0.776,0,1.409-0.632,1.409-1.409v-0.047c0-0.776-0.632-1.409-1.409-1.409H663.588z"/>
			</g>
			<g id="XMLID_23632_">
				<path id="XMLID_23636_" style="fill:#FFFFFF;" d="M685.417,747.475h-22.936c-0.932,0-1.688-0.756-1.688-1.688v-13.651
					c0-0.932,0.756-1.688,1.688-1.688h22.936c0.932,0,1.688,0.756,1.688,1.688v13.651
					C687.105,746.719,686.349,747.475,685.417,747.475z"/>
				<path id="XMLID_23633_" style="fill:#232020;" d="M683.459,748.19h-19.021c-2.405,0-4.361-1.956-4.361-4.361v-9.736
					c0-2.405,1.956-4.361,4.361-4.361h19.021c2.405,0,4.361,1.956,4.361,4.361v9.736C687.82,746.234,685.864,748.19,683.459,748.19z
					 M664.438,731.164c-1.615,0-2.93,1.314-2.93,2.93v9.736c0,1.615,1.314,2.93,2.93,2.93h19.021c1.615,0,2.93-1.314,2.93-2.93
					v-9.736c0-1.615-1.314-2.93-2.93-2.93H664.438z"/>
			</g>
		</g>
	</g>
</g>
</svg>
