<?xml version="1.0" encoding="utf-8"?>
<!-- Generator: Adobe Illustrator 23.0.5, SVG Export Plug-In . SVG Version: 6.00 Build 0)  -->
<svg version="1.1" id="Capa_1" xmlns="http://www.w3.org/2000/svg" xmlns:xlink="http://www.w3.org/1999/xlink" x="0px" y="0px"
	 viewBox="0 0 612 710" style="enable-background:new 0 0 612 710;" xml:space="preserve">
<style type="text/css">
	.st0{fill:#7F3A86;}
	.st1{fill:#662579;}
	.st2{fill:#9A5196;}
	.st3{fill:#FFFFFF;}
	.st4{fill-rule:evenodd;clip-rule:evenodd;fill:#FFFFFF;}
</style>
<g>
	<path class="st0" d="M598.4,530c4.7-8.5,7.6-18,7.6-26.5v-297c0-8.6-2.9-18.1-7.6-26.5L306,355L598.4,530z"/>
	<path class="st1" d="M332,698.6l248-148.5c7.1-4.3,13.6-11.7,18.3-20.1L306,355L13.6,530c4.7,8.5,11.2,15.8,18.3,20.1l248,148.5
		C294.3,707.1,317.7,707.1,332,698.6z"/>
	<path class="st2" d="M598.4,180c-4.7-8.5-11.2-15.8-18.3-20.1L332,11.4c-14.3-8.6-37.7-8.6-52,0L32,159.9
		c-14.3,8.6-26,29.5-26,46.7v296.9c0,8.6,2.9,18.1,7.6,26.5L306,355L598.4,180z"/>
	<path class="st3" d="M307,555c-110.8,0-201-89.7-201-200s90.2-200,201-200c70.2,0,135.7,36.9,172,96.5l-86.1,51.6
		C374.7,273.4,342,255,307,255c-55.4,0-100.5,44.9-100.5,100S251.6,455,307,455c34.9,0,67.6-18.3,85.8-47.9l86.2,51.3
		C442.7,518.1,377.2,555,307,555z"/>
	<path class="st4" d="M531,280v24.9h-50V280h-25v24.9h-25V330h25v49.9h-25V405h25v25h25v-25h50v25h25v-25h25v-25h-25v-50h25v-25.1
		h-25V280H531z M531,380v-50h-50v49.9L531,380z"/>
</g>
</svg>
