<?xml version="1.0" encoding="utf-8"?>
<!-- Generator: Adobe Illustrator 23.0.5, SVG Export Plug-In . SVG Version: 6.00 Build 0)  -->
<svg version="1.1" xmlns="http://www.w3.org/2000/svg" xmlns:xlink="http://www.w3.org/1999/xlink" x="0px" y="0px"
	 viewBox="0 0 444.43 657" style="enable-background:new 0 0 444.43 657;" xml:space="preserve">
<style type="text/css">
	.st0{fill:#A0C85C;}
	.st1{fill:#FFFFFF;}
	.st2{fill:#B2B5B6;}
	.st3{fill:#626161;}
	.st4{fill-rule:evenodd;clip-rule:evenodd;fill:#383540;}
	.st5{fill-rule:evenodd;clip-rule:evenodd;fill:#6DB9DB;}
	.st6{fill-rule:evenodd;clip-rule:evenodd;fill:#9F6CA3;}
	.st7{fill-rule:evenodd;clip-rule:evenodd;fill:#A768A8;}
	.st8{fill-rule:evenodd;clip-rule:evenodd;fill:#5291CC;}
	.st9{fill-rule:evenodd;clip-rule:evenodd;fill:#A5A8AE;}
	.st10{fill-rule:evenodd;clip-rule:evenodd;fill:#7B8E6A;}
	.st11{fill:#E7247B;}
	.st12{fill-rule:evenodd;clip-rule:evenodd;fill:#FFFFFF;}
	.st13{fill-rule:evenodd;clip-rule:evenodd;fill:#635963;}
</style>
<g id="Capa_1">
	<g>
		<rect x="3.42" y="2.99" class="st0" width="212.6" height="212.6"/>
		<path class="st1" d="M58.08,134.61c0.03-0.72-0.45-3.47,1.21-5.65c5.5-7.24,22.79,5.41,48.57,6.49c25.69,1.08,43.92-10,48.77-2.35
			c1.47,2.32,0.75,5.01,0.72,5.74c-0.43,9.97-23,17.1-50.41,15.93C79.53,153.61,57.65,144.58,58.08,134.61z"/>
		<path class="st1" d="M58.08,134.61c0.03-0.72-0.45-3.47,1.21-5.65c5.5-7.24,22.79,5.41,48.57,6.49c25.69,1.08,43.92-10,48.77-2.35
			c1.47,2.32,0.75,5.01,0.72,5.74c-0.43,9.97-23,17.1-50.41,15.93C79.53,153.61,57.65,144.58,58.08,134.61z"/>
		<path class="st2" d="M107.85,135.45c39.78,1.69,47.73,0.68,49.1,5.35c0.22-0.64,0.36-1.29,0.39-1.95c0.1-2.47,0.24-4.22-0.72-5.74
			c-0.94-1.49-2.47-2.06-3.21-2.33c-2.06-0.77-3.92-0.45-4.91-0.29c-4.27,0.71-8.61,1.02-12.86,1.84c0,0-3.46,0.67-8.36,1.5
			C123.78,134.42,116.41,135.67,107.85,135.45c-1.68-0.04-9.88-0.32-19.94-3.01c-7.71-2.07-11.57-3.1-13.31-3.74
			c-3.39-1.24-7.19-2.88-11.52-1.84c-2.49,0.6-3.45,1.67-3.79,2.11c-1.4,1.8-1.15,4.32-1.21,5.66c-0.03,0.74,0.1,1.48,0.31,2.22
			C59.98,132.01,67.41,133.72,107.85,135.45z"/>
		<g>
			<path class="st3" d="M113.64,155.07c1.43-0.06,2.85-0.14,4.24-0.24l0.31-19.39c-1.36,0.02-2.77,0.04-4.24,0.06L113.64,155.07z"/>
			<path class="st3" d="M129.02,133.69l0.63,20.5c1.44-0.31,2.84-0.64,4.2-0.99l-0.61-19.8
				C131.92,133.49,130.49,133.59,129.02,133.69z"/>
			<path class="st3" d="M147.16,150.44c1.38-0.94,2.64-1.89,3.75-2.85l-3.48-17.26c-1.21,0.16-2.59,0.37-4.19,0.66L147.16,150.44z"
				/>
			<path class="st3" d="M67.53,127.1l-0.78,18.3c1.27,0.72,2.66,1.41,4.15,2.07l0.87-20.31C70.17,127.11,68.76,127.09,67.53,127.1z"
				/>
			<path class="st3" d="M97.63,154.46c1.39,0.12,2.79,0.23,4.22,0.31l1.1-19.69c-1.46-0.05-2.87-0.1-4.23-0.15L97.63,154.46z"/>
			<path class="st3" d="M82.12,152.46c1.36,0.32,2.76,0.62,4.2,0.9l1.04-22.48c-1.49-0.07-2.89-0.14-4.23-0.2L82.12,152.46z"/>
		</g>
		<g>
			<path class="st4" d="M109.72,63.5c39.14,0,70.87,13.62,70.87,25.36c0,11.74-31.73,17.16-70.87,17.16
				c-39.14,0-70.87-5.42-70.87-17.16C38.85,77.12,70.58,63.5,109.72,63.5z"/>
			<path class="st5" d="M74.28,87.79c0-1.67,1.45-3.03,3.23-3.03c1.78,0,3.23,1.36,3.23,3.03c0,1.41,0.61,2.68,1.59,3.6
				c0.98,0.92,2.34,1.49,3.84,1.49s2.86-0.57,3.84-1.49c0.98-0.92,1.59-2.19,1.59-3.6c0-1.67,1.44-3.03,3.23-3.03
				c1.78,0,3.23,1.36,3.23,3.03c0,3.08-1.33,5.87-3.48,7.88c-2.15,2.02-5.13,3.26-8.41,3.26c-3.28,0-6.26-1.25-8.41-3.26
				C75.61,93.65,74.28,90.87,74.28,87.79z"/>
			<path class="st5" d="M98.06,88.82c0,1.67-1.45,3.03-3.23,3.03c-1.78,0-3.23-1.36-3.23-3.03c0-1.41-0.61-2.68-1.59-3.6
				c-0.98-0.92-2.34-1.49-3.84-1.49s-2.86,0.57-3.84,1.49c-0.98,0.92-1.59,2.19-1.59,3.6c0,1.67-1.44,3.03-3.23,3.03
				c-1.78,0-3.23-1.36-3.23-3.03c0-3.08,1.33-5.87,3.48-7.88c2.15-2.02,5.13-3.26,8.41-3.26c3.28,0,6.26,1.25,8.41,3.26
				C96.73,82.96,98.06,85.75,98.06,88.82z"/>
			<path class="st5" d="M145.15,88.82c0,1.67-1.45,3.03-3.23,3.03c-1.78,0-3.23-1.36-3.23-3.03c0-1.41-0.61-2.68-1.59-3.6
				c-0.98-0.92-2.34-1.49-3.84-1.49c-1.5,0-2.86,0.57-3.84,1.49c-0.98,0.92-1.59,2.2-1.59,3.6c0,1.67-1.45,3.03-3.23,3.03
				c-1.78,0-3.23-1.36-3.23-3.03c0-3.08,1.33-5.87,3.48-7.88c2.15-2.02,5.13-3.26,8.41-3.26c3.28,0,6.26,1.25,8.41,3.26
				C143.82,82.96,145.15,85.75,145.15,88.82z"/>
		</g>
	</g>
	<g id="Capa_2">
	</g>
</g>
<g id="Capa_3">
	<g>
		<rect x="3.42" y="221.16" class="st6" width="212.6" height="212.6"/>
		<g>
			<path class="st4" d="M109.72,275.67c39.14,0,70.87,13.62,70.87,25.36c0,11.74-31.73,17.16-70.87,17.16
				c-39.14,0-70.87-5.42-70.87-17.16C38.85,289.29,70.58,275.67,109.72,275.67z"/>
			<g>
				<g>
					<path class="st5" d="M82.99,289.19l9.88,11.79c1.32,1.57,1.32,4.13,0,5.7c-1.31,1.57-3.46,1.57-4.78,0l-9.88-11.79
						c-1.31-1.57-1.31-4.13,0-5.7C79.52,287.62,81.67,287.62,82.99,289.19z"/>
					<path class="st5" d="M88.09,289.19l-9.88,11.79c-1.32,1.57-1.32,4.13,0,5.7c1.32,1.57,3.46,1.57,4.78,0l9.88-11.79
						c1.32-1.57,1.32-4.13,0-5.7C91.55,287.62,89.4,287.62,88.09,289.19z"/>
				</g>
				<g>
					<path class="st5" d="M137.22,289.19l9.88,11.79c1.32,1.57,1.32,4.13,0,5.7c-1.32,1.57-3.46,1.57-4.78,0l-9.88-11.79
						c-1.32-1.57-1.32-4.13,0-5.7C133.76,287.62,135.91,287.62,137.22,289.19z"/>
					<path class="st5" d="M142.33,289.19l-9.88,11.79c-1.32,1.57-1.32,4.13,0,5.7c1.32,1.57,3.46,1.57,4.78,0l9.88-11.79
						c1.32-1.57,1.32-4.13,0-5.7C145.79,287.62,143.64,287.62,142.33,289.19z"/>
				</g>
			</g>
		</g>
		<g>
			<path class="st1" d="M129.05,354.56c0,11.74-9.52,21.26-21.26,21.26c-11.74,0-21.26-9.52-21.26-21.26
				c0-11.74,9.52-21.26,21.26-21.26C119.53,333.3,129.05,342.82,129.05,354.56z"/>
			<path class="st2" d="M107.79,342.82c10.1,0,18.54,7.05,20.7,16.5c0.35-1.54,0.56-3.12,0.56-4.76c0-11.74-9.52-21.26-21.26-21.26
				c-11.74,0-21.26,9.52-21.26,21.26c0,1.64,0.2,3.23,0.56,4.76C89.25,349.88,97.69,342.82,107.79,342.82z"/>
			<g>
				<path class="st3" d="M109.62,375.72l-0.16-42.34c-0.55-0.04-1.11-0.08-1.67-0.08c-0.84,0-1.66,0.06-2.47,0.16l0.16,42.23
					c0.76,0.08,1.53,0.13,2.31,0.13C108.41,375.82,109.01,375.78,109.62,375.72z"/>
				<path class="st3" d="M94.23,338.18c-1.59,1.31-2.97,2.85-4.12,4.57l0.09,23.75c1.16,1.71,2.56,3.23,4.15,4.53L94.23,338.18z"/>
				<path class="st3" d="M124.73,341.76c-1.19-1.57-2.58-2.96-4.15-4.15l0.12,33.81c1.56-1.2,2.95-2.6,4.12-4.18L124.73,341.76z"/>
			</g>
		</g>
	</g>
</g>
<g id="Capa_4">
	<g>
		<rect x="228.42" y="2.99" class="st7" width="212.6" height="212.6"/>
		<g>
			<path class="st4" d="M335.72,56.33c35.22,0,63.78,18.16,63.78,33.82c0,15.66-28.55,22.88-63.78,22.88
				c-35.23,0-63.78-7.22-63.78-22.88C271.93,74.49,300.49,56.33,335.72,56.33z"/>
			<g>
				
					<ellipse transform="matrix(0.9872 -0.1595 0.1595 0.9872 -9.2192 54.4541)" class="st4" cx="334.71" cy="84.68" rx="14.72" ry="14.72"/>
				
					<ellipse transform="matrix(0.9872 -0.1596 0.1596 0.9872 -9.224 54.5089)" class="st5" cx="334.71" cy="84.68" rx="11.54" ry="11.54"/>
				<path class="st8" d="M334.72,93.39c4.8,0,8.71-3.91,8.71-8.71c0-4.8-3.91-8.71-8.71-8.71c-4.8,0-8.71,3.91-8.71,8.71
					C326,89.47,329.92,93.39,334.72,93.39z"/>
				<path class="st9" d="M334.71,68.37c-4.5,0-8.58,1.83-11.53,4.78c-2.95,2.95-4.78,7.03-4.78,11.53c0,4.5,1.83,8.58,4.78,11.53
					c2.95,2.95,7.03,4.78,11.53,4.78c4.5,0,8.58-1.83,11.53-4.78c2.95-2.95,4.78-7.03,4.78-11.53c0-4.5-1.83-8.58-4.78-11.53
					C343.3,70.19,339.22,68.37,334.71,68.37L334.71,68.37z M322.18,72.14c3.21-3.21,7.64-5.19,12.54-5.19
					c4.9,0,9.33,1.99,12.54,5.19c3.21,3.21,5.19,7.64,5.19,12.54c0,4.9-1.99,9.33-5.19,12.54c-3.21,3.21-7.64,5.19-12.54,5.19
					c-4.9,0-9.33-1.99-12.54-5.19c-3.21-3.21-5.19-7.64-5.19-12.54C316.98,79.78,318.97,75.35,322.18,72.14z"/>
			</g>
		</g>
		<g>
			<path class="st1" d="M287.66,134.93c0.13-2.65,0.49-4.91,0.87-5.41c2.52-3.27,12.17-2.31,48.67-2.82
				c36.49-0.51,46.13-1.74,48.7,1.45c0.55,0.67,0.77,3.09,0.96,5.39c0,0,0.38,4.68-0.51,8.32c-2.24,9.18-44.18,9.64-48.97,9.68
				c0,0-46.28,0.31-48.96-9.03C287.45,139.07,287.66,134.93,287.66,134.93z"/>
			<path class="st2" d="M337.39,136.39c14.18-0.33,18.75-0.23,36.64-0.64c5.38-0.12,9.76-0.24,12.54-0.32
				c0.19-0.62,0.3-1.25,0.29-1.89c-0.07-9.55-0.06-7.53-49.66-6.84c-49.6,0.7-49.62-1.32-49.55,8.23c0.01,0.72,0.17,1.41,0.42,2.1
				c5.94,0.1,15.12,0.18,26.39,0C324.23,136.88,323.78,136.71,337.39,136.39z"/>
			<g>
				<path class="st3" d="M374.79,147.83c1.73,0.29,3.28-0.19,3.91-1.26c0.13-0.23,0.28-0.57,0.31-1.06l-0.12-19.34
					c-1.22-0.08-2.61-0.12-4.23-0.13L374.79,147.83z"/>
				<path class="st3" d="M296.71,127.26l0.13,19.7c0.05,0.13,0.1,0.25,0.16,0.36c0.89,1.57,3.44,1.61,4.08,1.61l-0.14-21.87
					C299.35,127.11,297.94,127.17,296.71,127.26z"/>
				<path class="st3" d="M328.07,151.35c1.39,0.07,2.8,0.14,4.23,0.17l-0.18-24.75c-1.46,0.02-2.87,0.03-4.23,0.04L328.07,151.35z"
					/>
				<path class="st3" d="M359.23,150.13c1.39,0.07,2.8,0.13,4.23,0.16l-0.18-24.1c-1.46,0.02-2.87,0.03-4.23,0.04L359.23,150.13z"/>
				<path class="st3" d="M343.65,151.35c1.39,0.07,2.8,0.14,4.23,0.17l-0.18-24.99c-1.46,0.02-2.87,0.03-4.23,0.04L343.65,151.35z"
					/>
				<path class="st3" d="M312.47,150.43c1.39,0.07,2.8,0.13,4.23,0.16l-0.18-23.82c-1.46,0.01-2.87,0.03-4.23,0.04L312.47,150.43z"
					/>
			</g>
		</g>
	</g>
</g>
<g id="Capa_5">
	<g>
		<rect x="228.42" y="221.16" class="st10" width="212.6" height="212.6"/>
		<g>
			<path class="st4" d="M334.72,275.67c39.14,0,70.87,13.62,70.87,25.36c0,11.74-31.73,17.16-70.87,17.16
				c-39.14,0-70.87-5.42-70.87-17.16C263.85,289.29,295.58,275.67,334.72,275.67z"/>
			<path class="st11" d="M307.86,289.57c-1.89,0-3.23,1.07-4.02,1.96c-0.79-0.89-2.13-1.96-4.02-1.96c-2.82,0-5.03,3.07-5.03,6.99
				c0,2.67,1.12,7.85,8.6,12.57l0.45,0.29l0.45-0.29c7.48-4.72,8.6-9.9,8.6-12.57C312.89,292.64,310.68,289.57,307.86,289.57z
				 M303.84,306.54c-4.47-2.94-7.02-6.56-7.02-9.98c0-2.15,1.05-4.43,3-4.43c2.05,0,3.12,1.89,3.18,2l0.84,1.6l0.85-1.61
				c0.01-0.02,1.07-2,3.17-2c1.95,0,3,2.28,3,4.43C310.86,299.98,308.31,303.6,303.84,306.54z"/>
			<path class="st11" d="M369.12,289.57c-1.89,0-3.23,1.07-4.02,1.96c-0.79-0.89-2.13-1.96-4.02-1.96c-2.82,0-5.03,3.07-5.03,6.99
				c0,2.67,1.12,7.85,8.6,12.57l0.45,0.29l0.45-0.29c7.48-4.72,8.6-9.9,8.6-12.57C374.16,292.64,371.95,289.57,369.12,289.57z
				 M365.1,306.54c-4.47-2.94-7.02-6.56-7.02-9.98c0-2.15,1.05-4.43,3-4.43c2.05,0,3.12,1.89,3.18,2l0.84,1.6l0.85-1.61
				c0.01-0.02,1.07-2,3.17-2c1.95,0,3,2.28,3,4.43C372.13,299.98,369.58,303.6,365.1,306.54z"/>
		</g>
		<g>
			<path class="st12" d="M285.11,333.87c13.4,17.72,30.66,28.35,49.61,28.35c18.96,0,36.22-10.62,49.61-28.35"/>
			<path class="st10" d="M287,325.73c12.85,17.72,29.4,28.35,47.57,28.35c18.18,0,34.73-10.62,47.57-28.35"/>
		</g>
	</g>
</g>
<g id="Capa_6">
	<g>
		<rect x="3.42" y="442.45" class="st13" width="212.6" height="212.6"/>
		<g>
			<path class="st4" d="M108.65,502.71c39.14,0,70.87,13.62,70.87,25.36c0,11.74-31.73,17.16-70.87,17.16
				c-39.14,0-70.87-5.42-70.87-17.16C37.79,516.33,69.51,502.71,108.65,502.71z"/>
			<g>
				<path class="st5" d="M84.91,538.14c5.12,0,9.3-4.89,9.3-10.88s-4.18-10.88-9.3-10.88c-5.13,0-9.3,4.89-9.3,10.88
					S79.79,538.14,84.91,538.14z"/>
				<path class="st5" d="M132.78,538.14c5.13,0,9.3-4.89,9.3-10.88s-4.18-10.88-9.3-10.88c-5.13,0-9.3,4.89-9.3,10.88
					S127.66,538.14,132.78,538.14z"/>
			</g>
			<path class="st12" d="M88.45,526.35c2.2,0,3.99-1.79,3.99-3.99c0-2.2-1.79-3.99-3.99-3.99c-2.2,0-3.99,1.79-3.99,3.99
				C84.46,524.56,86.25,526.35,88.45,526.35z"/>
			<path class="st12" d="M136.32,526.35c2.2,0,3.99-1.79,3.99-3.99c0-2.2-1.79-3.99-3.99-3.99c-2.2,0-3.99,1.79-3.99,3.99
				C132.33,524.56,134.12,526.35,136.32,526.35z"/>
		</g>
		<g>
			<path class="st1" d="M59.07,580.31c-0.21-10.15-0.17-8,49.43-10.21c49.59-2.2,49.55-4.34,49.76,5.8
				c0.21,10.15-21.82,19.36-49.21,20.57C81.66,597.7,59.28,590.46,59.07,580.31z"/>
			<path class="st1" d="M59.07,580.31c-0.21-10.15-0.17-8,49.43-10.21c49.59-2.2,49.55-4.34,49.76,5.8
				c0.21,10.15-21.82,19.36-49.21,20.57C81.66,597.7,59.28,590.46,59.07,580.31z"/>
			<path class="st2" d="M156.79,569.78c-4.94,8.36-24.45,15.29-47.96,16.34c-23.5,1.04-43.27-4.15-48.55-12.05
				c-1.3,1.28-1.27,3.21-1.21,6.25c0.21,10.15,22.59,17.38,49.98,16.17c27.39-1.22,49.42-10.43,49.21-20.57
				C158.19,572.87,158.15,570.94,156.79,569.78z"/>
			<path class="st3" d="M115.31,596.04c1.43-0.13,2.84-0.27,4.22-0.45l-0.54-25.98c-1.36,0.07-2.77,0.14-4.23,0.21L115.31,596.04z"
				/>
			<path class="st3" d="M130.34,569.01l0.52,24.6c1.45-0.33,2.85-0.68,4.21-1.06l-0.5-23.77
				C133.25,568.86,131.82,568.94,130.34,569.01z"/>
			<path class="st3" d="M146.35,588.47c1.53-0.73,2.93-1.48,4.19-2.27l-0.37-17.91c-1.22-0.04-2.61-0.03-4.23,0.01L146.35,588.47z"
				/>
			<path class="st3" d="M68.01,571.87l0.39,18.63c1.31,0.62,2.74,1.19,4.27,1.73l-0.43-20.67
				C70.65,571.65,69.24,571.75,68.01,571.87z"/>
			<path class="st3" d="M99.73,596.56c1.39,0.04,2.8,0.06,4.24,0.05l-0.55-26.28c-1.46,0.06-2.87,0.12-4.23,0.17L99.73,596.56z"/>
			<path class="st3" d="M84.1,595.08c1.38,0.23,2.79,0.44,4.25,0.63l-0.52-24.8c-1.49,0.05-2.89,0.1-4.23,0.15L84.1,595.08z"/>
		</g>
	</g>
</g>
</svg>
