<?xml version="1.0" encoding="utf-8"?>
<!-- Generator: Adobe Illustrator 23.0.5, SVG Export Plug-In . SVG Version: 6.00 Build 0)  -->
<svg version="1.1" id="Capa_1" transform="matrix(-1, 0, 0, 1, 0, 0)"
	 xmlns="http://www.w3.org/2000/svg" xmlns:xlink="http://www.w3.org/1999/xlink" x="0px" y="0px" viewBox="0 0 717 721"
	 style="enable-background:new 0 0 717 721;" xml:space="preserve">
<style type="text/css">
	.st0{fill-rule:evenodd;clip-rule:evenodd;}
</style>
<g id="SVGRepo_bgCarrier">
</g>
<g id="SVGRepo_tracerCarrier">
</g>
<g id="SVGRepo_iconCarrier">
	<path class="st0" d="M358,5.8C162.9,5.8,4.8,163.9,4.8,359c0,195.1,158.1,353.2,353.2,353.2c195.1,0,353.2-158.1,353.2-353.2
		C711.2,163.9,553.1,5.8,358,5.8z M55.5,359C55.5,191.9,190.9,56.4,358,56.4S660.6,191.9,660.6,359c0,167.1-135.5,302.6-302.5,302.6
		S55.5,526.1,55.5,359z M384.7,199c0-14.7-11.9-26.7-26.7-26.7s-26.7,11.9-26.7,26.7v160c0,7.1,2.8,13.9,7.8,18.9l106.7,106.7
		c10.4,10.4,27.3,10.4,37.7,0c10.4-10.4,10.4-27.3,0-37.7L384.7,348V199z"/>
</g>
</svg>
