<?xml version="1.0" encoding="utf-8"?>
<!-- Generator: Adobe Illustrator 23.0.5, SVG Export Plug-In . SVG Version: 6.00 Build 0)  -->
<svg version="1.1" id="Capa_1" xmlns="http://www.w3.org/2000/svg" xmlns:xlink="http://www.w3.org/1999/xlink" x="0px" y="0px"
	 viewBox="0 0 677 676" style="enable-background:new 0 0 677 676;" xml:space="preserve">
<g>
	<path d="M671.3,338C671.3,154.3,521.7,4.7,338,4.7S4.7,154.3,4.7,338c0,96.7,41.7,183.7,107.7,244.7c0,0.3,0,0.3-0.3,0.7
		c3.3,3.3,7.3,6,10.7,9c2,1.7,3.7,3.3,5.7,4.7c6,5,12.7,9.7,19,14.3c2.3,1.7,4.3,3,6.7,4.7c6.3,4.3,13,8.3,20,12
		c2.3,1.3,5,3,7.3,4.3c6.7,3.7,13.7,7,21,10c2.7,1.3,5.3,2.7,8,3.7c7.3,3,14.7,5.7,22,8c2.7,1,5.3,2,8,2.7c8,2.3,16,4.3,24,6.3
		c2.3,0.7,4.7,1.3,7.3,1.7c9.3,2,18.7,3.3,28.3,4.3c1.3,0,2.7,0.3,4,0.7c11.3,1,22.7,1.7,34,1.7c11.3,0,22.7-0.7,33.7-1.7
		c1.3,0,2.7-0.3,4-0.7c9.7-1,19-2.3,28.3-4.3c2.3-0.3,4.7-1.3,7.3-1.7c8-2,16.3-3.7,24-6.3c2.7-1,5.3-2,8-2.7c7.3-2.7,15-5,22-8
		c2.7-1,5.3-2.3,8-3.7c7-3,14-6.3,21-10c2.7-1.3,5-3,7.3-4.3c6.7-4,13.3-7.7,20-12c2.3-1.3,4.3-3,6.7-4.7c6.7-4.7,13-9.3,19-14.3
		c2-1.7,3.7-3.3,5.7-4.7c3.7-3,7.3-6,10.7-9c0-0.3,0-0.3-0.3-0.7C629.7,521.7,671.3,434.7,671.3,338z M502.7,503.7
		c-90.3-60.7-238.3-60.7-329.3,0c-14.7,9.7-26.7,21-36.7,33.3c-50.7-51.3-82-121.7-82-199c0-156.3,127-283.3,283.3-283.3
		s283.3,127,283.3,283.3c0,77.3-31.3,147.7-82,199C529.7,524.7,517.3,513.3,502.7,503.7z"/>
	<path d="M338,169c-69,0-125,56-125,125c0,67.7,53,122.7,123.3,124.7c1,0,2.3,0,3,0c0.7,0,1.7,0,2.3,0c0.3,0,0.7,0,0.7,0
		c67.3-2.3,120.3-57,120.7-124.7C463,225,407,169,338,169z"/>
</g>
</svg>
