<?xml version="1.0" encoding="utf-8"?>
<!-- Generator: Adobe Illustrator 23.0.5, SVG Export Plug-In . SVG Version: 6.00 Build 0)  -->
<svg version="1.1" id="_x32_" xmlns="http://www.w3.org/2000/svg" xmlns:xlink="http://www.w3.org/1999/xlink" x="0px" y="0px"
	 viewBox="0 0 800 642" style="enable-background:new 0 0 800 642;" xml:space="preserve">
<g>
	<path d="M797.9,96.4c-3.6-18.2-11.7-34.8-22.9-48.5c-2.4-3-4.8-5.7-7.5-8.4C747.6,19.5,719.6,7,689,7H111
		C80.4,7,52.5,19.5,32.5,39.6c-2.7,2.7-5.2,5.4-7.5,8.4C13.7,61.6,5.7,78.3,2.2,96.4C0.7,103.4,0,110.7,0,118v406
		c0,15.6,3.3,30.5,9.2,44.1c5.5,12.9,13.5,24.6,23.3,34.4c2.5,2.5,5,4.8,7.6,7c19.2,15.9,44,25.5,70.8,25.5H689
		c26.8,0,51.7-9.6,70.8-25.6c2.7-2.2,5.2-4.4,7.6-6.9c9.8-9.8,17.9-21.5,23.4-34.4V568c5.9-13.5,9.1-28.4,9.1-44V118
		C800,110.7,799.3,103.4,797.9,96.4z M72.7,79.7c9.9-9.9,23.2-15.9,38.3-15.9H689c15.1,0,28.5,6,38.3,15.9c1.8,1.8,3.4,3.7,4.9,5.7
		l-303,264.1c-8.4,7.3-18.7,10.9-29.2,10.9c-10.4,0-20.7-3.6-29.2-10.9L67.9,85.3C69.3,83.3,70.9,81.5,72.7,79.7z M56.8,524V144
		L276,335.3L56.9,526.4C56.8,525.6,56.8,524.8,56.8,524z M689,578.2H111c-9.8,0-19-2.6-26.8-7.1l231.2-201.5l21.6,18.8
		C355,404,377.6,412,400,412c22.5,0,45.1-8,63.2-23.6l21.6-18.8l231.1,201.5C708,575.6,698.8,578.2,689,578.2z M743.2,524
		c0,0.8,0,1.6-0.1,2.4L524,335.4l219.2-191.3V524z"/>
</g>
</svg>
