<?xml version="1.0" encoding="utf-8"?>
<!-- Generator: Adobe Illustrator 23.0.5, SVG Export Plug-In . SVG Version: 6.00 Build 0)  -->
<svg version="1.1" id="a6b678a2-3714-46f6-ad50-598977cf64a4"
	 xmlns="http://www.w3.org/2000/svg" xmlns:xlink="http://www.w3.org/1999/xlink" x="0px" y="0px" viewBox="0 0 670 800"
	 style="enable-background:new 0 0 670 800;" xml:space="preserve">
<g>
	<path d="M555.3,794.3H114.7C54.3,794.2,5.3,745.2,5.2,684.8V356.9c0.1-60.4,49.1-109.4,109.5-109.5h440.6
		c60.4,0.1,109.4,49.1,109.5,109.5v327.9C664.7,745.2,615.7,794.2,555.3,794.3z M114.7,304.5c-28.9,0-52.3,23.5-52.3,52.4v327.9
		c0,28.9,23.4,52.3,52.3,52.4h440.6c28.9,0,52.3-23.5,52.4-52.4V356.9c0-28.9-23.5-52.3-52.4-52.4H114.7z"/>
	<path d="M518.7,304.5c-15.8,0-28.6-12.8-28.6-28.6v-79.2c-0.4-36.1-16.6-70.1-44.2-93.3C415.2,76.8,375.7,62.3,335,62.9
		c-85.6,0-155.2,60.1-155.2,133.9V276c0,15.8-12.8,28.6-28.6,28.6s-28.6-12.8-28.6-28.6v-79.2C122.6,91.4,217.9,5.7,335,5.7
		c54.7-0.6,107.6,18.9,148.8,54.9c40,33.9,63.2,83.7,63.5,136.1v79.2c0,15.8-12.7,28.6-28.5,28.6
		C518.8,304.5,518.7,304.5,518.7,304.5z"/>
	<path d="M335,589.2c-15.8,0-28.6-12.8-28.6-28.6v-76.1c0-15.8,12.8-28.6,28.6-28.6c15.8,0,28.6,12.8,28.6,28.6v76.2
		C363.5,576.5,350.7,589.2,335,589.2z"/>
</g>
</svg>
