<?xml version="1.0" encoding="utf-8"?>
<!-- Generator: Adobe Illustrator 23.0.5, SVG Export Plug-In . SVG Version: 6.00 Build 0)  -->
<svg version="1.1" id="Capa_1" xmlns="http://www.w3.org/2000/svg" xmlns:xlink="http://www.w3.org/1999/xlink" x="0px" y="0px"
	 viewBox="0 0 681 684" style="enable-background:new 0 0 681 684;" xml:space="preserve">
<style type="text/css">
	.st0{fill:none;stroke:#000000;stroke-width:2;stroke-linecap:round;stroke-linejoin:round;}
</style>
<g>
	<path class="st0" d="M648.3,156.3l-318,318c-31.7,31.7-125.7,46.3-146.7,25.3c-21-21-6.7-115,25-146.7L527,34.7
		c7.9-8.6,17.4-15.4,27.9-20.2c10.6-4.8,22-7.4,33.6-7.6c11.6-0.2,23.2,1.9,33.9,6.2c10.8,4.3,20.6,10.8,28.8,19
		c8.2,8.2,14.7,18,19,28.8c4.3,10.8,6.4,22.3,6.1,34c-0.3,11.6-2.9,23.1-7.7,33.6C663.8,139,656.9,148.5,648.3,156.3L648.3,156.3z"
		/>
	<path class="st0" d="M305.7,76.3H139c-35.4,0-69.3,14-94.3,39.1c-25,25-39.1,58.9-39.1,94.3V543c0,35.4,14,69.3,39.1,94.3
		c25,25,58.9,39.1,94.3,39.1h366.7c73.7,0,100-60,100-133.3V376.3"/>
</g>
</svg>
