<?xml version="1.0" encoding="utf-8"?>
<!-- Generator: Adobe Illustrator 23.0.5, SVG Export Plug-In . SVG Version: 6.00 Build 0)  -->
<svg version="1.1" id="Capa_1" xmlns="http://www.w3.org/2000/svg" xmlns:xlink="http://www.w3.org/1999/xlink" x="0px" y="0px"
	 viewBox="0 0 777 800" style="enable-background:new 0 0 777 800;" xml:space="preserve">
<style type="text/css">
	.st0{fill-rule:evenodd;clip-rule:evenodd;fill:#FBBC05;}
	.st1{fill-rule:evenodd;clip-rule:evenodd;fill:#EB4335;}
	.st2{fill-rule:evenodd;clip-rule:evenodd;fill:#34A853;}
	.st3{fill-rule:evenodd;clip-rule:evenodd;fill:#4285F4;}
</style>
<title>Google-color</title>
<desc>Created with Sketch.</desc>
<g id="Icons">
	<g id="Color-" transform="translate(-401.000000, -860.000000)">
		<g id="Google" transform="translate(401.000000, 860.000000)">
			<path id="Fill-1" class="st0" d="M166.1,400c0-25.4,4.2-49.8,11.8-72.6L46.1,226.7C20.4,278.9,5.9,337.7,5.9,400
				c0,62.3,14.5,121,40.1,173.1l131.7-100.9C170.3,449.5,166.1,425.3,166.1,400"/>
			<path id="Fill-2" class="st1" d="M397.6,168.9c55.2,0,105,19.6,144.2,51.6l113.9-113.8C586.3,46.2,497.3,8.9,397.6,8.9
				c-154.8,0-287.8,88.5-351.5,217.8l131.8,100.7C208.2,235.2,294.8,168.9,397.6,168.9"/>
			<path id="Fill-3" class="st2" d="M397.6,631.1c-102.7,0-189.3-66.3-219.7-158.5L46.1,573.2c63.7,129.4,196.7,217.9,351.5,217.9
				c95.5,0,186.7-33.9,255.2-97.5l-125.1-96.7C492.3,619.1,447.9,631.1,397.6,631.1"/>
			<path id="Fill-4" class="st3" d="M771.4,400c0-23.1-3.6-48-8.9-71.1h-365V480h210.1c-10.5,51.5-39.1,91.1-80,116.9l125.1,96.7
				C724.7,626.9,771.4,527.5,771.4,400"/>
		</g>
	</g>
</g>
</svg>
