<?xml version="1.0" encoding="utf-8"?>
<!-- Generator: Adobe Illustrator 23.0.5, SVG Export Plug-In . SVG Version: 6.00 Build 0)  -->
<svg version="1.1" id="Capa_1" xmlns="http://www.w3.org/2000/svg" xmlns:xlink="http://www.w3.org/1999/xlink" x="0px" y="0px"
	 viewBox="0 0 727 729" style="enable-background:new 0 0 727 729;" xml:space="preserve">
<style type="text/css">
	.st0{fill-rule:evenodd;clip-rule:evenodd;}
</style>
<g>
	<path class="st0" d="M331.1,124c5.7-7.5,16.2-18.3,32.9-18.3c16.7,0,27.1,10.8,32.9,18.3c5.5,7.2,11,17.1,16.7,27.2l4,7.3
		c0.8,1.4,1.4,2.4,1.9,3.4c0.9,0.2,2,0.5,3.3,0.8l7.9,1.8c10.9,2.5,21.8,4.9,30.1,8.2c9.2,3.6,21.7,10.7,26.5,26.2
		c4.7,15.2-1.2,28.1-6.4,36.3c-4.8,7.7-12.1,16.2-19.6,25l-5.4,6.3c-1.1,1.3-2,2.4-2.7,3.2c0.1,1.2,0.2,2.6,0.4,4.5l0.8,8.3
		c1.1,11.7,2.2,23.1,1.8,32.1c-0.4,9.5-2.7,23.9-15.6,33.7c-13.3,10.1-28,7.9-37.3,5.2c-8.6-2.5-18.7-7.1-29-11.9l-7.4-3.4
		c-1.1-0.5-2-0.9-2.8-1.3c-0.8,0.4-1.7,0.8-2.8,1.3l-7.4,3.4c-10.2,4.7-20.4,9.4-29,11.9c-9.3,2.7-24,4.9-37.3-5.2
		c-12.9-9.8-15.2-24.2-15.6-33.7c-0.4-9.1,0.7-20.4,1.8-32.1l0.8-8.3c0.2-1.9,0.3-3.3,0.4-4.5c-0.7-0.9-1.6-1.9-2.7-3.2l-5.4-6.3
		c-7.5-8.8-14.8-17.3-19.6-25c-5.2-8.3-11.2-21.1-6.4-36.3c4.8-15.5,17.3-22.5,26.5-26.2c8.3-3.3,19.2-5.7,30.1-8.2l7.9-1.8
		c1.3-0.3,2.4-0.5,3.3-0.8c0.5-0.9,1.1-2,1.9-3.4l4-7.3C320.1,141,325.6,131.1,331.1,124z M364,165.1c-1.9,3.4-4.1,7.2-6.6,11.8
		l-3.3,5.9l-0.7,1.4c-2.6,4.8-7,12.7-14.2,18.2c-7.4,5.6-16.3,7.5-21.4,8.7l-1.4,0.3l-6.4,1.4c-5.8,1.3-10.6,2.4-14.7,3.4
		c2.6,3.3,6.1,7.3,10.5,12.5l4.3,5.1l1,1.2c3.6,4.1,9.4,10.8,12.1,19.5c2.7,8.5,1.7,17.3,1.2,22.9l-0.2,1.6l-0.7,6.8
		c-0.6,6.3-1.1,11.3-1.4,15.4c3.5-1.5,7.4-3.4,12.1-5.5l6-2.7l1.3-0.6c4.8-2.3,13.1-6.2,22.4-6.2c9.3,0,17.6,3.9,22.4,6.2l1.3,0.6
		l6,2.7c4.7,2.2,8.6,4,12.1,5.5c-0.3-4.1-0.8-9.1-1.4-15.4l-0.7-6.8l-0.2-1.6c-0.6-5.5-1.5-14.3,1.2-22.9
		c2.7-8.6,8.5-15.3,12.1-19.5l1-1.2l4.3-5.1c4.5-5.2,7.9-9.3,10.5-12.5c-4.1-1-8.8-2.1-14.7-3.4l-6.4-1.4l-1.4-0.3
		c-5.2-1.1-14.1-3.1-21.4-8.7c-7.2-5.5-11.6-13.4-14.2-18.2l-0.7-1.4l-3.3-5.9C368.1,172.4,365.9,168.5,364,165.1z M322,314.4
		c0,0,0,0,0-0.1L322,314.4z M406,314.4l0-0.1C406,314.4,406,314.4,406,314.4z"/>
	<path class="st0" d="M213.9,17.6C252.7,11,303.1,5.7,364,5.7c60.9,0,111.3,5.4,150.1,11.9l4.5,0.8c33.7,5.6,61.7,10.3,83.5,37.3
		c14,17.3,18.6,36,19.6,56.8l16.4,5.5c15.4,5.1,29,9.7,39.7,14.6c11.6,5.4,22.2,12.4,30.4,23.6s11.4,23.6,12.8,36.3
		c1.3,11.8,1.3,26,1.3,42.3v4.8c0,13.4,0,25.2-1,35.1c-1.1,10.7-3.4,21.1-9.4,31.2c-5.9,10.1-13.9,17.2-22.7,23.4
		c-8.2,5.7-18.5,11.4-30.2,17.9l-88,48.9c-18,35.4-42.7,66.9-76.7,89.7c-29.2,19.6-64.1,31.9-105.3,35.5V589h47.7
		c27.8,0,51.7,19.6,57.2,46.9l7.3,36.4H564c13.8,0,25,11.2,25,25s-11.2,25-25,25H164c-13.8,0-25-11.2-25-25s11.2-25,25-25h62.8
		l7.3-36.4c5.5-27.3,29.4-46.9,57.2-46.9H339v-67.7c-41.3-3.5-76.2-15.9-105.3-35.5c-34-22.8-58.7-54.3-76.6-89.7l-88-48.9
		c-11.7-6.5-22-12.2-30.2-17.9C29.9,323.2,22,316,16,305.9c-5.9-10.1-8.3-20.5-9.4-31.2c-1-9.9-1-21.7-1-35.1l0-4.8
		c0-16.3,0-30.5,1.3-42.3c1.5-12.7,4.7-25,12.8-36.3c8.1-11.3,18.8-18.2,30.4-23.6c10.7-5,24.3-9.5,39.7-14.6l16.4-5.5
		c1-20.9,5.6-39.5,19.6-56.8c21.9-27,49.9-31.6,83.5-37.3L213.9,17.6z M277.8,672.3h172.3l-5.3-26.6c-0.8-3.9-4.2-6.7-8.2-6.7H291.3
		c-4,0-7.4,2.8-8.2,6.7L277.8,672.3z M107.4,164.8l-0.5,0.2c-17,5.7-27.8,9.3-35.7,13c-7.3,3.4-9.6,5.7-10.9,7.5
		c-1.3,1.8-2.8,4.8-3.7,12.7c-1,8.6-1,20-1,37.9v2.4c0,14.8,0,24.1,0.7,31.3c0.7,6.6,1.7,9.2,2.7,10.8s2.7,3.9,8.2,7.6
		c5.9,4.1,14,8.6,27,15.8l35.5,19.7C115.5,271.5,109.8,215.4,107.4,164.8z M598.2,323.8c14.3-52.3,20-108.3,22.4-159l0.4,0.1
		c17,5.7,27.8,9.3,35.7,13c7.3,3.4,9.6,5.7,10.9,7.5c1.3,1.8,2.8,4.8,3.7,12.7c1,8.6,1,20,1,37.9v2.4c0,14.8,0,24.1-0.7,31.3
		c-0.7,6.6-1.7,9.2-2.7,10.8c-1,1.7-2.7,3.9-8.2,7.6c-5.9,4.1-14,8.6-27,15.8L598.2,323.8z M364,55.7c-58,0-105.6,5.1-141.7,11.2
		c-40.2,6.8-48.7,9.3-57.5,20.2c-8.7,10.8-9.6,20.9-7.8,66.1c3,75.3,12.9,156.5,43.7,218.3c15.2,30.5,35,55.4,60.9,72.8
		c25.7,17.2,58.8,28,102.5,28c43.6,0,76.8-10.8,102.5-28c25.9-17.3,45.7-42.3,60.9-72.8c30.8-61.8,40.7-143,43.7-218.3
		c1.8-45.2,1-55.3-7.8-66.1c-8.9-10.9-17.3-13.5-57.5-20.2C469.6,60.8,422,55.7,364,55.7z"/>
</g>
</svg>
