<?xml version="1.0" encoding="utf-8"?>
<!-- Generator: Adobe Illustrator 23.0.5, SVG Export Plug-In . SVG Version: 6.00 Build 0)  -->
<svg version="1.1" id="Capa_1" xmlns="http://www.w3.org/2000/svg" xmlns:xlink="http://www.w3.org/1999/xlink" x="0px" y="0px"
	 viewBox="0 0 745 745" style="enable-background:new 0 0 745 745;" xml:space="preserve">
<style type="text/css">
	.st0{fill-rule:evenodd;clip-rule:evenodd;}
</style>
<path class="st0" d="M539,492.8c41.1-51.3,65.6-116.5,65.6-187.3c0-165.8-134.4-300.1-300.1-300.1C138.7,5.4,4.4,139.8,4.4,305.5
	c0,165.8,134.4,300.1,300.1,300.1c70.9,0,136-24.6,187.3-65.6l188.9,188.9c13,13,34.1,13,47.2,0c13-13,13-34.1,0-47.2L539,492.8z
	 M304.5,539.2c-129.1,0-233.8-104.7-233.8-233.8S175.4,71.7,304.5,71.7s233.8,104.7,233.8,233.8S433.6,539.2,304.5,539.2z"/>
</svg>
