<?xml version="1.0" encoding="utf-8"?>
<!-- Generator: Adobe Illustrator 23.0.5, SVG Export Plug-In . SVG Version: 6.00 Build 0)  -->
<svg version="1.1" id="Capa_1" xmlns="http://www.w3.org/2000/svg" xmlns:xlink="http://www.w3.org/1999/xlink" x="0px" y="0px"
	 viewBox="0 0 750 500" style="enable-background:new 0 0 750 500;" xml:space="preserve">
<style type="text/css">
	.st0{fill:#7267CB;}
	.st1{opacity:0.5;fill:#535B9E;enable-background:new    ;}
	.st2{fill:#535B9E;}
	.st3{fill:#658BBA;}
	.st4{fill:#F2AB88;}
	.st5{fill:#FFC59A;}
	.st6{fill:#BB1F47;}
	.st7{fill:#FFA087;}
	.st8{fill:none;stroke:#56052A;stroke-linecap:round;stroke-linejoin:round;stroke-miterlimit:10;}
	.st9{fill:#DA6B58;}
	.st10{fill:#86398A;}
	.st11{fill:#AEFFF1;}
	.st12{fill:#9E3C8C;}
	.st13{opacity:0.25;}
	.st14{fill:#FFFFFF;}
	.st15{fill:#FF8E8A;}
	.st16{opacity:0.57;}
	.st17{fill:#DDDDDD;}
	.st18{opacity:0.43;fill:#F2AB88;enable-background:new    ;}
	.st19{fill:none;stroke:#D3835F;stroke-linecap:round;stroke-linejoin:round;stroke-miterlimit:10;}
	.st20{fill:#211915;}
	.st21{opacity:0.36;fill:#F2AB88;enable-background:new    ;}
	.st22{fill:none;stroke:#AEFFF1;stroke-miterlimit:10;}
	.st23{fill:none;stroke:#AEFFF1;stroke-linecap:round;stroke-linejoin:round;stroke-miterlimit:10;}
	.st24{opacity:0.6;fill:#AEFFF1;enable-background:new    ;}
	.st25{opacity:0.6;}
	.st26{opacity:0.55;}
	.st27{fill:url(#SVGID_1_);}
	.st28{fill:url(#SVGID_2_);}
	.st29{fill:url(#SVGID_3_);}
	.st30{opacity:0.61;}
	.st31{fill:#00ACD7;}
	.st32{fill:url(#SVGID_4_);}
	.st33{fill:#FFFFAE;}
	.st34{fill:url(#SVGID_5_);}
	.st35{fill:url(#SVGID_6_);}
	.st36{fill:url(#SVGID_7_);}
	.st37{fill:url(#SVGID_8_);}
	.st38{fill:url(#SVGID_9_);}
	.st39{fill:url(#SVGID_10_);}
	
		.st40{fill:none;stroke:#FFFFFF;stroke-width:1.5049;stroke-linecap:round;stroke-linejoin:round;stroke-miterlimit:10;stroke-dasharray:1.5049,4.5148;}
	
		.st41{fill:none;stroke:#FFFFFF;stroke-width:1.7626;stroke-linecap:round;stroke-linejoin:round;stroke-miterlimit:10;stroke-dasharray:1.7626,5.2879;}
	.st42{fill:#9AF9FB;}
	.st43{fill:none;stroke:#9AF9FB;stroke-width:1.7626;stroke-miterlimit:10;}
	.st44{fill:none;stroke:#9AF9FB;stroke-width:1.1149;stroke-linecap:round;stroke-linejoin:round;stroke-miterlimit:10;}
	.st45{fill:url(#SVGID_11_);}
	.st46{fill:url(#SVGID_12_);}
	.st47{fill:url(#SVGID_13_);}
	.st48{fill:url(#SVGID_14_);}
	.st49{fill:url(#SVGID_15_);}
	.st50{fill:url(#SVGID_16_);}
	.st51{fill:url(#SVGID_17_);}
	.st52{fill:url(#SVGID_18_);}
	.st53{fill:url(#SVGID_19_);}
	.st54{fill:url(#SVGID_20_);}
	.st55{fill:url(#SVGID_21_);}
	.st56{fill:url(#SVGID_22_);}
	.st57{fill:url(#SVGID_23_);}
	.st58{fill:url(#SVGID_24_);}
	.st59{fill:url(#SVGID_25_);}
	.st60{fill:url(#SVGID_26_);}
	.st61{fill:url(#SVGID_27_);}
	.st62{fill:url(#SVGID_28_);}
	.st63{fill:url(#SVGID_29_);}
	.st64{fill:url(#SVGID_30_);}
	.st65{fill:none;stroke:#F6DF48;stroke-width:2.6439;stroke-miterlimit:10;}
	.st66{fill:url(#SVGID_31_);}
	.st67{fill:none;stroke:#F6DF48;stroke-width:0.4978;stroke-miterlimit:10;}
	.st68{fill:url(#SVGID_32_);}
	.st69{fill:url(#SVGID_33_);}
	.st70{fill:url(#SVGID_34_);}
	.st71{fill:url(#SVGID_35_);}
	.st72{fill:url(#SVGID_36_);}
	.st73{fill:url(#SVGID_37_);}
	.st74{fill:url(#SVGID_38_);}
	.st75{fill:url(#SVGID_39_);}
	.st76{fill:url(#SVGID_40_);}
	.st77{fill:url(#SVGID_41_);}
	.st78{fill:url(#SVGID_42_);}
	.st79{fill:url(#SVGID_43_);}
	.st80{fill:url(#SVGID_44_);}
	.st81{fill:url(#SVGID_45_);}
	.st82{fill:url(#SVGID_46_);}
</style>
<g id="OBJECTS">
	<g>
		<g>
			<path class="st0" d="M480.9,309.1c-10.3-16.8-22-32.8-30.4-50.6c-18-38.5-18.8-82.5-21.2-124.9c-0.4-6.5-0.8-13.2-3.2-19.3
				c-4.8-12.2-16.7-20.2-28.7-25.4c-15.7-6.8-33.6-10.2-50-5.2C326,90.2,314,110,306.9,131.4c-8.9,27,1.2,56.8-3.9,84.8
				c-3.2,18-12.5,34.2-22.1,49.7c-5.6,9.1-11.4,18.2-17.4,27.2c5.5,0.2,11.1,1.6,16.6,1.8c15.1-23,26.2-49.5,33.4-76.1
				c-2.2,27.1-9.9,52.9-22.4,77.1c39.4,16.9,83.2,24.3,126,22.4c4.2-0.2,7.6,0,11.5-1.5c-7.9-27.8-11-56.5-8-85.2
				c2.9,29.5,6.2,59.6,22.7,84.2c7-1,13.5-1.8,20.5-3.1C469.4,311.8,475.5,310,480.9,309.1z"/>
			<g>
				<path class="st1" d="M270.2,301.4c0.1,2.8,1.6,5.7,4.2,6.8c1.8-4.4,3.7-8.9,5.5-13.4c-2.7-0.1-5.4-0.5-8.1-0.9
					C270.9,296.3,270.1,298.8,270.2,301.4z"/>
				<path class="st1" d="M314.8,104.6c-0.9,1.7-1,3.8-1.2,5.7c-0.1,1.6-0.1,3.3-0.1,4.9c2.9-5.8,6.4-11.3,10.5-16
					C320.3,99.9,316.5,101.3,314.8,104.6z"/>
				<path class="st2" d="M416.7,307c-5.4-29.2-7.2-60.5,5.5-87.4c3.8,28.5,11.6,56.5,23.3,82.8c1.3,2.9,2.7,5.9,5.2,7.7
					c4.9,3.6,11.7,1.9,17.5-0.1c-24.8-30.4-32.6-71-38.3-109.9c-2.3-15.5-4.4-31.1-3.8-46.8c0.3-7.1,1.4-14.1,3.3-20.9
					c-0.4-6.2-0.8-12.6-3.1-18.4c-1.5-3.8-3.7-7.2-6.3-10.2c-4-0.7-8-1.3-12-1.8c-27.3-3.8-55-7.5-82.3-3.3
					c-0.5,0.1-1.1,0.2-1.6,0.3c-4.1,4.7-7.6,10.2-10.5,16c0,9.8,1.4,19.7,0.5,29.4c-3.1,32.8-2.5,66.9-15.4,97.3
					c-7.5,17.7-19.3,33.4-26.5,51.3c-0.1,0.2-0.2,0.5-0.3,0.7c2.7,0.4,5.5,0.8,8.1,0.9c11.7-28.3,23.4-56.7,35-85
					c6.8,24.8,4.3,52.1-6.9,75.2c-4,8.2,6.5,13.3,13.7,19c2.1,1.6,4.3,3.2,6.5,4.7c28.9,7.7,59.1,10.9,88.9,9.6l0,0
					C418,314.7,417.3,310.7,416.7,307z"/>
				<path class="st1" d="M416.7,307c-5.4-29.2-7.2-60.5,5.5-87.4c3.8,28.5,11.6,56.5,23.3,82.8c1.3,2.9,2.7,5.9,5.2,7.7
					c4.9,3.6,11.7,1.9,17.5-0.1c-24.8-30.4-32.6-71-38.3-109.9c-2.3-15.5-4.4-31.1-3.8-46.8c0.3-7.1,1.4-14.1,3.3-20.9
					c-0.4-6.2-0.8-12.6-3.1-18.4c-1.5-3.8-3.7-7.2-6.3-10.2c-4-0.7-8-1.3-12-1.8c-27.3-3.8-55-7.5-82.3-3.3
					c-0.5,0.1-1.1,0.2-1.6,0.3c-4.1,4.7-7.6,10.2-10.5,16c0,9.8,1.4,19.7,0.5,29.4c-3.1,32.8-2.5,66.9-15.4,97.3
					c-7.5,17.7-19.3,33.4-26.5,51.3c-0.1,0.2-0.2,0.5-0.3,0.7c2.7,0.4,5.5,0.8,8.1,0.9c11.7-28.3,23.4-56.7,35-85
					c6.8,24.8,4.3,52.1-6.9,75.2c-4,8.2,6.5,13.3,13.7,19c2.1,1.6,4.3,3.2,6.5,4.7c28.9,7.7,59.1,10.9,88.9,9.6l0,0
					C418,314.7,417.3,310.7,416.7,307z"/>
			</g>
			<path class="st3" d="M278.3,499.3c0.4,0.1,0,0.7-0.3,0.6c-0.4-0.1-0.5-0.5-0.6-0.9c-4.5-20.9-8.3-42.4-18-61.5
				c-4.7-9.1-10.6-17.5-15.2-26.6c-3.1-6.1-5.5-12.4-7.9-18.8c-9.4-24.4-31.1-53.2-16.3-74.7c6.3-9.2,13.6-18.2,23.5-23.2
				c6-3,12.7-4.4,19.3-5.8c10.9-2.2,21.7-4.5,32.6-6.7c8.3-1.7,16.7-3.5,24.4-7c2.6-1.2,5.2-2.7,7-5c1.9-2.4,2.6-5.5,3.2-8.5
				c2.9-14.8,3.4-30.1,1.4-45.1c3,4.4,6,6.9,11.1,8.6c13.8,4.8,28.7,4,43.3,3.1c7.3-0.4,15.4-1.2,20.5-6.6c-1.4,9.4-3,17.2-3.7,26.7
				c-0.8,10.9-0.8,22.9,6.2,31.3c6.5,7.8,17.2,10.2,27.2,11.5c16.8,2.2,34.7,2.6,49.1,11.6c12.4,7.9,20.3,21.2,26.8,34.3
				c11.2,22.6,20,47,20.4,72.2c0.5,30.3,9.5,60.8,12.8,90.9c0,0.1-0.3-0.6-0.3-0.5h-54.2c-4.8-10.3-9.3-21.3-13-32
				c-3.2,11-7.4,21.5-10.9,32.4L278.3,499.3z"/>
			<g>
				<path class="st4" d="M238.8,399.1c1.6,4,3.3,8,5.2,11.8c3.1,6.1,6.7,11.9,10.2,17.7c2.8-0.3,5.5-1,8.1-2.3
					c5.4-2.8,9.1-7.9,12.2-13.1c17.4-29.1,22.2-64.6,18.5-98.4c-0.4-4.1-1-8.2-2.3-12.1c-0.6-1.8-1.4-3.6-2.3-5.3
					c-6.4,18.4-13.5,36.6-21.1,54.5C259.9,369.2,250.1,384.6,238.8,399.1z"/>
				<path class="st5" d="M278,285.3c-5.1,1.1-10.2,2.1-15.4,3.2c-6.6,1.4-13.3,2.8-19.3,5.8c-9.9,5-17.2,14-23.5,23.2
					c-14.8,21.5,6.9,50.3,16.3,74.7c0.9,2.3,1.8,4.7,2.7,7c11.2-14.5,21.1-30,28.4-47.1c7.7-17.9,14.7-36.1,21.1-54.5
					C285.8,292.9,282.2,288.8,278,285.3z"/>
				<path class="st4" d="M532,408.9c-0.4-25.2-9.2-49.6-20.4-72.2c-6.5-13.2-14.4-26.5-26.8-34.3c-14.3-9.1-32.2-9.5-49.1-11.6
					c-1.4-0.2-2.9-0.4-4.4-0.6c19.6,24.1,35.3,51.4,46.2,80.5c2.2,5.8,4.2,11.8,5.6,17.8c5.7,24.3,2.1,50-4.6,74.1
					c-0.5,1.7-1,3.4-1.2,5.2c3.7,10.6,8.2,21.5,12.9,31.7h54.2c0-0.1,0.3,0.6,0.3,0.5C541.5,469.7,532.5,439.2,532,408.9z"/>
			</g>
			<g>
				<path class="st4" d="M379.7,259.1c8.9-1.8,16.6-6.9,22.8-13.6c0.8-8.4,2.3-15.7,3.5-24.2c-5,5.4-13.1,6.1-20.5,6.6
					c-14.5,0.9-29.5,1.7-43.3-3.1c-5-1.8-8.1-4.2-11.1-8.6c1.1,8.1,1.4,16.2,1.1,24.4c5.2,4.8,10.7,9.3,16.9,12.7
					C358.4,258.4,369.3,261.2,379.7,259.1z"/>
			</g>
			<path class="st5" d="M318.4,153.4c-0.7,10.4-0.2,20.8,0.7,31.1c1.2,13,3.2,26.4,10.3,37.3c5.9,9,14.9,15.8,24.8,20.1
				c3.6,1.6,7.4,2.8,11.3,3.2c7,0.8,14-1.2,20.3-4.3c7.8-3.9,14.9-8.7,20.6-15.2c5.5-6.2,9-14,10.9-22.1c2.4-10.4,2.2-21.3,1.3-31.9
				c-0.8-10-2.2-20-4.1-29.9c-1.1-5.9-2.6-11.9-6.1-16.8c-3.7-5-9.3-8.2-15.2-9.9c-8.7-2.6-18.1-2.4-27.2-1.7
				c-13.3,1-27.6,3.5-36.6,13.2c-4.1,4.4-6.7,9.9-9.2,15.3C317.8,146.8,318.8,148.1,318.4,153.4z"/>
			<path class="st6" d="M359.4,204.9c2.8-0.7,5.7-0.4,8.6-0.4c2.2,0,4.5-0.3,6.7,0.2c3.2,0.8,6,3.5,6.4,6.9c0.4,3.2,0.3,7-1.8,9.5
				c-2.1,2.5-4.5,4.8-7.4,6.1s-8.3,0.9-11.2-0.5c-2.7-1.3-4.5-4-5.5-6.8C353.3,214.3,352.4,206.7,359.4,204.9z"/>
			<path class="st4" d="M370.1,191.5c-0.8,1.3-1.7,2.6-2.9,3.6c-0.3,0.3-0.6,0.5-1,0.6s-0.9,0-1.3-0.1c-1.7-0.4-6-1.5-6-3.6
				C362.8,192.1,366.2,192.7,370.1,191.5z"/>
			<g>
				<path class="st7" d="M342.3,185.8c0-9.3-7.5-16.8-16.8-16.8c-2.6,0-5,0.6-7.2,1.6c0.2,4.7,0.5,9.3,0.9,14
					c0.5,5.8,1.2,11.8,2.5,17.5c1.2,0.3,2.5,0.4,3.8,0.4C334.7,202.6,342.3,195.1,342.3,185.8z"/>
				<path class="st7" d="M418.8,175.6c-3.5-2-7.7-3.2-12.3-3.2c-11.5,0-20.8,7.5-20.8,16.8S395,206,406.5,206
					c3.7,0,7.2-0.8,10.3-2.2v-0.1C419.4,194.5,419.6,185,418.8,175.6z"/>
			</g>
			<path class="st8" d="M364.7,172.4c-0.2,3.5-0.3,7-0.5,10.5c-0.1,1.7-0.2,3.5-0.8,5c-0.6,1.6-2,3-3.6,3.3
				c-0.6,0.1-1.4,0.2-1.5,0.8c-0.1,0.4,0.2,0.8,0.5,1.1c1.8,1.9,4.6,2.9,7.2,2.6"/>
			<path class="st9" d="M356.9,220.3c-2.4-2.3-3.7-5.7-3.7-9c0-0.6,0-1.3,0.3-1.8c0.5-0.8,1.5-1.1,2.5-1.3c1.5-0.3,3.1-0.3,4.7-0.1
				c2.1,0.3,4.1,1,6.1,1.2c2.1,0.1,4.2-0.3,6.3-0.6s4.3-0.4,6.3,0.4s3.6,2.7,3.5,4.9c-0.1,1.2-0.7,2.3-1.4,3.3
				C376.1,224.2,363.7,226.8,356.9,220.3z"/>
			<path class="st5" d="M508.2,499.4c2-17,12.1-32.1,15.7-48.9c1.7-7.9,2.6-16.3,2.8-24.4c-6.7-11-11-23.3-15.3-35.4
				c-3.1-8.7-6.2-17.5-9.2-26.2c-0.6-1.8-1.3-3.7-1.1-5.6c0.2-1.9,1.3-3.9,3.2-4.4c2.6-0.6,4.9,1.8,6.4,3.9
				c5.7,7.9,11.1,16.1,16,24.5c-0.5-23.5-1.8-48.3,5.5-70.6c1.3-3.8,3.6-8.2,7.6-8.4c2.3,1.2,2.6,4.3,2.6,6.9
				c-0.2,11.3-0.3,22.6-0.5,33.9c0,2.5,0,5,1,7.3c1.1,2.3,3.2,3.9,5.3,5.5c6.7,5.1,13.4,10.1,20.1,15.2c2.6,2,5.3,4,8.1,5.7
				c1.4,0.8,2.8,1.6,3.8,2.8c1.1,1.3,1.6,3.1,1.9,4.8c2.7,14.5-4,28.9-10.6,42c-3.9,7.7-4.9,16.3-5.5,24.8
				c-1.1,15.8-2.1,31.6-3.2,47.5C562.7,500.3,508.2,499.8,508.2,499.4z"/>
			<path class="st4" d="M534.4,386.2c0.2-6.5-3.5-27.4,0-32.9c3.4-5.5,14.7,5,20.8,7c3.4,1.1,6,3.7,8.5,6.3
				c3.3,3.4,6.6,6.8,9.9,10.1c1.4,1.4,2.7,2.8,3.6,4.5c2.1,3.8,1.6,8.6,0.2,12.7c-4.3,13.1-17,22.9-30.7,23.7
				C531.5,418.6,534.2,396.5,534.4,386.2z"/>
			<path class="st10" d="M302.1,116.5c-5.4,2.4-9.2,7.6-11.2,13.1c-2,5.6-2.4,11.5-2.6,17.4c-0.2,6.4-0.1,12.9,2,18.9
				s6.5,11.5,12.6,13.4c2.1,0.6,4.4,0.8,6.6,1c18.2,1.3,36.8,0.4,55.1,0.4c14.7,0.1,29.4,4.1,44,6.5c7.6,1.2,15.3,2.5,22.8,0.9
				c3.9-0.8,7.8-2.5,10.8-5.1c2.3-7.8,4.8-15.6,5.8-23.8s0.4-16.6-2.9-24c-0.7-1.6-1.5-3.2-2.8-4.4c-1.5-1.4-3.4-2.1-5.3-2.8
				c-8.1-2.8-16.7-4.1-25.2-5.3c-14.4-2-28.9-3.8-43.3-5.4C345.9,115,322.8,107.2,302.1,116.5z"/>
			<path class="st11" d="M437,183c2.3-1.4,3.8-3.8,5-6.2c5.7-11.7,6.2-25.4,3.5-38.2c-1.1-5-2.5-10.5-6.7-13.5
				c-3.1-2.3-6.9-3.1-10.7-3.7c-18.4-3.3-37-5-55.7-6.6c-12.3-1.1-24.7-2.1-37-3.2c-11.8-1-25.2-3.4-34.5,3.9
				c-3,2.3-4.3,6.2-5.2,9.9c-2.6,10.5-3.5,21.4-2.4,32.1c0.4,3.8,1,7.7,3.1,11c2.3,3.6,6.2,6,10.3,7.3s8.5,1.5,12.8,1.6
				c6.7,0.1,13.4-0.2,20.1-0.4c10.4-0.3,20.8-0.2,31.2,0.1c18.1,0.7,35.2,8.4,53.3,9.3C428.3,186.6,433.3,185.3,437,183z"/>
			<path class="st12" d="M427.2,171.7L309.9,165c-4.8-0.3-8.5-4.4-8.2-9.2l1.2-21c0.3-4.8,4.4-8.5,9.2-8.2l117.3,6.7
				c4.8,0.3,8.5,4.4,8.2,9.2l-1.2,21C436.2,168.3,432,171.9,427.2,171.7z"/>
			<g class="st13">
				<path class="st14" d="M383.3,130.5l-11.3-0.6c-12.7,11.7-24.9,23.9-36.7,36.5l10.8,0.6C358.3,154.7,370.7,142.5,383.3,130.5z"/>
				<path class="st14" d="M347.5,129.5l-23-1.3c-7.7,7.1-15.2,14.3-22.5,21.8l-0.4,6.8c-0.3,4.8,3.4,8.9,8.2,9.2l1.2,0.1
					C322.8,153.3,334.9,141.2,347.5,129.5z"/>
				<path class="st14" d="M436.5,135.6c-11,10.7-21.9,21.6-32.5,32.7l15.5,0.9c5.7-5.9,11.5-11.7,17.4-17.4l0.7-11.4
					C437.7,138.7,437.3,137,436.5,135.6z"/>
				<path class="st14" d="M401.8,131.6c-11.7,12.2-23.5,24.4-35.2,36.6l18.5,1.1c10.9-12.4,22-24.6,33.3-36.7L401.8,131.6z"/>
			</g>
			<g>
				<path class="st15" d="M357.7,220.9c5,4,12.3,3.8,18,0.9c-0.7-0.4-1.4-0.8-2-1.1C368.7,218.2,362.5,218.4,357.7,220.9z"/>
				<path class="st14" d="M381.5,210.5c-0.6-0.7-1.3-1.2-2.2-1.5c-2-0.8-4.2-0.7-6.3-0.4s-4.2,0.8-6.3,0.6c-2.1-0.1-4.1-0.9-6.1-1.2
					c-1.5-0.2-3.1-0.2-4.7,0.1c-0.9,0.1-1.8,0.5-2.4,1.2c2.9,2.1,6.7,3.2,10.3,3.6C369.8,213.6,376,212.7,381.5,210.5z"/>
			</g>
			<g class="st16">
				<path class="st17" d="M275,429.2c1.3-3.7,3.8-6.9,6.3-10c5.7-7.2,11.3-14.6,15.1-23c3.1-6.9,5-14.4,6.6-21.8
					c3.5-16.3,5.7-33.1,3.7-49.7c-1.8-15.2-7.4-30.3-17.5-41.7c-8.8,1.8-17.7,3.7-26.5,5.5c5.1-1.1,10.2-2.1,15.4-3.2
					c4.2,3.5,7.8,7.6,10.4,12.3c0.9,1.7,1.7,3.4,2.3,5.3c1.3,3.9,1.9,8,2.3,12.1c3.7,33.8-1.1,69.2-18.5,98.4
					c-3.1,5.2-6.8,10.3-12.2,13.1c-2.5,1.3-5.3,2-8.1,2.3l0,0c1.7,2.9,3.4,5.9,5,8.9c9.8,19.1,13.5,40.5,18,61.5
					c0.1,0.4,0.2,0.8,0.6,0.9s0.7-0.5,0.3-0.6h17.9c-4.8-15.5-10.5-30.7-16.9-45.7C275.9,445.9,272.2,437.2,275,429.2z"/>
			</g>
			<g>
				<path class="st5" d="M218.7,318.4c-9.7,12.6-18.8,25.7-27.3,39.2c-6.5,10.3-12.7,21-16.4,32.6c-3.8,11.6-5,24.4-1.4,36
					c1.6,5.5,4.3,10.6,7.3,15.4c5,7.9,12.7,15.7,22,14.7c5.4-0.6,10-4,14.2-7.4c6.4-5.2,12.7-10.6,17.9-17.1
					c6.4-8,10.8-17.4,15.1-26.7c11.1-24.1,21.9-48.9,24.6-75.2c0.4-3.6,0.6-7.3,0.1-11c-1.1-7.9-5.9-15.2-12.7-19.3
					c-6.1-3.7-16.6-5.9-23.5-2.8C230.7,300.4,223.7,311.9,218.7,318.4z"/>
				<g>
					<path class="st4" d="M244.4,305.6c0.1-2.7,2.5-10.5,3.1-13.2c-5-1.1-4.9,2.5-9,4.4c-7.7,3.5-14.7,15-19.7,21.6
						c-9.7,12.6-18.8,25.7-27.3,39.2c-6.5,10.3-12.7,21-16.4,32.6c-3.8,11.6-5,24.4-1.4,36c1.6,5.5,4.3,10.6,7.3,15.4
						c5,7.9,12.7,15.7,22,14.7c4.2-0.4,8-2.7,11.4-5.3c2.9-7,5.4-14.1,7.8-21.2C235.5,389.1,242.5,358,244.4,305.6z"/>
				</g>
				<g>
					<path class="st5" d="M244.8,192.6c3-12.4,6.1-24.7,9.1-37.1c1.4-5.6,2.8-11.3,5.8-16.1c1.3-2.2,4.1-4.4,6.2-2.9
						c1.1,0.8,1.5,2.2,1.7,3.6c1.5,10.2,0.4,20.6-0.8,30.9c-1.9,16.6-1.4,33.9-5.3,50.1c-0.8,3.5-0.5,7.3,1,10.6
						c0.3,0.7,0.8,1.5,1.5,1.8c1.8,0.7,3.3-1.4,4-3.2c4-9.5,9.2-18.4,15.4-26.6c1.1-1.5,2.3-2.9,4-3.7s3.9-0.5,4.9,1.1
						c0.6,1,0.6,2.2,0.5,3.4c-0.7,8.9-3.7,17.4-6.8,25.8c-2.4,6.5-5,12.9-8.2,19c-8.4,16-22.7,30.7-33,44c-8,21.4-9,44.7-14,66.9
						c-1.8,7.9-4.1,15.7-6.4,23.5c-6.2,20.8-12.5,41.6-19.6,62c-1.7,4.8-0.8,10.6-5.7,12.3c-2.7,1-5.7,1-8.6,1
						c-9.7-0.3-19.5-2.4-28-7.1s-15.7-12.1-19.2-21.1c-5.6-14.3-1.5-30.5,3.2-45.1c10.2-31.8,23.4-62.6,39.1-92
						c2.6-4.9,5.4-9.9,9.3-13.9c0.8-11.9,0.3-23.8-1.1-35.6c-0.4-3-0.8-6-0.6-9c0.5-7.4,5-14.5,11.7-17.6c3.3-1.5,6.9-2.1,10.2-3.3
						c6-2.1,11-6.2,16-10.3C235.8,200.1,240,196.5,244.8,192.6z"/>
					<g>
						<path class="st4" d="M262.5,213.7c0.4-1.6,0.7-3.1,1.1-4.7c1.6-12.6,1.7-25.6,3.2-38.2c1.2-10.3,2.3-20.7,0.8-30.9
							c0-0.3-0.1-0.7-0.2-1c-0.7,15.6-3.1,31.1-7.3,46.2c-0.2,0.6-0.4,1.3-1,1.5c-0.6,0.3-1.3-0.1-1.8-0.5c-3.3-2.3-5.8-5.8-9-8
							c-1.2,4.8-2.4,9.6-3.5,14.4c-0.8,0.6-1.5,1.3-2.3,1.9C249.5,200.6,256.1,207,262.5,213.7z"/>
						<path class="st4" d="M259.7,227.6c-0.4,2.6-0.8,5.2-0.1,7.7c0.8,2.5,3,4.7,5.6,4.5c2.9-0.2,4.8-3.1,6.3-5.6
							c3.6-6.4,7.1-12.9,10.7-19.3c2-3.6,4-7.2,7-10c1.1-1,2.3-1.8,3.6-2.5c-0.1-0.5-0.2-1-0.5-1.4c-1-1.6-3.2-1.8-4.9-1.1
							s-2.9,2.2-4,3.7c-6.2,8.2-11.4,17.2-15.4,26.6c-0.7,1.7-2.3,3.9-4,3.2c-0.8-0.3-1.2-1.1-1.5-1.8c-1.5-3.3-1.8-7.1-1-10.6
							c0.5-2.2,1-4.5,1.4-6.8c-0.1-0.1-0.3-0.3-0.4-0.4C261.4,218.3,260.4,223,259.7,227.6z"/>
						<path class="st4" d="M262.8,214.1c0.3-1.7,0.5-3.4,0.8-5.1c-0.4,1.6-0.8,3.1-1.1,4.7C262.6,213.9,262.7,214,262.8,214.1z"/>
					</g>
					<path class="st18" d="M205.2,243.9c-2-5.3-3.8-11.3-1.5-16.5c1.6-3.8,5.1-6.5,8.9-7.9c3.8-1.4,8-1.7,12-1.8c2,0,4,0,5.9-0.7
						c2.3-0.9,4-2.9,5.8-4.7c3-2.9,6.5-5.2,10.4-6.8c1.2-0.5,2.4-0.9,3.7-0.8c3.9,0.3,5.8,4.8,6.7,8.7c1.3,5.4,2.4,10.9,3.3,16.4
						c0.7,4.1,1.3,8.3,0.8,12.5c-0.8,8.1-5.1,15.3-9.7,22.1c-2.8,4.2-5.8,8.4-9.7,11.7c-2.7,2.4-8.7,6.8-12.7,6
						c-3.7-0.8-7.6-7.4-9.7-10.4C213.4,263.1,208.9,253.6,205.2,243.9z"/>
					<path class="st19" d="M231.1,236.2c-5.5,14.1-7.3,29.6-5.2,44.6"/>
					<g>
						<path class="st4" d="M215.9,307.3c9.6-2.5,18.3-8.7,23.4-17.2c-7.8,5.4-18.1,7-27.1,4.1c-7.3-2.3-13.7-7.6-17.5-14.2
							c-3.7,4-6.4,8.8-9,13.6c-1.3,2.4-2.5,4.8-3.8,7.2c1.6,1.2,3.3,2.3,5.1,3.2C195.8,308.6,206.3,309.8,215.9,307.3z"/>
					</g>
					<g>
						<path class="st5" d="M229.1,202.3c2.5-4.8,5.7-9.1,9.5-13c1.7-1.7,3.7-3.4,6.1-3.6c2.8-0.2,5.2,1.7,7.3,3.5
							c3.6,3.2,6.8,6.8,9.7,10.6c1.6,2.1,3.1,4.3,3.8,6.8c0.8,2.5,0.7,5.2,0.7,7.8c0,3.4-0.1,6.8-0.1,10.2c0,1.6-0.1,3.4-1.3,4.5
							c-1.1,1.1-3.1,1.2-4.5,0.5c-1.5-0.7-2.5-2-3.4-3.4c-2.2-3.4-3.4-7.4-3.4-11.4c-2.9-2.5-6-4.5-8.9-7c-1-0.8-1.9-1.6-3.1-2
							c-1.5-0.5-3-0.2-4.6-0.1c-2.6,0.2-5.2-0.2-7.7-1.1C228.3,204.5,228.7,203.1,229.1,202.3z"/>
						<g>
							<path class="st4" d="M256.2,210.4c-1.2-2.6-3.1-4.7-5.2-6.7c-3.2-3.2-6.9-6.2-11.1-7.8c-1.9-0.7-4-1.1-6.1-1.1
								c-1.8,2.4-3.4,4.9-4.8,7.5c-0.4,0.8-0.8,2.3,0.1,2.6c2.5,0.9,5.1,1.2,7.7,1.1c1.5-0.1,3.1-0.4,4.6,0.1c1.2,0.4,2.2,1.2,3.1,2
								c2.9,2.5,6,4.5,8.9,7c0.1,4,1.3,8,3.4,11.4c0.9,1.4,1.9,2.7,3.4,3.4c0.7,0.3,1.5,0.5,2.3,0.4c-1.9-3.7-3.4-7.6-4.3-11.6
								C257.8,215.8,257.4,212.9,256.2,210.4z"/>
						</g>
						<g>
							<path class="st20" d="M264.9,229.2c1.1-1.1,1.2-2.9,1.3-4.5c0-2.1,0-4.3,0.1-6.4c-1-0.3-2-0.4-3,0.1
								c-2.3,1.1-2.6,4.3-2.3,6.8c0.2,1.7,0.4,3.5,1.2,5C263.1,230.2,264.1,230,264.9,229.2z"/>
						</g>
					</g>
					<g>
						<path class="st5" d="M230.4,199.6c1.4-0.7,3-1.4,4.5-1.2c2.2,0.3,3.8,2.1,5,3.9c4.3,6.5,6,14.4,7.6,22
							c1.4,6.7,2.8,13.4,4.2,20.1c0.1,0.6,0.2,1.2,0.2,1.8c-0.4,2.4-3.8,2.8-6,1.8c-3.3-1.6-5.5-4.8-7.1-8.2
							c-1.5-3.3-2.6-6.9-4.5-10.1c-2-3.3-4.9-5.9-7.8-8.4c-2.7-2.2-7.2-4.4-8.9-7.5C213.7,207,225.8,201.7,230.4,199.6z"/>
						<g>
							<path class="st4" d="M244.6,240.5c-3.1-6-4.8-12.7-7.9-18.7c-3.4-6.9-8.5-12.8-14.2-18.1c-4,2.6-7.2,6.1-5,10
								c1.8,3,6.3,5.3,8.9,7.5c3,2.4,5.8,5.1,7.8,8.4c1.9,3.1,3,6.7,4.5,10.1c1.5,3.3,3.7,6.6,7.1,8.2c1.2,0.6,2.9,0.7,4.2,0.2
								C247.9,245.9,246,243.3,244.6,240.5z"/>
						</g>
						<g>
							<path class="st20" d="M250.4,237.6c-0.3-0.2-0.6-0.5-0.9-0.7c-0.7-0.5-1.5-1-2.4-1.1s-1.9,0.2-2.3,1
								c-0.4,0.6-0.3,1.4-0.3,2.1c0.3,3.2,1.2,6.3,2.4,9.2c2.1,0.6,4.8,0,5.1-2.1c0.1-0.6,0-1.2-0.2-1.8
								C251.3,242.1,250.8,239.9,250.4,237.6z"/>
						</g>
					</g>
					<g>
						<path class="st5" d="M202.9,212.4c2.2-3,4.8-6.3,8.6-7c4.5-0.8,8.6,2.5,12,5.6c3.1,2.9,6.3,5.8,8.4,9.5
							c2.3,4.1,3.2,8.8,4,13.4c0.3,1.8,0.5,3.9-0.8,5.1c-1.3,1.1-3.3,0.8-4.6-0.3c-1.3-1-2.1-2.6-3-4c-3.5-5.6-4.2-11.2-15-12.5
							c1.3,0.5-5.1,8.3-6,8.9c-2.6,1.7-7.3,2.9-9.7,0.2C192,226.3,200.1,216.3,202.9,212.4z"/>
						<g>
							<path class="st4" d="M215.6,217.6c-1.1-0.7-2.4-1.3-3.7-1.2c-2.4,0.2-3.6,2.9-4.5,5c-1.8,4.1-4,8-6.8,11.5
								c2,0,4.2-0.8,5.7-1.8c0.8-0.5,7.3-8.4,6-8.9c10.8,1.2,11.5,6.9,15,12.5c0.9,1.4,1.7,3,3,4c0.7,0.5,1.6,0.9,2.5,0.9
								c-1.2-4-2.1-8.1-4.4-11.6C225.4,223.4,220.5,220.4,215.6,217.6z"/>
						</g>
						<g>
							<path class="st20" d="M232.1,229.7c-1.6,0.5-1.7,2.6-1.5,4.3c0.3,1.9,0.9,3.8,1.6,5.7c1,0.2,2,0.1,2.7-0.6
								c1.3-1.2,1.1-3.3,0.8-5.1c-0.2-0.9-0.3-1.8-0.5-2.7c-0.1-0.1-0.2-0.2-0.3-0.4C234.3,230,233.2,229.4,232.1,229.7z"/>
						</g>
					</g>
				</g>
			</g>
			<g>
				<path class="st4" d="M540.3,428.8c10.5,12.5,14.4,29.4,14.1,45.6c-0.2,8.6-1.4,17.2-3.2,25.7c6.7,0.1,11.5,0.1,11.5,0.1
					c1.1-15.8,2.1-31.6,3.2-47.5c0.6-8.6,1.6-17.2,5.5-24.8c0.4-0.8,0.8-1.6,1.2-2.5C562.8,430.6,551,432,540.3,428.8z"/>
			</g>
			<g>
				<path class="st4" d="M529.6,357.3c0.3-6.6,0.6-13.3,1.7-19.9c1.7-10.4,5.5-20.4,10.8-29.5c-0.3-1.7-0.9-3.3-2.4-4
					c-4,0.2-6.3,4.6-7.6,8.4c-7,21.6-6.1,45.4-5.6,68.2c0.6,0.6,1.2,1.3,1.9,1.9C528.8,374,529.2,365.7,529.6,357.3z"/>
			</g>
			<path class="st19" d="M534.4,377.6c7.8,1.3,14.5,6,20.8,10.6c3.2,2.3,6.3,4.6,9.5,6.9"/>
			<path class="st19" d="M532.1,385.6c7.4,10.5,11.5,23.4,11.3,36.3c0.1,0.3,0.6-0.2,0.3-0.3"/>
			<g>
				<path class="st5" d="M546.5,367.1c-1.8,2-3.7,3.9-5.5,5.9c-1.2,1.2-2.8,2.6-4.3,1.8c-0.9-0.4-1.4-1.4-1.4-2.4
					c-0.1-1,0.2-1.9,0.5-2.8c1.3-4,2.9-7.9,4.8-11.7c0.8-1.7,1.7-3.3,2.9-4.7s3-2.4,4.8-2.4c2.1,0,4.1,1.3,5.4,2.9
					c1.6,2,4.1,5.8,2.2,7.8c-0.8,0.9-3.3,0.8-4.4,1.4C549.5,363.9,548,365.5,546.5,367.1z"/>
				<path class="st5" d="M569.9,376.8c-1.2-4.7-3-9.2-5.3-13.5c-0.4-0.7-0.8-1.4-1.4-1.8c-0.7-0.5-1.6-0.6-2.4-0.7
					c-2.5-0.3-5.7-0.3-7,1.9c-0.5,0.8-0.6,1.7-0.8,2.5c-1.8,9.2-7.1,17.7-7.1,27.1c0,1.3,0.3,3,1.6,3.4c0.6,0.2,1.3,0,1.9-0.3
					c2.5-1.2,4.1-3.7,5.3-6.2c3.1-6,5.7-12.3,7.5-18.9C564.9,375,568.1,374,569.9,376.8z"/>
				<path class="st5" d="M571.5,376.1c-2.8,1.4-4.9,3.7-6.9,6.1c-3.7,4.5-6.9,9.5-9.5,14.8c-0.6,1.3-1.1,3.2,0.2,3.9
					c0.9,0.6,2.1-0.1,3-0.7c5.8-4.3,9.9-11,16.7-13.4c1.5-0.5,3.2-0.9,4.3-2.1c1.1-1.1,1.3-2.9,1-4.4
					C579.2,375.9,575.5,374.1,571.5,376.1z"/>
				<g>
					<path class="st21" d="M540.5,369.5c-1.1,1.9-2.4,3.7-4,5.2l0.1,0.1c1.5,0.7,3.2-0.6,4.3-1.8c1.8-2,3.7-3.9,5.5-5.9
						c1.5-1.5,3-3.1,4.9-4.1c1.1-0.5,3.6-0.5,4.4-1.4c0.9-0.9,0.8-2.3,0.3-3.6c-3.1,0.1-6.1,0.6-8.7,2.4
						C544.3,362.6,542.5,366.2,540.5,369.5z"/>
				</g>
				<g>
					<path class="st21" d="M564.4,368c-0.8-0.5-1.6-1.1-2.6-1.1c-2.3-0.2-3.8,2.4-4.6,4.5c-2.9,8.1-4.9,16.8-8.8,24.4
						c0.3-0.1,0.7-0.2,1-0.3c2.5-1.2,4.1-3.7,5.3-6.2c3.1-6,5.7-12.3,7.5-18.9c2.7,4.5,5.9,3.6,7.6,6.4c-0.6-2.4-1.4-4.7-2.3-7
						C566.5,369.3,565.4,368.7,564.4,368z"/>
				</g>
				<g>
					<path class="st21" d="M564.3,389.1c-1.9,2.2-3.5,4.7-5.4,7c-1.2,1.5-2.5,3-3.9,4.4c0.1,0.1,0.2,0.2,0.4,0.3
						c0.9,0.6,2.1-0.1,3-0.7c5.8-4.3,9.9-11,16.7-13.4c1.5-0.5,3.2-0.9,4.3-2.1c1.1-1.1,1.3-2.9,1-4.4c0-0.2-0.1-0.3-0.1-0.4
						C574,381.2,568.4,384.4,564.3,389.1z"/>
				</g>
				<g>
					<path class="st20" d="M540.8,366.3c-0.3-0.1-0.6,0-0.9,0.2c-2.1,1.2-3.6,3.2-4.8,5.4c0,0.2,0,0.4,0,0.6c0.1,1,0.5,2,1.4,2.4
						s1.9,0.1,2.8-0.5c1.2-2.1,2.1-4.4,2-6.8C541.4,367,541.3,366.4,540.8,366.3z"/>
					<path class="st20" d="M553.2,386.6c-0.3-0.4-0.6-0.7-1.1-0.7c-0.3,0-0.6,0.1-0.9,0.3c-1.4,0.7-2.3,1.9-3.1,3.3
						c-0.1,1-0.2,2-0.2,3c0,1.3,0.3,3,1.6,3.4c0.6,0.2,1.3,0,1.9-0.3c0.2-0.1,0.4-0.2,0.6-0.4c0.4-1.2,0.8-2.5,1.1-3.7
						C553.7,389.9,554.1,388,553.2,386.6z"/>
					<path class="st20" d="M561.8,392.9c-0.4-0.1-0.8,0.1-1.1,0.2c-0.9,0.4-1.7,1-2.4,1.6c-0.4,0.7-0.7,1.4-1.1,2.1
						c-0.6,1.3-1.1,3.2,0.2,3.9c0.9,0.6,2.1-0.1,3-0.7c0.2-0.1,0.3-0.3,0.5-0.4c0.7-1.2,1.2-2.5,1.7-3.8
						C562.9,394.8,563,393.1,561.8,392.9z"/>
				</g>
			</g>
		</g>
		<g>
			<g>
				<g>
					<polygon class="st11" points="61.9,411.5 67.5,410.8 61.9,410.1 61.2,409.4 60.6,403.9 59.9,409.4 59.2,410.1 53.6,410.8 
						59.2,411.5 59.9,412.2 60.6,417.8 61.2,412.2 					"/>
				</g>
			</g>
			<g>
				<g>
					<polygon class="st11" points="476.2,48.8 481.8,48.1 476.2,47.4 475.6,46.7 474.9,41.2 474.2,46.7 473.5,47.4 467.9,48.1 
						473.5,48.8 474.2,49.5 474.9,55.1 475.6,49.5 					"/>
				</g>
			</g>
			<g>
				<g>
					<polygon class="st11" points="504.3,192.2 509.9,191.5 504.3,190.9 503.6,190.2 503,184.6 502.3,190.2 501.6,190.9 496,191.5 
						501.6,192.2 502.3,192.9 503,198.5 503.6,192.9 					"/>
				</g>
			</g>
			<g>
				<g>
					<polygon class="st11" points="559.2,126.1 564.8,125.4 559.2,124.8 558.5,124.1 557.9,118.5 557.2,124.1 556.5,124.8 
						550.9,125.4 556.5,126.1 557.2,126.8 557.9,132.4 558.5,126.8 					"/>
				</g>
			</g>
			<g>
				<g>
					<polygon class="st11" points="705.3,41.8 710.9,41.2 705.3,40.5 704.6,39.8 703.9,34.2 703.2,39.8 702.6,40.5 697,41.2 
						702.6,41.8 703.2,42.5 703.9,48.1 704.6,42.5 					"/>
				</g>
			</g>
			<g>
				<g>
					<polygon class="st11" points="648.1,367.6 653.7,366.9 648.1,366.2 647.4,365.5 646.8,359.9 646.1,365.5 645.4,366.2 
						639.8,366.9 645.4,367.6 646.1,368.3 646.8,373.8 647.4,368.3 					"/>
				</g>
			</g>
			<g>
				<g>
					<polygon class="st11" points="723.9,221.9 729.5,221.3 723.9,220.6 723.2,219.9 722.6,214.3 721.9,219.9 721.2,220.6 
						715.6,221.3 721.2,221.9 721.9,222.6 722.6,228.2 723.2,222.6 					"/>
				</g>
			</g>
			<g>
				<g>
					<polygon class="st11" points="114.1,465.6 119.6,465 114.1,464.3 113.4,463.6 112.7,458 112,463.6 111.3,464.3 105.7,465 
						111.3,465.6 112,466.3 112.7,471.9 113.4,466.3 					"/>
				</g>
			</g>
			<g>
				<g>
					<polygon class="st11" points="35.1,139.3 40.7,138.6 35.1,137.9 34.4,137.2 33.7,131.6 33.1,137.2 32.4,137.9 26.8,138.6 
						32.4,139.3 33.1,139.9 33.7,145.5 34.4,139.9 					"/>
				</g>
			</g>
			<g>
				<g>
					<polygon class="st11" points="53.1,226.7 58.6,226 53.1,225.4 52.4,224.7 51.7,219.1 51,224.7 50.3,225.4 44.7,226 50.3,226.7 
						51,227.4 51.7,233 52.4,227.4 					"/>
				</g>
			</g>
			<g>
				<g>
					<polygon class="st11" points="123.2,279.5 128.8,278.8 123.2,278.1 122.5,277.4 121.9,271.9 121.2,277.4 120.5,278.1 
						114.9,278.8 120.5,279.5 121.2,280.2 121.9,285.8 122.5,280.2 					"/>
				</g>
			</g>
			<g>
				<g>
					<polygon class="st11" points="109.5,55.7 115.1,55.1 109.5,54.4 108.8,53.7 108.2,48.1 107.5,53.7 106.8,54.4 101.2,55.1 
						106.8,55.7 107.5,56.4 108.2,62 108.8,56.4 					"/>
				</g>
			</g>
			<path class="st11" d="M619.6,61.2c0,1.1-0.9,2-2,2s-2-0.9-2-2s0.9-2,2-2S619.6,60.2,619.6,61.2z"/>
			<path class="st11" d="M722.6,113.2c0,1.1-0.9,2-2,2s-2-0.9-2-2s0.9-2,2-2S722.6,112.1,722.6,113.2z"/>
			<path class="st11" d="M702.7,90.4c0,1.1-0.9,2-2,2s-2-0.9-2-2s0.9-2,2-2S702.7,89.3,702.7,90.4z"/>
			<path class="st11" d="M648.7,27.6c0,1.1-0.9,2-2,2s-2-0.9-2-2s0.9-2,2-2S648.7,26.5,648.7,27.6z"/>
			<path class="st11" d="M596.2,90.4c0,1.1-0.9,2-2,2s-2-0.9-2-2s0.9-2,2-2S596.2,89.3,596.2,90.4z"/>
			<path class="st11" d="M561.8,27.6c0,1.1-0.9,2-2,2s-2-0.9-2-2s0.9-2,2-2S561.8,26.5,561.8,27.6z"/>
			<path class="st11" d="M665.2,465c0,1.1-0.9,2-2,2s-2-0.9-2-2s0.9-2,2-2S665.2,463.9,665.2,465z"/>
			<path class="st11" d="M108.2,379.8c0,1.1-0.9,2-2,2s-2-0.9-2-2s0.9-2,2-2C107.3,377.8,108.2,378.7,108.2,379.8z"/>
			<ellipse class="st11" cx="31.8" cy="450.7" rx="2" ry="2"/>
			<path class="st11" d="M84.4,452.7c0,1.1-0.9,2-2,2s-2-0.9-2-2s0.9-2,2-2S84.4,451.6,84.4,452.7z"/>
			<path class="st11" d="M503,113.2c0,1.1-0.9,2-2,2s-2-0.9-2-2s0.9-2,2-2S503,112.1,503,113.2z"/>
			<path class="st11" d="M419.3,27.6c0,1.1-0.9,2-2,2s-2-0.9-2-2s0.9-2,2-2S419.3,26.5,419.3,27.6z"/>
			<path class="st11" d="M35.7,27.6c0,1.1-0.9,2-2,2s-2-0.9-2-2s0.9-2,2-2S35.7,26.5,35.7,27.6z"/>
			<path class="st11" d="M24,161.7c0,1.1-0.9,2-2,2s-2-0.9-2-2s0.9-2,2-2C23.2,159.7,24,160.6,24,161.7z"/>
			<path class="st11" d="M57.4,25.6c0,1.1-0.9,2-2,2s-2-0.9-2-2s0.9-2,2-2S57.4,24.5,57.4,25.6z"/>
			<path class="st11" d="M657.3,315.7c0,1.1-0.9,2-2,2s-2-0.9-2-2s0.9-2,2-2C656.4,313.7,657.3,314.6,657.3,315.7z"/>
			<path class="st11" d="M715.8,314.1c0,1.1-0.9,2-2,2s-2-0.9-2-2s0.9-2,2-2S715.8,313,715.8,314.1z"/>
			<path class="st11" d="M722.6,368c0,1.1-0.9,2-2,2s-2-0.9-2-2s0.9-2,2-2S722.6,366.9,722.6,368z"/>
			<path class="st11" d="M676.3,266.5c0,1.1-0.9,2-2,2s-2-0.9-2-2s0.9-2,2-2S676.3,265.4,676.3,266.5z"/>
			<path class="st11" d="M638.2,431.9c0,1.1-0.9,2-2,2s-2-0.9-2-2s0.9-2,2-2S638.2,430.8,638.2,431.9z"/>
			<path class="st11" d="M155.7,31c0,1.1-0.9,2-2,2s-2-0.9-2-2c0-1.1,0.9-2,2-2S155.7,29.9,155.7,31z"/>
			<path class="st11" d="M28.8,368c0,1.1-0.9,2-2,2s-2-0.9-2-2s0.9-2,2-2C27.9,366.1,28.8,366.9,28.8,368z"/>
			<path class="st11" d="M388.4,39.6c0,1.1-0.9,2-2,2s-2-0.9-2-2s0.9-2,2-2C387.6,37.6,388.4,38.5,388.4,39.6z"/>
			<path class="st11" d="M102,149.9c0,1.1-0.9,2-2,2s-2-0.9-2-2s0.9-2,2-2C101.2,148,102,148.8,102,149.9z"/>
			<path class="st11" d="M41.3,187.1c0,1.1-0.9,2-2,2s-2-0.9-2-2s0.9-2,2-2C40.4,185.2,41.3,186,41.3,187.1z"/>
			<path class="st11" d="M110.1,114.8c0,1.1-0.9,2-2,2s-2-0.9-2-2s0.9-2,2-2S110.1,113.7,110.1,114.8z"/>
			<path class="st11" d="M37.7,278.8c0,1.1-0.9,2-2,2s-2-0.9-2-2s0.9-2,2-2S37.7,277.7,37.7,278.8z"/>
			<path class="st11" d="M28.8,243.4c0,1.1-0.9,2-2,2s-2-0.9-2-2s0.9-2,2-2C27.9,241.5,28.8,242.4,28.8,243.4z"/>
			<path class="st11" d="M155.7,271.9c0,1.1-0.9,2-2,2s-2-0.9-2-2s0.9-2,2-2S155.7,270.8,155.7,271.9z"/>
			<path class="st11" d="M23.4,76.5c0,1.1-0.9,2-2,2s-2-0.9-2-2s0.9-2,2-2S23.4,75.4,23.4,76.5z"/>
			<path class="st11" d="M585,193.7c0,1.1-0.9,2-2,2s-2-0.9-2-2s0.9-2,2-2S585,192.6,585,193.7z"/>
			<path class="st11" d="M587,140.1c0,1.1-0.9,2-2,2s-2-0.9-2-2s0.9-2,2-2S587,139,587,140.1z"/>
			<path class="st11" d="M494.6,167.2c0,1.1-0.9,2-2,2s-2-0.9-2-2s0.9-2,2-2S494.6,166.1,494.6,167.2z"/>
			<path class="st11" d="M705.9,170.5c0,1.1-0.9,2-2,2s-2-0.9-2-2s0.9-2,2-2S705.9,169.4,705.9,170.5z"/>
			<path class="st11" d="M670,194.8c0,1.1-0.9,2-2,2s-2-0.9-2-2s0.9-2,2-2S670,193.7,670,194.8z"/>
		</g>
		<g id="elementos">
			<g>
				<g>
					<g>
						<g>
							<g>
								<polyline class="st22" points="695.8,409.5 695.8,229.6 663.3,229.6 536.1,143.5 535.9,306 								"/>
								<polyline class="st22" points="73,83.3 73,193.9 143.9,165 								"/>
								<g>
									<g>
										<g>
											<ellipse class="st23" cx="258.4" cy="145.2" rx="25.5" ry="25.5"/>
											<path class="st24" d="M243.6,127c0,1.9-1.6,3.5-3.5,3.5s-3.5-1.6-3.5-3.5s1.6-3.5,3.5-3.5S243.6,125.1,243.6,127z"/>
											<path class="st24" d="M282.7,158.9c0,1.9-1.6,3.5-3.5,3.5s-3.5-1.6-3.5-3.5s1.6-3.5,3.5-3.5
												C281.1,155.3,282.7,156.9,282.7,158.9z"/>
										</g>
										<g class="st25">
											<path class="st11" d="M250.5,162.5c-6.1-2.7-10.4-8.2-11.4-14.8c-0.2-1-0.2-2-0.2-3c0-0.5,0-0.9,0-1.4
												c0.2-3.2-1.9-6-4.9-6.7h-0.2c-1.8-0.4-3.7,0-5.2,1.1s-2.4,2.8-2.6,4.7c-0.1,0.8-0.1,1.6-0.1,2.3c0,1.7,0.1,3.3,0.4,4.9
												c1.7,11.1,8.9,20.3,19.1,24.8c0.8,0.3,1.6,0.5,2.5,0.5s1.9-0.2,2.8-0.6c1.7-0.8,2.9-2.3,3.4-4.1V170
												C255,166.9,253.5,163.7,250.5,162.5z"/>
											<path class="st11" d="M269.4,114.2c-1.8-0.6-3.7-0.5-5.3,0.4c-1.6,0.9-2.8,2.5-3.1,4.3v0.2c-0.6,3.1,1.1,6.2,4,7.2
												c7.7,2.8,12.8,10.1,12.8,18.3c0,3.2,2.3,5.9,5.4,6.4h0.2c0.3,0.1,0.6,0.1,1,0.1c1.5,0,3-0.5,4.1-1.5
												c1.4-1.2,2.2-2.9,2.2-4.8v-0.2C290.7,131.1,282.2,118.9,269.4,114.2z"/>
										</g>
									</g>
									<ellipse class="st23" cx="257.4" cy="145.3" rx="70.4" ry="70.4"/>
									
										<ellipse transform="matrix(0.7071 -0.7071 0.7071 0.7071 -27.3593 224.5798)" class="st23" cx="257.4" cy="145.3" rx="47.7" ry="47.7"/>
									<g class="st25">
										<path class="st11" d="M305.5,196c4.4,4.6,3.7,12.1-1.5,15.7c-22.6,15.9-52.1,19.3-78,8.4c-3.8-1.6-7.5-3.5-11.1-5.7
											c-1.7-1-3.3-2.1-4.9-3.3c-5.2-3.7-5.9-11.2-1.4-15.8l0.4-0.4c3.6-3.7,9.4-4.2,13.7-1.2c1.1,0.8,2.3,1.6,3.5,2.3
											c2.6,1.6,5.4,3,8.2,4.2c19,8,40.6,5.5,57.2-6.1c4.3-3,10-2.4,13.6,1.4L305.5,196z"/>
									</g>
									<g class="st25">
										<path class="st11" d="M302.6,92l-0.3,0.4c-3.4,4-9.2,4.8-13.6,2.1h-0.1c-21.6-13.3-49.1-11.2-68.4,4.2
											c-4,3.2-9.8,2.9-13.6-0.6l-0.4-0.3c-4.7-4.4-4.4-12,0.7-16c26.3-20.8,63.6-23.6,92.9-5.6c0.1,0.1,0.3,0.2,0.4,0.3
											C305.7,79.7,306.8,87.2,302.6,92z"/>
									</g>
									<ellipse class="st23" cx="257.4" cy="145.3" rx="90.8" ry="90.8"/>
									<ellipse class="st23" cx="257.4" cy="145.3" rx="115.7" ry="115.7"/>
									<g class="st25">
										<path class="st11" d="M288.3,34.5c-1.5,5.4-6.8,8.7-12.3,7.7c-16.9-3-34.2-1.8-50.7,3.6c-17.4,5.7-32.8,15.6-45.1,29.1
											c-3.7,4.1-10,4.7-14.4,1.4l0,0c-5.1-3.8-5.7-11.1-1.4-15.8c14.7-16.2,33.3-28.3,54.3-35.1c19.9-6.5,40.8-7.9,61.2-4.3
											C286.1,22.2,290,28.4,288.3,34.5L288.3,34.5z"/>
									</g>
									<g class="st25">
										<path class="st11" d="M141.8,137.5c5.6,0.3,9.9,4.8,10.1,10.4c0.7,17.1,5.5,33.8,14.2,48.8c9.2,15.8,22.2,28.8,38,37.9
											c4.8,2.8,6.7,8.8,4.4,13.8l0,0c-2.7,5.8-9.7,7.9-15.2,4.8c-19-11-34.7-26.6-45.8-45.7c-10.5-18.1-16.3-38.2-17.1-58.9
											C130.2,142.2,135.5,137.1,141.8,137.5L141.8,137.5z"/>
									</g>
								</g>
								<g>
									<g>
										<circle class="st24" cx="608.6" cy="325.4" r="5.6"/>
										<circle class="st24" cx="588.6" cy="330.6" r="5.6"/>
									</g>
									<ellipse class="st23" cx="535.9" cy="306" rx="58" ry="58"/>
									<g class="st25">
										<path class="st11" d="M521,361.6c-1.3,5-6.9,7.8-11.6,5.7c-20.9-9-36-28.2-39.5-51.1c-0.5-3.4-0.8-6.8-0.8-10.2
											c0-1.6,0.1-3.2,0.2-4.8c0.4-5.3,5.3-9,10.5-7.8l0.4,0.1c4.2,0.9,7,4.8,6.7,9.1c-0.1,1.2-0.1,2.3-0.1,3.5
											c0,2.5,0.2,5.1,0.6,7.5c2.6,16.8,13.6,30.8,28.9,37.5c3.9,1.7,6,6,4.9,10.1L521,361.6z"/>
									</g>
									<g class="st25">
										<path class="st11" d="M592.7,314.8l-0.4-0.1c-4.3-0.7-7.3-4.4-7.3-8.7v-0.1c0-20.9-13.3-39.3-32.4-46.2
											c-4-1.4-6.3-5.6-5.4-9.8l0.1-0.4c1-5.2,6.5-8.2,11.5-6.4c25.9,9.5,43.9,34.5,43.9,62.8c0,0.1,0,0.3,0,0.4
											C602.7,311.6,597.9,315.6,592.7,314.8z"/>
									</g>
									<ellipse class="st23" cx="535.9" cy="306" rx="74.8" ry="74.8"/>
									<circle class="st23" cx="535.9" cy="306" r="95.2"/>
									<g class="st25">
										<path class="st11" d="M626.9,280c-4.4,1.3-9-1-10.7-5.3c-5.2-13.1-13.5-24.7-24.3-34c-11.5-9.8-25.1-16.3-39.8-19.1
											c-4.5-0.9-7.6-5-7.2-9.5l0,0c0.5-5.2,5.4-8.8,10.5-7.8c17.7,3.4,34.2,11.2,48,23c13.1,11.2,23.1,25.2,29.4,41.1
											C634.6,273.1,631.9,278.5,626.9,280L626.9,280z"/>
									</g>
									<g class="st25">
										<path class="st11" d="M491.6,221.5c2.2,4,0.9,9-2.9,11.6c-11.7,7.8-21.3,18.4-28.1,31c-7.1,13.3-10.6,28-10.2,43
											c0.1,4.6-3.2,8.5-7.8,9l0,0c-5.2,0.6-9.7-3.4-9.9-8.6c-0.5-18,3.7-35.8,12.3-51.8c8.2-15.2,19.8-27.9,34-37.4
											C483.3,215.5,489.1,217,491.6,221.5L491.6,221.5z"/>
									</g>
									<g class="st25">
										<path class="st11" d="M456.6,361.6L456.6,361.6c3.8-2.5,8.9-1.7,11.8,1.8c2.5,3.1,5.3,6.1,8.2,8.8
											c18.4,17.2,43.4,25.4,68.2,22.7c4.6-0.5,8.8,2.5,9.7,7l0,0c1,5.1-2.5,10-7.6,10.5c-29.9,3.3-60.1-6.6-82.3-27.3
											c-3.6-3.3-6.9-6.9-10-10.7C451.3,370.4,452.3,364.5,456.6,361.6z"/>
									</g>
								</g>
								<g>
									<g class="st26">
										
											<linearGradient id="SVGID_1_" gradientUnits="userSpaceOnUse" x1="274.9688" y1="559.875" x2="274.9688" y2="559.875" gradientTransform="matrix(6.4 0 0 -6.4 -1117.8 3705.8)">
											<stop  offset="0.296" style="stop-color:#00AFFF"/>
											<stop  offset="0.694" style="stop-color:#5282FF"/>
											<stop  offset="1" style="stop-color:#945DFF"/>
										</linearGradient>
										<path class="st27" d="M642,122.6"/>
										
											<linearGradient id="SVGID_2_" gradientUnits="userSpaceOnUse" x1="274.9688" y1="558" x2="274.9688" y2="558" gradientTransform="matrix(6.4 0 0 -6.4 -1117.8 3705.8)">
											<stop  offset="0.296" style="stop-color:#00AFFF"/>
											<stop  offset="0.694" style="stop-color:#5282FF"/>
											<stop  offset="1" style="stop-color:#945DFF"/>
										</linearGradient>
										<path class="st28" d="M642,134.6"/>
										
											<linearGradient id="SVGID_3_" gradientUnits="userSpaceOnUse" x1="276.75" y1="559.875" x2="276.75" y2="559.875" gradientTransform="matrix(6.4 0 0 -6.4 -1117.8 3705.8)">
											<stop  offset="0.296" style="stop-color:#00AFFF"/>
											<stop  offset="0.694" style="stop-color:#5282FF"/>
											<stop  offset="1" style="stop-color:#945DFF"/>
										</linearGradient>
										<path class="st29" d="M653.4,122.6"/>
									</g>
									<ellipse class="st22" cx="653.4" cy="133.9" rx="24.6" ry="24.6"/>
									<ellipse class="st22" cx="653.4" cy="133.9" rx="24.6" ry="24.6"/>
									<circle class="st22" cx="653.4" cy="133.5" r="42.7"/>
									<g class="st30">
										<g>
											<path class="st11" d="M685.9,126.2c-1.1,0-2.1-0.7-2.4-1.8c-3.7-11.6-13.8-20.1-25.8-21.8c-1.4-0.2-2.4-1.5-2.2-2.9
												s1.5-2.4,2.9-2.2c14,1.9,25.8,11.8,30,25.3c0.4,1.3-0.3,2.8-1.7,3.2C686.4,126.2,686.1,126.2,685.9,126.2z"/>
										</g>
										<g>
											<path class="st11" d="M620.2,128.6c-0.2,0-0.4,0-0.6-0.1c-1.4-0.3-2.2-1.7-1.9-3.1c1.3-5.7,4.1-11.1,8-15.6
												c5.5-6.4,13.1-10.7,21.3-12.1c1.4-0.2,2.7,0.7,3,2.1c0.2,1.4-0.7,2.7-2.1,3c-7.1,1.2-13.6,4.9-18.3,10.4
												c-3.3,3.8-5.7,8.5-6.9,13.4C622.4,127.8,621.4,128.6,620.2,128.6z"/>
										</g>
										<g>
											<path class="st11" d="M653.4,170.5c-17.3,0-32.4-12.3-35.9-29.2c-0.3-1.4,0.6-2.7,2-3s2.7,0.6,3,2
												c3,14.6,16,25.1,30.9,25.1c6.7,0,13.2-2.1,18.6-6.1c1.1-0.8,2.7-0.6,3.6,0.6c0.8,1.1,0.6,2.7-0.5,3.6
												C668.7,168.1,661.2,170.5,653.4,170.5z"/>
										</g>
										<g>
											<path class="st11" d="M680.1,157.6c-0.6,0-1.1-0.2-1.6-0.6c-1.1-0.9-1.3-2.5-0.4-3.6c3.4-4.3,5.6-9.3,6.5-14.7
												c0.2-1.4,1.5-2.4,2.9-2.1c1.4,0.2,2.4,1.5,2.1,2.9c-1,6.2-3.6,12.1-7.5,17.1C681.6,157.3,680.8,157.6,680.1,157.6z"/>
										</g>
									</g>
								</g>
								<g>
									<g class="st26">
										<path class="st31" d="M58.8,322.4l-0.2,0.4c-0.1,0,0,0.1,0,0"/>
									</g>
									
										<ellipse transform="matrix(0.7071 -0.7071 0.7071 0.7071 -207.7554 146.6986)" class="st22" cx="73.2" cy="324.1" rx="18.4" ry="18.4"/>
									<ellipse class="st22" cx="73.2" cy="324.1" rx="37" ry="37"/>
									<g class="st30">
										<g>
											<path class="st11" d="M101.4,317.4c-0.9,0-1.8-0.6-2.1-1.6c-3.2-10.1-12-17.5-22.4-18.9c-1.2-0.2-2.1-1.3-1.9-2.5
												s1.3-2.1,2.5-1.9c12.2,1.6,22.4,10.2,26.1,21.9c0.4,1.2-0.3,2.4-1.5,2.8C101.9,317.4,101.6,317.4,101.4,317.4z"/>
										</g>
										<g>
											<path class="st11" d="M44.5,319.5c-0.2,0-0.3,0-0.5-0.1c-1.2-0.3-1.9-1.5-1.7-2.7c1.2-5,3.6-9.6,6.9-13.5
												c4.8-5.5,11.4-9.2,18.5-10.5c1.2-0.2,2.4,0.6,2.6,1.8c0.2,1.2-0.6,2.4-1.8,2.6c-6.1,1.1-11.8,4.3-15.9,9
												c-2.9,3.3-4.9,7.3-5.9,11.6C46.4,318.8,45.5,319.5,44.5,319.5z"/>
										</g>
										<g>
											<path class="st11" d="M73.2,355.9c-15,0-28.1-10.7-31.1-25.4c-0.2-1.2,0.5-2.4,1.7-2.6s2.4,0.5,2.6,1.7
												c2.6,12.6,13.8,21.8,26.8,21.8c5.9,0,11.4-1.8,16.1-5.3c1-0.7,2.4-0.5,3.1,0.5s0.5,2.4-0.5,3.1
												C86.5,353.7,80,355.9,73.2,355.9z"/>
										</g>
										<g>
											<path class="st11" d="M96.4,344.7c-0.5,0-1-0.2-1.4-0.5c-1-0.8-1.1-2.2-0.4-3.1c2.9-3.7,4.9-8.1,5.6-12.7
												c0.2-1.2,1.3-2,2.5-1.9c1.2,0.2,2,1.3,1.9,2.5c-0.8,5.4-3.1,10.5-6.5,14.8C97.7,344.4,97,344.7,96.4,344.7z"/>
										</g>
									</g>
								</g>
								<polyline class="st23" points="74.2,286.4 74.2,228 151.2,190 								"/>
								<polyline class="st22" points="610.7,128.6 533.1,70.1 345.3,70.1 								"/>
								<g>
									<ellipse class="st23" cx="695.7" cy="409.6" rx="17" ry="17"/>
									<ellipse class="st23" cx="695.7" cy="409.6" rx="17" ry="17"/>
									<path class="st23" d="M682,389c4-2.7,8.7-4.2,13.9-4.2c6.4,0,12.2,2.4,16.6,6.4"/>
									<path class="st23" d="M676.7,425.3c-3.6-4.3-5.7-9.8-5.7-15.8c0-6.5,2.5-12.3,6.5-16.8"/>
									<path class="st23" d="M707.4,431.4c-3.5,1.8-7.4,2.9-11.6,2.9c-5.5,0-10.5-1.8-14.6-4.8"/>
									<path class="st23" d="M716,395.1c2.9,4.1,4.6,9,4.6,14.4c0,6.6-2.6,12.6-6.8,17"/>
									<circle class="st24" cx="707.4" cy="421" r="2.3"/>
									<g class="st25">
										<path class="st11" d="M679.3,408.4c-0.2,0-0.5,0-0.7-0.1c-1.6-0.4-2.6-2-2.2-3.6c2.2-8.9,10.2-15.2,19.4-15.2
											c3.2,0,6.3,0.8,9.1,2.2c1.5,0.8,2.1,2.6,1.3,4s-2.6,2.1-4,1.3c-2-1-4.1-1.5-6.4-1.5c-6.5,0-12.1,4.4-13.6,10.6
											C681.9,407.5,680.7,408.4,679.3,408.4z"/>
									</g>
									<g class="st25">
										<path class="st11" d="M695.8,429.5c-8.5,0-16.1-5.4-18.9-13.5c-0.5-1.6,0.3-3.3,1.9-3.8c1.6-0.5,3.3,0.3,3.8,1.9
											c2,5.6,7.3,9.4,13.2,9.4c0.5,0,1.1,0,1.6-0.1c1.6-0.2,3.1,1,3.3,2.7c0.2,1.6-1,3.1-2.7,3.3
											C697.3,429.5,696.6,429.5,695.8,429.5z"/>
									</g>
									<g class="st25">
										<path class="st11" d="M712.6,415.4c-0.2,0-0.3,0-0.5,0c-1.6-0.3-2.7-1.8-2.4-3.5c0.1-0.8,0.2-1.6,0.2-2.4
											c0-1.4-0.2-2.8-0.6-4.1c-0.5-1.6,0.4-3.3,2-3.7c1.6-0.5,3.3,0.4,3.7,2c0.6,1.9,0.9,3.9,0.9,5.9c0,1.2-0.1,2.3-0.3,3.4
											C715.3,414.4,714,415.4,712.6,415.4z"/>
									</g>
								</g>
								<g>
									<ellipse class="st23" cx="73.2" cy="81.2" rx="17" ry="17"/>
									<ellipse class="st23" cx="73.2" cy="81.2" rx="17" ry="17"/>
									<path class="st23" d="M59.4,60.7c4-2.7,8.7-4.2,13.9-4.2c6.4,0,12.2,2.4,16.6,6.4"/>
									<path class="st23" d="M54.1,97.1c-3.6-4.3-5.7-9.8-5.7-15.8c0-6.5,2.5-12.3,6.5-16.8"/>
									<path class="st23" d="M84.8,103.2c-3.5,1.8-7.4,2.9-11.6,2.9c-5.5,0-10.5-1.8-14.6-4.8"/>
									<path class="st23" d="M93.4,66.8c2.9,4.1,4.6,9,4.6,14.4c0,6.6-2.6,12.6-6.8,17"/>
									<path class="st24" d="M87.1,92.7c0,1.3-1,2.3-2.3,2.3s-2.3-1-2.3-2.3s1-2.3,2.3-2.3C86.1,90.4,87.1,91.4,87.1,92.7z"/>
									<g class="st25">
										<path class="st11" d="M56.7,80.2c-0.2,0-0.5,0-0.7-0.1c-1.6-0.4-2.6-2-2.2-3.6c2.2-9,10.2-15.3,19.4-15.3
											c3.2,0,6.3,0.8,9.1,2.2c1.5,0.8,2.1,2.6,1.3,4c-0.8,1.5-2.6,2.1-4,1.3c-2-1-4.1-1.5-6.4-1.5c-6.5,0-12.1,4.4-13.6,10.6
											C59.3,79.2,58.1,80.2,56.7,80.2z"/>
									</g>
									<g class="st25">
										<path class="st11" d="M73.2,101.3c-8.5,0-16.1-5.4-18.9-13.5c-0.5-1.6,0.3-3.3,1.9-3.8c1.6-0.5,3.3,0.3,3.8,1.9
											c2,5.6,7.3,9.4,13.2,9.4c0.5,0,1.1,0,1.6-0.1c1.6-0.2,3.1,1,3.3,2.7c0.2,1.6-1,3.1-2.7,3.3
											C74.7,101.2,74,101.3,73.2,101.3z"/>
									</g>
									<g class="st25">
										<path class="st11" d="M90,87.2c-0.2,0-0.3,0-0.5,0c-1.6-0.3-2.7-1.8-2.4-3.5c0.1-0.8,0.2-1.6,0.2-2.4
											c0-1.4-0.2-2.8-0.6-4.1c-0.5-1.6,0.4-3.3,2-3.7c1.6-0.5,3.3,0.4,3.7,2c0.6,1.9,0.9,3.9,0.9,5.9c0,1.2-0.1,2.3-0.3,3.4
											C92.7,86.1,91.4,87.2,90,87.2z"/>
									</g>
								</g>
							</g>
							<g>
								<g>
									<g>
										
											<radialGradient id="SVGID_4_" cx="223.3352" cy="435.8864" r="1.9452" gradientTransform="matrix(0 -2.1193 -2.1193 0 1613.6287 543.7621)" gradientUnits="userSpaceOnUse">
											<stop  offset="0" style="stop-color:#FFFFFF"/>
											<stop  offset="3.072509e-02" style="stop-color:#FDF8F8"/>
											<stop  offset="7.671667e-02" style="stop-color:#F7E3E5"/>
											<stop  offset="0.1323" style="stop-color:#EEC2C7"/>
											<stop  offset="0.1954" style="stop-color:#E1939C"/>
											<stop  offset="0.2638" style="stop-color:#D15866"/>
											<stop  offset="0.3" style="stop-color:#C83647"/>
											<stop  offset="0.8118" style="stop-color:#DC3636;stop-opacity:0.14"/>
											<stop  offset="1" style="stop-color:#000000;stop-opacity:0"/>
										</radialGradient>
										<circle class="st32" cx="689.9" cy="70.4" r="4.1"/>
									</g>
									<g>
										<g>
											<path class="st33" d="M501.3,87.5c0,0.7-0.5,1.2-1.2,1.2s-1.2-0.5-1.2-1.2s0.5-1.2,1.2-1.2
												C500.7,86.3,501.3,86.8,501.3,87.5z"/>
										</g>
										
											<radialGradient id="SVGID_5_" cx="57.4539" cy="751.2994" r="1.9465" gradientTransform="matrix(0 -2.1193 -2.1193 0 1613.6287 543.7621)" gradientUnits="userSpaceOnUse">
											<stop  offset="0" style="stop-color:#FFFFFF"/>
											<stop  offset="3.072509e-02" style="stop-color:#FDF8F8"/>
											<stop  offset="7.671667e-02" style="stop-color:#F7E3E5"/>
											<stop  offset="0.1323" style="stop-color:#EEC2C7"/>
											<stop  offset="0.1954" style="stop-color:#E1939C"/>
											<stop  offset="0.2638" style="stop-color:#D15866"/>
											<stop  offset="0.3" style="stop-color:#C83647"/>
											<stop  offset="0.8118" style="stop-color:#DC3636;stop-opacity:0.14"/>
											<stop  offset="1" style="stop-color:#000000;stop-opacity:0"/>
										</radialGradient>
										<circle class="st34" cx="21.4" cy="422" r="4.1"/>
									</g>
								</g>
								<g>
									<g>
										
											<radialGradient id="SVGID_6_" cx="42.9605" cy="465.326" r="1.9452" gradientTransform="matrix(0 -2.1193 -2.1193 0 1613.6287 543.7621)" gradientUnits="userSpaceOnUse">
											<stop  offset="0" style="stop-color:#FFFFFF"/>
											<stop  offset="3.072509e-02" style="stop-color:#FDF8F8"/>
											<stop  offset="7.671667e-02" style="stop-color:#F7E3E5"/>
											<stop  offset="0.1323" style="stop-color:#EEC2C7"/>
											<stop  offset="0.1954" style="stop-color:#E1939C"/>
											<stop  offset="0.2638" style="stop-color:#D15866"/>
											<stop  offset="0.3" style="stop-color:#C83647"/>
											<stop  offset="0.8118" style="stop-color:#DC3636;stop-opacity:0.14"/>
											<stop  offset="1" style="stop-color:#000000;stop-opacity:0"/>
										</radialGradient>
										<circle class="st35" cx="627.5" cy="452.7" r="4.1"/>
										<circle class="st33" cx="487.3" cy="111.7" r="1.2"/>
									</g>
									<g>
										<g>
											
												<radialGradient id="SVGID_7_" cx="203.8741" cy="537.1518" r="1.9452" gradientTransform="matrix(0 -2.1193 -2.1193 0 1613.6287 543.7621)" gradientUnits="userSpaceOnUse">
												<stop  offset="0" style="stop-color:#FFFFFF"/>
												<stop  offset="3.072509e-02" style="stop-color:#FDF8F8"/>
												<stop  offset="7.671667e-02" style="stop-color:#F7E3E5"/>
												<stop  offset="0.1323" style="stop-color:#EEC2C7"/>
												<stop  offset="0.1954" style="stop-color:#E1939C"/>
												<stop  offset="0.2638" style="stop-color:#D15866"/>
												<stop  offset="0.3" style="stop-color:#C83647"/>
												<stop  offset="0.8118" style="stop-color:#DC3636;stop-opacity:0.14"/>
												<stop  offset="1" style="stop-color:#000000;stop-opacity:0"/>
											</radialGradient>
											<circle class="st36" cx="475.2" cy="111.7" r="4.1"/>
											<circle class="st33" cx="475.2" cy="111.7" r="1.2"/>
										</g>
										<g>
											<path class="st33" d="M501.3,111.7c0,0.7-0.5,1.2-1.2,1.2s-1.2-0.5-1.2-1.2s0.5-1.2,1.2-1.2
												C500.7,110.5,501.3,111,501.3,111.7z"/>
										</g>
									</g>
								</g>
								<g>
									<g>
										
											<radialGradient id="SVGID_8_" cx="31.9632" cy="716.0991" r="1.9469" gradientTransform="matrix(0 -2.1193 -2.1193 0 1613.6287 543.7621)" gradientUnits="userSpaceOnUse">
											<stop  offset="0" style="stop-color:#FFFFFF"/>
											<stop  offset="3.072509e-02" style="stop-color:#FDF8F8"/>
											<stop  offset="7.671667e-02" style="stop-color:#F7E3E5"/>
											<stop  offset="0.1323" style="stop-color:#EEC2C7"/>
											<stop  offset="0.1954" style="stop-color:#E1939C"/>
											<stop  offset="0.2638" style="stop-color:#D15866"/>
											<stop  offset="0.3" style="stop-color:#C83647"/>
											<stop  offset="0.8118" style="stop-color:#DC3636;stop-opacity:0.14"/>
											<stop  offset="1" style="stop-color:#000000;stop-opacity:0"/>
										</radialGradient>
										<path class="st37" d="M96,471.9c2.3,0,4.1,1.8,4.1,4.1c0,2.3-1.8,4.1-4.1,4.1c-2.3,0-4.1-1.8-4.1-4.1
											C91.9,473.7,93.7,471.9,96,471.9z"/>
									</g>
								</g>
							</g>
						</g>
						<g>
							
								<radialGradient id="SVGID_9_" cx="136.8374" cy="181.7962" r="2.4641" gradientTransform="matrix(0 2.1193 2.1193 0 -347.9806 -170.2857)" gradientUnits="userSpaceOnUse">
								<stop  offset="0" style="stop-color:#FFFFFF"/>
								<stop  offset="3.072509e-02" style="stop-color:#FDF8F8"/>
								<stop  offset="7.671667e-02" style="stop-color:#F7E3E5"/>
								<stop  offset="0.1323" style="stop-color:#EEC2C7"/>
								<stop  offset="0.1954" style="stop-color:#E1939C"/>
								<stop  offset="0.2638" style="stop-color:#D15866"/>
								<stop  offset="0.3" style="stop-color:#C83647"/>
								<stop  offset="0.8118" style="stop-color:#DC3636;stop-opacity:0.14"/>
								<stop  offset="1" style="stop-color:#000000;stop-opacity:0"/>
							</radialGradient>
							<path class="st38" d="M38.5,124.8c-3.8,0.8-7.1-2.5-6.3-6.3c0.4-1.9,2-3.5,3.9-3.9c3.8-0.8,7.1,2.5,6.3,6.3
								C42,122.8,40.4,124.4,38.5,124.8z"/>
							<g>
								
									<radialGradient id="SVGID_10_" cx="268.5961" cy="215.2506" r="2.4655" gradientTransform="matrix(0 2.1193 2.1193 0 -347.9806 -170.2857)" gradientUnits="userSpaceOnUse">
									<stop  offset="0" style="stop-color:#FFFFFF"/>
									<stop  offset="3.072509e-02" style="stop-color:#FDF8F8"/>
									<stop  offset="7.671667e-02" style="stop-color:#F7E3E5"/>
									<stop  offset="0.1323" style="stop-color:#EEC2C7"/>
									<stop  offset="0.1954" style="stop-color:#E1939C"/>
									<stop  offset="0.2638" style="stop-color:#D15866"/>
									<stop  offset="0.3" style="stop-color:#C83647"/>
									<stop  offset="0.8118" style="stop-color:#DC3636;stop-opacity:0.14"/>
									<stop  offset="1" style="stop-color:#000000;stop-opacity:0"/>
								</radialGradient>
								<path class="st39" d="M108.2,404.2c-2.9,0-5.2-2.3-5.2-5.2c0-2.9,2.3-5.2,5.2-5.2c2.9,0,5.2,2.3,5.2,5.2
									C113.4,401.8,111.1,404.2,108.2,404.2z"/>
							</g>
						</g>
					</g>
					<g>
						<line class="st40" x1="556" y1="155.3" x2="556" y2="175.4"/>
						<path class="st40" d="M454.1,155.3"/>
						<path class="st41" d="M290,140.9"/>
						<path class="st41" d="M258.3,140.9"/>
						<path class="st41" d="M388.1,245.9"/>
						<path class="st41" d="M388.1,231.5"/>
						<path class="st41" d="M267.1,368.1"/>
						<path class="st41" d="M267.1,270.3"/>
						<path class="st40" d="M462.9,332.5"/>
						<path class="st40" d="M267.1,332.5"/>
					</g>
					<g>
						<g>
							<path class="st42" d="M645.6,128.7c0-0.5,0-1.1,0-1.6c0.2-0.1,0.4-0.2,0.6-0.3c0.3-0.1,0.7-0.3,1-0.4s0.5-0.5,0.3-0.8
								c-0.2-0.4-0.3-0.8-0.5-1.2c-0.1-0.2-0.1-0.4,0.1-0.6c0.2-0.2,0.5-0.4,0.7-0.7c0.2-0.2,0.4-0.2,0.6-0.1
								c0.4,0.2,0.8,0.3,1.2,0.5c0.4,0.1,0.7,0,0.9-0.4s0.3-0.8,0.5-1.2c0.1-0.2,0.2-0.3,0.4-0.3c0.4,0,0.7,0,1.1,0
								c0.2,0,0.4,0.1,0.5,0.3c0.2,0.4,0.3,0.8,0.5,1.2c0.1,0.3,0.5,0.5,0.8,0.3c0.4-0.2,0.8-0.3,1.3-0.5c0.2-0.1,0.4,0,0.5,0.1
								c0.2,0.2,0.5,0.5,0.7,0.7s0.2,0.4,0.1,0.6c-0.2,0.4-0.3,0.8-0.5,1.2c-0.1,0.3,0,0.7,0.3,0.8c0.4,0.2,0.8,0.3,1.3,0.5
								c0.2,0.1,0.3,0.2,0.3,0.4c0,0.4,0,0.7,0,1.1c0,0.2-0.1,0.4-0.3,0.4c-0.4,0.2-0.8,0.4-1.3,0.5c-0.3,0.1-0.5,0.5-0.3,0.8
								c0.2,0.4,0.4,0.8,0.5,1.2c0.1,0.2,0,0.3-0.1,0.5c-0.3,0.3-0.6,0.5-0.8,0.8c-0.1,0.1-0.3,0.1-0.4,0.1
								c-0.5-0.2-0.9-0.3-1.4-0.5c-0.3-0.1-0.7,0-0.8,0.4c-0.2,0.4-0.3,0.8-0.5,1.2c-0.1,0.2-0.2,0.3-0.5,0.3c-0.4,0-0.7,0-1.1,0
								c-0.2,0-0.4-0.1-0.5-0.3c-0.2-0.4-0.3-0.8-0.5-1.2s-0.6-0.5-0.9-0.4c-0.4,0.2-0.8,0.3-1.2,0.5c-0.2,0.1-0.4,0.1-0.6-0.1
								c-0.2-0.3-0.5-0.5-0.7-0.7s-0.2-0.3-0.1-0.6c0.2-0.4,0.3-0.8,0.5-1.2c0.1-0.3,0-0.7-0.4-0.8
								C646.6,129.1,646.1,128.9,645.6,128.7z M652,125.7c-1.2,0-2.2,1-2.2,2.2s1,2.2,2.2,2.2s2.2-1,2.2-2.2S653.2,125.7,652,125.7z
								"/>
							<path class="st42" d="M656.3,139.8c0-0.3,0-0.7,0-1c0.1-0.1,0.2-0.2,0.4-0.2c0.2-0.1,0.4-0.2,0.7-0.3
								c0.2-0.1,0.3-0.3,0.2-0.5c-0.1-0.3-0.2-0.5-0.3-0.8c-0.1-0.2,0-0.3,0.1-0.4c0.2-0.1,0.3-0.3,0.5-0.4c0.1-0.1,0.2-0.1,0.4-0.1
								c0.3,0.1,0.5,0.2,0.8,0.3c0.2,0.1,0.5,0,0.6-0.2c0.1-0.3,0.2-0.5,0.3-0.8c0.1-0.1,0.1-0.2,0.3-0.2s0.5,0,0.7,0
								s0.3,0.1,0.4,0.2c0.1,0.3,0.2,0.5,0.3,0.8c0.1,0.2,0.4,0.3,0.5,0.2c0.3-0.1,0.6-0.2,0.8-0.3c0.1-0.1,0.2,0,0.4,0.1
								c0.2,0.2,0.3,0.3,0.5,0.5c0.1,0.1,0.2,0.2,0.1,0.4c-0.1,0.3-0.2,0.5-0.3,0.8c-0.1,0.2,0,0.5,0.2,0.5c0.3,0.1,0.6,0.2,0.8,0.3
								c0.1,0.1,0.2,0.1,0.2,0.3s0,0.5,0,0.7c0,0.1,0,0.2-0.2,0.3c-0.3,0.1-0.6,0.2-0.8,0.4c-0.2,0.1-0.3,0.3-0.2,0.5
								c0.1,0.3,0.2,0.5,0.4,0.8c0.1,0.1,0,0.2-0.1,0.3c-0.2,0.2-0.4,0.3-0.5,0.5c-0.1,0.1-0.2,0.1-0.3,0.1
								c-0.3-0.1-0.6-0.2-0.9-0.3c-0.2-0.1-0.5,0-0.5,0.2c-0.1,0.3-0.2,0.5-0.3,0.8c-0.1,0.1-0.2,0.2-0.3,0.2c-0.2,0-0.5,0-0.7,0
								s-0.3-0.1-0.3-0.2c-0.1-0.3-0.2-0.5-0.3-0.8c-0.1-0.2-0.4-0.3-0.6-0.2c-0.3,0.1-0.5,0.2-0.8,0.3c-0.1,0.1-0.3,0-0.4-0.1
								c-0.2-0.2-0.3-0.3-0.5-0.5c-0.1-0.1-0.2-0.2-0.1-0.4c0.1-0.3,0.2-0.5,0.3-0.8c0.1-0.2,0-0.5-0.2-0.6
								C656.9,140.1,656.6,140,656.3,139.8z M660.5,137.8c-0.8,0-1.5,0.6-1.5,1.4c0,0.8,0.7,1.4,1.5,1.4s1.5-0.6,1.5-1.4
								C662,138.5,661.3,137.8,660.5,137.8z"/>
						</g>
					</g>
					<path class="st42" d="M645.2,141.6c0-0.2,0-0.4,0-0.6c0.1,0,0.1-0.1,0.2-0.1c0.1-0.1,0.3-0.1,0.4-0.2c0.1,0,0.2-0.2,0.1-0.3
						c-0.1-0.2-0.1-0.3-0.2-0.5c0-0.1,0-0.2,0.1-0.3s0.2-0.2,0.3-0.3s0.1-0.1,0.2-0.1c0.2,0.1,0.3,0.1,0.5,0.2
						c0.1,0.1,0.3,0,0.4-0.1c0.1-0.2,0.1-0.3,0.2-0.5c0-0.1,0.1-0.1,0.2-0.1c0.1,0,0.3,0,0.4,0c0.1,0,0.2,0,0.2,0.1
						c0.1,0.2,0.1,0.3,0.2,0.5c0,0.1,0.2,0.2,0.3,0.1c0.2-0.1,0.3-0.1,0.5-0.2c0.1,0,0.1,0,0.2,0c0.1,0.1,0.2,0.2,0.3,0.3
						s0.1,0.1,0.1,0.2c-0.1,0.2-0.1,0.3-0.2,0.5c-0.1,0.1,0,0.3,0.1,0.3c0.2,0.1,0.3,0.1,0.5,0.2c0.1,0,0.1,0.1,0.1,0.2
						c0,0.1,0,0.3,0,0.4c0,0.1,0,0.1-0.1,0.2c-0.2,0.1-0.3,0.1-0.5,0.2c-0.1,0.1-0.2,0.2-0.1,0.3c0.1,0.2,0.1,0.3,0.2,0.5
						c0,0.1,0,0.1,0,0.2c-0.1,0.1-0.2,0.2-0.3,0.3c0,0.1-0.1,0.1-0.2,0c-0.2-0.1-0.4-0.1-0.6-0.2c-0.1,0-0.3,0-0.3,0.1
						c-0.1,0.2-0.1,0.3-0.2,0.5c0,0.1-0.1,0.1-0.2,0.1c-0.1,0-0.3,0-0.4,0c-0.1,0-0.2,0-0.2-0.1c-0.1-0.2-0.1-0.3-0.2-0.5
						c-0.1-0.1-0.2-0.2-0.4-0.1c-0.2,0.1-0.3,0.1-0.5,0.2c-0.1,0-0.2,0-0.2,0c-0.1-0.1-0.2-0.2-0.3-0.3s-0.1-0.1-0.1-0.2
						c0.1-0.2,0.1-0.3,0.2-0.5c0.1-0.1,0-0.3-0.1-0.3C645.6,141.8,645.4,141.7,645.2,141.6z M647.8,140.4c-0.5,0-0.9,0.4-0.9,0.9
						s0.4,0.9,0.9,0.9s0.9-0.4,0.9-0.9C648.6,140.8,648.2,140.4,647.8,140.4z"/>
					<g>
						<g>
							<path class="st42" d="M273.6,146.6c0-0.3-0.1-0.6-0.1-0.9c-0.2-1.6-1.3-3-2.7-3.6c0-0.1,0-0.2,0-0.3c0-2.4-2-4.4-4.4-4.4
								c-0.8,0-1.6,0.2-2.2,0.6c-0.3-2.6-2.5-4.7-5.2-4.7c-2.4,0-4.4,1.6-5,3.9c-0.8-0.2-1.7-0.3-2.6-0.2c-3.2,0.4-5.7,2.9-6,6.1
								c-0.1,1.1,0.1,2.2,0.4,3.2l0,0c0,0,0.3,1.5,2.2,2.9c0.3,0.2,0.6,0.5,1,0.6c3.1,1.8,9.1,3.1,20.8,1c1.2-0.2,2.2-0.7,3-1.6
								C273.2,148.6,273.7,147.7,273.6,146.6z"/>
						</g>
						<g>
							<g>
								<g>
									<path class="st42" d="M64.3,75.7h-0.9c-0.6,0-1-0.5-1-1v-0.9c0-0.6,0.5-1,1-1h0.9c0.6,0,1,0.5,1,1v0.9
										C65.3,75.3,64.8,75.7,64.3,75.7z"/>
									<path class="st42" d="M82.8,75.3H66.5c-0.4,0-0.8-0.3-0.8-0.8V74c0-0.4,0.3-0.8,0.8-0.8h16.3c0.4,0,0.8,0.3,0.8,0.8v0.5
										C83.5,74.9,83.2,75.3,82.8,75.3z"/>
								</g>
								<g>
									<path class="st42" d="M64.3,80h-0.9c-0.6,0-1-0.5-1-1v-0.9c0-0.6,0.5-1,1-1h0.9c0.6,0,1,0.5,1,1V79
										C65.3,79.5,64.8,80,64.3,80z"/>
									<path class="st42" d="M82.8,79.5H66.5c-0.4,0-0.8-0.3-0.8-0.8v-0.5c0-0.4,0.3-0.8,0.8-0.8h16.3c0.4,0,0.8,0.3,0.8,0.8v0.5
										C83.5,79.2,83.2,79.5,82.8,79.5z"/>
								</g>
								<g>
									<path class="st42" d="M64.3,84.2h-0.9c-0.6,0-1-0.5-1-1v-0.9c0-0.6,0.5-1,1-1h0.9c0.6,0,1,0.5,1,1v0.9
										C65.3,83.8,64.8,84.2,64.3,84.2z"/>
									<path class="st42" d="M82.8,83.8H66.5c-0.4,0-0.8-0.3-0.8-0.8v-0.5c0-0.4,0.3-0.8,0.8-0.8h16.3c0.4,0,0.8,0.3,0.8,0.8V83
										C83.5,83.4,83.2,83.8,82.8,83.8z"/>
								</g>
								<g>
									<path class="st42" d="M64.3,88.5h-0.9c-0.6,0-1-0.5-1-1v-0.9c0-0.6,0.5-1,1-1h0.9c0.6,0,1,0.5,1,1v0.9
										C65.3,88.1,64.8,88.5,64.3,88.5z"/>
									<path class="st42" d="M82.8,88H66.5c-0.4,0-0.8-0.3-0.8-0.8v-0.5c0-0.4,0.3-0.8,0.8-0.8h16.3c0.4,0,0.8,0.3,0.8,0.8v0.5
										C83.5,87.7,83.2,88,82.8,88z"/>
								</g>
							</g>
						</g>
						<g>
							<ellipse class="st43" cx="695.9" cy="408.7" rx="12.8" ry="11.7"/>
							<g>
								<path class="st42" d="M701.4,403.5l-5.1-1.9c-0.2-0.1-0.5-0.1-0.7,0l-5.1,1.9c-0.4,0.1-0.6,0.5-0.6,0.8v4.5
									c0,2.4,1.6,4.7,4.2,6.2l1.4,0.8c0.3,0.2,0.7,0.2,1,0l1.4-0.8c2.6-1.5,4.2-3.7,4.2-6.2v-4.5C702,404,701.8,403.7,701.4,403.5
									z M700.7,408.8c0,1.9-1.2,3.7-3.3,4.8l-1.1,0.6c-0.2,0.1-0.5,0.1-0.8,0l-1.1-0.6c-2.1-1.1-3.3-2.9-3.3-4.8v-3.5
									c0-0.3,0.2-0.5,0.5-0.6l4-1.5c0.2-0.1,0.4-0.1,0.6,0l4,1.5c0.3,0.1,0.5,0.4,0.5,0.6L700.7,408.8L700.7,408.8z"/>
								<polyline class="st44" points="692.3,408.8 695,411.2 699.6,406.2 								"/>
							</g>
						</g>
					</g>
				</g>
			</g>
		</g>
	</g>
</g>
<g>
	<g>
		<g>
			<g>
				
					<radialGradient id="SVGID_11_" cx="368.7276" cy="296.0401" r="239.433" gradientTransform="matrix(1 0 0 -1 0 502)" gradientUnits="userSpaceOnUse">
					<stop  offset="0" style="stop-color:#111111;stop-opacity:0.1361"/>
					<stop  offset="0.4812" style="stop-color:#DB2107;stop-opacity:0.8"/>
					<stop  offset="0.8128" style="stop-color:#CC2C26;stop-opacity:0.15"/>
					<stop  offset="1" style="stop-color:#000000;stop-opacity:0"/>
				</radialGradient>
				<ellipse class="st45" cx="539.5" cy="308.5" rx="42" ry="40.9"/>
				
					<radialGradient id="SVGID_12_" cx="368.7276" cy="296.0401" r="239.433" gradientTransform="matrix(1 0 0 -1 0 502)" gradientUnits="userSpaceOnUse">
					<stop  offset="0" style="stop-color:#111111;stop-opacity:0.1361"/>
					<stop  offset="0.4812" style="stop-color:#DB2107;stop-opacity:0.8"/>
					<stop  offset="0.8128" style="stop-color:#CC2C26;stop-opacity:0.15"/>
					<stop  offset="1" style="stop-color:#000000;stop-opacity:0"/>
				</radialGradient>
				<ellipse class="st46" cx="539.5" cy="307.4" rx="21" ry="20.5"/>
			</g>
			<g>
				
					<radialGradient id="SVGID_13_" cx="368.7276" cy="296.0401" r="239.433" gradientTransform="matrix(1 0 0 -1 0 502)" gradientUnits="userSpaceOnUse">
					<stop  offset="0" style="stop-color:#111111;stop-opacity:0.1361"/>
					<stop  offset="0.4812" style="stop-color:#DB2107;stop-opacity:0.8"/>
					<stop  offset="0.8128" style="stop-color:#CC2C26;stop-opacity:0.15"/>
					<stop  offset="1" style="stop-color:#000000;stop-opacity:0"/>
				</radialGradient>
				<path class="st47" d="M618.2,320.6c7.5,9.9-3.6,21.1-13.5,13.5C597.1,324.4,608.3,313.1,618.2,320.6z"/>
				
					<radialGradient id="SVGID_14_" cx="368.7276" cy="296.0401" r="239.433" gradientTransform="matrix(1 0 0 -1 0 502)" gradientUnits="userSpaceOnUse">
					<stop  offset="0" style="stop-color:#111111;stop-opacity:0.1361"/>
					<stop  offset="0.4812" style="stop-color:#DB2107;stop-opacity:0.8"/>
					<stop  offset="0.8128" style="stop-color:#CC2C26;stop-opacity:0.15"/>
					<stop  offset="1" style="stop-color:#000000;stop-opacity:0"/>
				</radialGradient>
				<path class="st48" d="M616.1,327.1c0,2.6-2.1,4.6-4.6,4.6c-2.6,0-4.6-2.1-4.6-4.6c0-2.6,2.1-4.6,4.6-4.6
					C614,322.5,616.1,324.6,616.1,327.1z"/>
			</g>
			<g>
				<g>
					
						<radialGradient id="SVGID_15_" cx="368.7276" cy="296.0401" r="239.433" gradientTransform="matrix(1 0 0 -1 0 502)" gradientUnits="userSpaceOnUse">
						<stop  offset="0" style="stop-color:#111111;stop-opacity:0.1361"/>
						<stop  offset="0.4812" style="stop-color:#DB2107;stop-opacity:0.8"/>
						<stop  offset="0.8128" style="stop-color:#CC2C26;stop-opacity:0.15"/>
						<stop  offset="1" style="stop-color:#000000;stop-opacity:0"/>
					</radialGradient>
					<path class="st49" d="M543.9,315.3c-0.4,0-0.8-0.2-1.1-0.5c-1-1-2-1.5-3-1.5l0,0c-1.9,0-3.4,1.5-3.4,1.5
						c-0.6,0.6-1.6,0.6-2.2,0c-0.6-0.6-0.6-1.5,0-2.1c0.1-0.1,2.4-2.4,5.6-2.4l0,0c1.9,0,3.7,0.8,5.3,2.4c0.6,0.6,0.6,1.5-0.1,2.1
						C544.7,315.1,544.3,315.3,543.9,315.3z"/>
				</g>
				<g>
					
						<radialGradient id="SVGID_16_" cx="368.7276" cy="296.0401" r="239.433" gradientTransform="matrix(1 0 0 -1 0 502)" gradientUnits="userSpaceOnUse">
						<stop  offset="0" style="stop-color:#111111;stop-opacity:0.1361"/>
						<stop  offset="0.4812" style="stop-color:#DB2107;stop-opacity:0.8"/>
						<stop  offset="0.8128" style="stop-color:#CC2C26;stop-opacity:0.15"/>
						<stop  offset="1" style="stop-color:#000000;stop-opacity:0"/>
					</radialGradient>
					<path class="st50" d="M549,310.5c-0.4,0-0.8-0.2-1.1-0.5c-2.4-2.5-5.1-3.8-7.9-3.8c0,0,0,0-0.1,0c-4.8,0-8.6,3.8-8.7,3.8
						c-0.6,0.6-1.6,0.6-2.2,0c-0.6-0.6-0.6-1.5,0-2.1c0.2-0.2,4.7-4.7,10.9-4.7l0,0c3.7,0,7.1,1.6,10.1,4.7c0.6,0.6,0.6,1.5-0.1,2.1
						C549.7,310.4,549.3,310.5,549,310.5z"/>
				</g>
				<g>
					
						<radialGradient id="SVGID_17_" cx="368.7276" cy="296.0401" r="239.433" gradientTransform="matrix(1 0 0 -1 0 502)" gradientUnits="userSpaceOnUse">
						<stop  offset="0" style="stop-color:#111111;stop-opacity:0.1361"/>
						<stop  offset="0.4812" style="stop-color:#DB2107;stop-opacity:0.8"/>
						<stop  offset="0.8128" style="stop-color:#CC2C26;stop-opacity:0.15"/>
						<stop  offset="1" style="stop-color:#000000;stop-opacity:0"/>
					</radialGradient>
					<path class="st51" d="M542.6,298.9c-0.8-0.1-1.6-0.2-2.4-0.2c0,0,0,0-0.1,0c-7.5,0-13.2,5.8-13.3,5.8c-0.6,0.6-1.5,0.6-2.2,0
						c-0.6-0.6-0.6-1.5,0-2.1c0.3-0.3,6.7-6.8,15.5-6.8c0,0,0,0,0.1,0c5.2,0,10,2.3,14.3,6.8c0.6,0.6,0.6,1.5-0.1,2.1
						c-0.3,0.3-0.7,0.4-1,0.4c-0.4,0-0.8-0.2-1.1-0.5C549.2,301.4,546,299.5,542.6,298.9"/>
				</g>
				<g>
					
						<radialGradient id="SVGID_18_" cx="368.7276" cy="296.0401" r="239.433" gradientTransform="matrix(1 0 0 -1 0 502)" gradientUnits="userSpaceOnUse">
						<stop  offset="0" style="stop-color:#111111;stop-opacity:0.1361"/>
						<stop  offset="0.4812" style="stop-color:#DB2107;stop-opacity:0.8"/>
						<stop  offset="0.8128" style="stop-color:#CC2C26;stop-opacity:0.15"/>
						<stop  offset="1" style="stop-color:#000000;stop-opacity:0"/>
					</radialGradient>
					<path class="st52" d="M541.8,318.8c0,1.2-1,2.1-2.2,2.1s-2.2-1-2.2-2.1c0-1.2,1-2.1,2.2-2.1
						C540.8,316.5,541.8,317.5,541.8,318.8z"/>
				</g>
			</g>
		</g>
		<g>
			
				<radialGradient id="SVGID_19_" cx="368.7276" cy="296.0401" r="239.433" gradientTransform="matrix(1 0 0 -1 0 502)" gradientUnits="userSpaceOnUse">
				<stop  offset="0" style="stop-color:#111111;stop-opacity:0.1361"/>
				<stop  offset="0.4812" style="stop-color:#DB2107;stop-opacity:0.8"/>
				<stop  offset="0.8128" style="stop-color:#CC2C26;stop-opacity:0.15"/>
				<stop  offset="1" style="stop-color:#000000;stop-opacity:0"/>
			</radialGradient>
			<ellipse class="st53" cx="75.4" cy="223.3" rx="9.2" ry="9.2"/>
			
				<radialGradient id="SVGID_20_" cx="368.7276" cy="296.0401" r="239.433" gradientTransform="matrix(1 0 0 -1 0 502)" gradientUnits="userSpaceOnUse">
				<stop  offset="0" style="stop-color:#111111;stop-opacity:0.1361"/>
				<stop  offset="0.4812" style="stop-color:#DB2107;stop-opacity:0.8"/>
				<stop  offset="0.8128" style="stop-color:#CC2C26;stop-opacity:0.15"/>
				<stop  offset="1" style="stop-color:#000000;stop-opacity:0"/>
			</radialGradient>
			<circle class="st54" cx="75.4" cy="223" r="4.6"/>
		</g>
		<g>
			
				<radialGradient id="SVGID_21_" cx="368.7276" cy="296.0401" r="239.433" gradientTransform="matrix(1 0 0 -1 0 502)" gradientUnits="userSpaceOnUse">
				<stop  offset="0" style="stop-color:#111111;stop-opacity:0.1361"/>
				<stop  offset="0.4812" style="stop-color:#DB2107;stop-opacity:0.8"/>
				<stop  offset="0.8128" style="stop-color:#CC2C26;stop-opacity:0.15"/>
				<stop  offset="1" style="stop-color:#000000;stop-opacity:0"/>
			</radialGradient>
			<ellipse class="st55" cx="77.1" cy="287.9" rx="9.2" ry="9.2"/>
			
				<radialGradient id="SVGID_22_" cx="368.7276" cy="296.0401" r="239.433" gradientTransform="matrix(1 0 0 -1 0 502)" gradientUnits="userSpaceOnUse">
				<stop  offset="0" style="stop-color:#111111;stop-opacity:0.1361"/>
				<stop  offset="0.4812" style="stop-color:#DB2107;stop-opacity:0.8"/>
				<stop  offset="0.8128" style="stop-color:#CC2C26;stop-opacity:0.15"/>
				<stop  offset="1" style="stop-color:#000000;stop-opacity:0"/>
			</radialGradient>
			<circle class="st56" cx="77.1" cy="287.5" r="4.6"/>
		</g>
		<g>
			
				<radialGradient id="SVGID_23_" cx="368.7276" cy="296.0401" r="239.433" gradientTransform="matrix(1 0 0 -1 0 502)" gradientUnits="userSpaceOnUse">
				<stop  offset="0" style="stop-color:#111111;stop-opacity:0.1361"/>
				<stop  offset="0.4812" style="stop-color:#DB2107;stop-opacity:0.8"/>
				<stop  offset="0.8128" style="stop-color:#CC2C26;stop-opacity:0.15"/>
				<stop  offset="1" style="stop-color:#000000;stop-opacity:0"/>
			</radialGradient>
			<ellipse class="st57" cx="71.3" cy="195.4" rx="9.2" ry="9.2"/>
			
				<radialGradient id="SVGID_24_" cx="368.7276" cy="296.0401" r="239.433" gradientTransform="matrix(1 0 0 -1 0 502)" gradientUnits="userSpaceOnUse">
				<stop  offset="0" style="stop-color:#111111;stop-opacity:0.1361"/>
				<stop  offset="0.4812" style="stop-color:#DB2107;stop-opacity:0.8"/>
				<stop  offset="0.8128" style="stop-color:#CC2C26;stop-opacity:0.15"/>
				<stop  offset="1" style="stop-color:#000000;stop-opacity:0"/>
			</radialGradient>
			<circle class="st58" cx="71.3" cy="195.1" r="4.6"/>
		</g>
		
			<radialGradient id="SVGID_25_" cx="368.7276" cy="296.0401" r="239.433" gradientTransform="matrix(1 0 0 -1 0 502)" gradientUnits="userSpaceOnUse">
			<stop  offset="0" style="stop-color:#111111;stop-opacity:0.1361"/>
			<stop  offset="0.4812" style="stop-color:#DB2107;stop-opacity:0.8"/>
			<stop  offset="0.8128" style="stop-color:#CC2C26;stop-opacity:0.15"/>
			<stop  offset="1" style="stop-color:#000000;stop-opacity:0"/>
		</radialGradient>
		<path class="st59" d="M158.1,100.5c7.5,9.9-3.6,21.1-13.5,13.5l0,0C137,104.2,148.2,93,158.1,100.5z"/>
		
			<radialGradient id="SVGID_26_" cx="368.7276" cy="296.0401" r="239.433" gradientTransform="matrix(1 0 0 -1 0 502)" gradientUnits="userSpaceOnUse">
			<stop  offset="0" style="stop-color:#111111;stop-opacity:0.1361"/>
			<stop  offset="0.4812" style="stop-color:#DB2107;stop-opacity:0.8"/>
			<stop  offset="0.8128" style="stop-color:#CC2C26;stop-opacity:0.15"/>
			<stop  offset="1" style="stop-color:#000000;stop-opacity:0"/>
		</radialGradient>
		<path class="st60" d="M597.3,325.3c7.5,9.9-3.6,21.1-13.5,13.5C576.2,328.9,587.4,317.8,597.3,325.3z"/>
		
			<radialGradient id="SVGID_27_" cx="368.7276" cy="296.0401" r="239.433" gradientTransform="matrix(1 0 0 -1 0 502)" gradientUnits="userSpaceOnUse">
			<stop  offset="0" style="stop-color:#111111;stop-opacity:0.1361"/>
			<stop  offset="0.4812" style="stop-color:#DB2107;stop-opacity:0.8"/>
			<stop  offset="0.8128" style="stop-color:#CC2C26;stop-opacity:0.15"/>
			<stop  offset="1" style="stop-color:#000000;stop-opacity:0"/>
		</radialGradient>
		<path class="st61" d="M595.2,331.8c0,2.6-2.1,4.6-4.6,4.6c-2.6,0-4.6-2.1-4.6-4.6s2.1-4.6,4.6-4.6S595.2,329.1,595.2,331.8z"/>
		
			<radialGradient id="SVGID_28_" cx="368.7276" cy="296.0401" r="239.433" gradientTransform="matrix(1 0 0 -1 0 502)" gradientUnits="userSpaceOnUse">
			<stop  offset="0" style="stop-color:#111111;stop-opacity:0.1361"/>
			<stop  offset="0.4812" style="stop-color:#DB2107;stop-opacity:0.8"/>
			<stop  offset="0.8128" style="stop-color:#CC2C26;stop-opacity:0.15"/>
			<stop  offset="1" style="stop-color:#000000;stop-opacity:0"/>
		</radialGradient>
		<path class="st62" d="M618.3,122.3c7.5,9.9-3.6,21.1-13.5,13.5l0,0C597.2,125.9,608.4,114.8,618.3,122.3z"/>
		<g>
			
				<radialGradient id="SVGID_29_" cx="368.7276" cy="296.0401" r="239.433" gradientTransform="matrix(1 0 0 -1 0 502)" gradientUnits="userSpaceOnUse">
				<stop  offset="0" style="stop-color:#111111;stop-opacity:0.1361"/>
				<stop  offset="0.4812" style="stop-color:#DB2107;stop-opacity:0.8"/>
				<stop  offset="0.8128" style="stop-color:#CC2C26;stop-opacity:0.15"/>
				<stop  offset="1" style="stop-color:#000000;stop-opacity:0"/>
			</radialGradient>
			<circle class="st63" cx="666.2" cy="230.8" r="4.6"/>
		</g>
	</g>
	<g>
		<g>
			<g>
				
					<radialGradient id="SVGID_30_" cx="530.847" cy="244.8553" r="33.4123" gradientTransform="matrix(1.2562 0 0 -1.2249 -126.3584 607.4732)" gradientUnits="userSpaceOnUse">
					<stop  offset="0" style="stop-color:#111111;stop-opacity:0.1361"/>
					<stop  offset="0.4812" style="stop-color:#DB2107;stop-opacity:0.8"/>
					<stop  offset="0.8128" style="stop-color:#CC2C26;stop-opacity:0.15"/>
					<stop  offset="1" style="stop-color:#000000;stop-opacity:0"/>
				</radialGradient>
				<ellipse class="st64" cx="540.5" cy="307.5" rx="42" ry="40.9"/>
				<ellipse class="st65" cx="539.5" cy="307.4" rx="21" ry="20.5"/>
			</g>
			<g>
				
					<radialGradient id="SVGID_31_" cx="578.4026" cy="244.1861" r="6.29" gradientTransform="matrix(1.4682 0 0 -1.4707 -241.7896 686.5737)" gradientUnits="userSpaceOnUse">
					<stop  offset="0" style="stop-color:#111111;stop-opacity:0.1361"/>
					<stop  offset="0.4812" style="stop-color:#DB2107;stop-opacity:0.8"/>
					<stop  offset="0.8128" style="stop-color:#CC2C26;stop-opacity:0.15"/>
					<stop  offset="1" style="stop-color:#000000;stop-opacity:0"/>
				</radialGradient>
				<path class="st66" d="M614.2,320.6c7.5,9.9-3.6,21.1-13.5,13.5C593.1,324.4,604.3,313.1,614.2,320.6z"/>
				<path class="st67" d="M612.1,327.1c0,2.6-2.1,4.6-4.6,4.6c-2.6,0-4.6-2.1-4.6-4.6c0-2.6,2.1-4.6,4.6-4.6
					C610,322.5,612.1,324.6,612.1,327.1z"/>
			</g>
			<g>
				<g>
					<path class="st42" d="M543.9,315.3c-0.4,0-0.8-0.2-1.1-0.5c-1-1-2-1.5-3-1.5l0,0c-1.9,0-3.4,1.5-3.4,1.5
						c-0.6,0.6-1.6,0.6-2.2,0c-0.6-0.6-0.6-1.5,0-2.1c0.1-0.1,2.4-2.4,5.6-2.4l0,0c1.9,0,3.7,0.8,5.3,2.4c0.6,0.6,0.6,1.5-0.1,2.1
						C544.7,315.1,544.3,315.3,543.9,315.3z"/>
				</g>
				<g>
					<path class="st42" d="M549,310.5c-0.4,0-0.8-0.2-1.1-0.5c-2.4-2.5-5.1-3.8-7.9-3.8c0,0,0,0-0.1,0c-4.8,0-8.6,3.8-8.7,3.8
						c-0.6,0.6-1.6,0.6-2.2,0c-0.6-0.6-0.6-1.5,0-2.1c0.2-0.2,4.7-4.7,10.9-4.7l0,0c3.7,0,7.1,1.6,10.1,4.7c0.6,0.6,0.6,1.5-0.1,2.1
						C549.7,310.4,549.3,310.5,549,310.5z"/>
				</g>
				<g>
					<path class="st42" d="M542.6,298.9c-0.8-0.1-1.6-0.2-2.4-0.2c0,0,0,0-0.1,0c-7.5,0-13.2,5.8-13.3,5.8c-0.6,0.6-1.5,0.6-2.2,0
						c-0.6-0.6-0.6-1.5,0-2.1c0.3-0.3,6.7-6.8,15.5-6.8c0,0,0,0,0.1,0c5.2,0,10,2.3,14.3,6.8c0.6,0.6,0.6,1.5-0.1,2.1
						c-0.3,0.3-0.7,0.4-1,0.4c-0.4,0-0.8-0.2-1.1-0.5C549.2,301.4,546,299.5,542.6,298.9"/>
				</g>
				<g>
					<path class="st42" d="M541.8,318.8c0,1.2-1,2.1-2.2,2.1s-2.2-1-2.2-2.1c0-1.2,1-2.1,2.2-2.1
						C540.8,316.5,541.8,317.5,541.8,318.8z"/>
				</g>
			</g>
		</g>
		<g>
			
				<radialGradient id="SVGID_32_" cx="385.7316" cy="431.5345" r="6.2878" gradientTransform="matrix(1.4682 0 0 -1.4707 -241.7896 686.5737)" gradientUnits="userSpaceOnUse">
				<stop  offset="0" style="stop-color:#111111;stop-opacity:0.1361"/>
				<stop  offset="0.4812" style="stop-color:#DB2107;stop-opacity:0.8"/>
				<stop  offset="0.8128" style="stop-color:#CC2C26;stop-opacity:0.15"/>
				<stop  offset="1" style="stop-color:#000000;stop-opacity:0"/>
			</radialGradient>
			<ellipse class="st68" cx="324.5" cy="52" rx="9.2" ry="9.2"/>
			<circle class="st67" cx="74.4" cy="227" r="4.6"/>
		</g>
		<g>
			
				<radialGradient id="SVGID_33_" cx="214.4675" cy="271.8062" r="6.2878" gradientTransform="matrix(1.4682 0 0 -1.4707 -241.7896 686.5737)" gradientUnits="userSpaceOnUse">
				<stop  offset="0" style="stop-color:#111111;stop-opacity:0.1361"/>
				<stop  offset="0.4812" style="stop-color:#DB2107;stop-opacity:0.8"/>
				<stop  offset="0.8128" style="stop-color:#CC2C26;stop-opacity:0.15"/>
				<stop  offset="1" style="stop-color:#000000;stop-opacity:0"/>
			</radialGradient>
			<ellipse class="st69" cx="73.1" cy="286.9" rx="9.2" ry="9.2"/>
			<circle class="st67" cx="73.1" cy="286.5" r="4.6"/>
		</g>
		<g>
			
				<radialGradient id="SVGID_34_" cx="215.2658" cy="336.7413" r="6.2878" gradientTransform="matrix(1.4682 0 0 -1.4707 -241.7896 686.5737)" gradientUnits="userSpaceOnUse">
				<stop  offset="0" style="stop-color:#111111;stop-opacity:0.1361"/>
				<stop  offset="0.4812" style="stop-color:#DB2107;stop-opacity:0.8"/>
				<stop  offset="0.8128" style="stop-color:#CC2C26;stop-opacity:0.15"/>
				<stop  offset="1" style="stop-color:#000000;stop-opacity:0"/>
			</radialGradient>
			<ellipse class="st70" cx="74.3" cy="191.4" rx="9.2" ry="9.2"/>
			<circle class="st67" cx="74.3" cy="191.1" r="4.6"/>
		</g>
		
			<radialGradient id="SVGID_35_" cx="265.6866" cy="393.9102" r="6.2878" gradientTransform="matrix(1.4682 0 0 -1.4707 -241.7896 686.5737)" gradientUnits="userSpaceOnUse">
			<stop  offset="0" style="stop-color:#111111;stop-opacity:0.1361"/>
			<stop  offset="0.4812" style="stop-color:#DB2107;stop-opacity:0.8"/>
			<stop  offset="0.8128" style="stop-color:#CC2C26;stop-opacity:0.15"/>
			<stop  offset="1" style="stop-color:#000000;stop-opacity:0"/>
		</radialGradient>
		<path class="st71" d="M155.1,100.5c7.5,9.9-3.6,21.1-13.5,13.5l0,0C134,104.2,145.2,93,155.1,100.5z"/>
		
			<radialGradient id="SVGID_36_" cx="564.8486" cy="241.0737" r="6.2823" gradientTransform="matrix(1.4682 0 0 -1.4707 -241.7896 686.5737)" gradientUnits="userSpaceOnUse">
			<stop  offset="0" style="stop-color:#111111;stop-opacity:0.1361"/>
			<stop  offset="0.4812" style="stop-color:#DB2107;stop-opacity:0.8"/>
			<stop  offset="0.8128" style="stop-color:#CC2C26;stop-opacity:0.15"/>
			<stop  offset="1" style="stop-color:#000000;stop-opacity:0"/>
		</radialGradient>
		<path class="st72" d="M594.3,325.3c7.5,9.9-3.6,21.1-13.5,13.5C573.2,328.9,584.4,317.8,594.3,325.3z"/>
		<path class="st67" d="M592.2,331.8c0,2.6-2.1,4.6-4.6,4.6c-2.6,0-4.6-2.1-4.6-4.6s2.1-4.6,4.6-4.6S592.2,329.1,592.2,331.8z"/>
		
			<radialGradient id="SVGID_37_" cx="579.8127" cy="379.7874" r="6.2945" gradientTransform="matrix(1.4682 0 0 -1.4707 -241.7896 686.5737)" gradientUnits="userSpaceOnUse">
			<stop  offset="0" style="stop-color:#658BBA"/>
			<stop  offset="7.193732e-02" style="stop-color:#6A93BE"/>
			<stop  offset="0.1821" style="stop-color:#77A8C8"/>
			<stop  offset="0.3167" style="stop-color:#8DCBD8"/>
			<stop  offset="0.4693" style="stop-color:#ABFBEF"/>
			<stop  offset="0.4812" style="stop-color:#AEFFF1"/>
			<stop  offset="0.5523" style="stop-color:#ABFBEE;stop-opacity:0.863"/>
			<stop  offset="0.6182" style="stop-color:#A4F0E3;stop-opacity:0.7359"/>
			<stop  offset="0.6822" style="stop-color:#97DDD1;stop-opacity:0.6126"/>
			<stop  offset="0.7449" style="stop-color:#85C3B8;stop-opacity:0.4918"/>
			<stop  offset="0.8066" style="stop-color:#6EA198;stop-opacity:0.3727"/>
			<stop  offset="0.8678" style="stop-color:#517770;stop-opacity:0.2549"/>
			<stop  offset="0.9284" style="stop-color:#2F4541;stop-opacity:0.1381"/>
			<stop  offset="0.9871" style="stop-color:#090D0D;stop-opacity:2.484018e-02"/>
			<stop  offset="1" style="stop-color:#000000;stop-opacity:0"/>
		</radialGradient>
		<path class="st73" d="M616.3,121.3c7.5,9.9-3.6,21.1-13.5,13.5l0,0C595.2,124.9,606.4,113.8,616.3,121.3z"/>
	</g>
	<g>
		
			<radialGradient id="SVGID_38_" cx="305.6507" cy="377.2334" r="33.4123" gradientTransform="matrix(1.2562 0 0 -1.2249 -126.3584 607.4732)" gradientUnits="userSpaceOnUse">
			<stop  offset="0" style="stop-color:#111111;stop-opacity:0.1361"/>
			<stop  offset="0.4812" style="stop-color:#DB2107;stop-opacity:0.8"/>
			<stop  offset="0.8128" style="stop-color:#CC2C26;stop-opacity:0.15"/>
			<stop  offset="1" style="stop-color:#000000;stop-opacity:0"/>
		</radialGradient>
		<ellipse class="st74" cx="257.6" cy="145.4" rx="42" ry="40.9"/>
		<ellipse class="st65" cx="257.6" cy="144.2" rx="21" ry="20.5"/>
	</g>
	<ellipse class="st43" cx="653" cy="133.8" rx="18.3" ry="18.3"/>
	<path class="st42" d="M73.8,305.1c-11.1,0-20.1,8.5-20.1,19c0,10.5,9,19,20.1,19s20.1-8.5,20.1-19
		C93.9,313.6,84.9,305.1,73.8,305.1z M91.2,320.8c-2.1-1.9-5.9-3.2-10.3-3.8c-0.6-3.6-1.6-6.9-3-9.1
		C84.6,309.4,89.8,314.5,91.2,320.8z M73.8,340.8c-1.6,0-3.7-3.4-4.7-9.3c1.5,0.2,3.1,0.2,4.7,0.2c1.6,0,3.1-0.1,4.7-0.2
		C77.5,337.4,75.4,340.8,73.8,340.8z M73.8,329.4c-1.8,0-3.5-0.1-5-0.3c-0.2-1.5-0.3-3.2-0.3-5c0-1.8,0.1-3.5,0.3-5
		c1.5-0.2,3.2-0.3,5-0.3c1.8,0,3.5,0.1,5,0.3c0.2,1.5,0.3,3.2,0.3,5c0,1.8-0.1,3.5-0.3,5C77.3,329.3,75.6,329.4,73.8,329.4z
		 M66.4,328.8c-5.9-1-9.3-3.1-9.3-4.7c0-1.6,3.4-3.7,9.3-4.7c-0.2,1.5-0.2,3.1-0.2,4.7C66.2,325.7,66.2,327.2,66.4,328.8z
		 M73.8,307.4c1.6,0,3.7,3.4,4.7,9.3c-1.5-0.2-3.1-0.2-4.7-0.2c-1.6,0-3.1,0.1-4.7,0.2C70.1,310.8,72.2,307.4,73.8,307.4z
		 M81.2,319.4c5.9,1,9.3,3.1,9.3,4.7c0,1.6-3.4,3.7-9.3,4.7c0.2-1.5,0.2-3.1,0.2-4.7C81.4,322.5,81.3,321,81.2,319.4z M69.6,307.9
		c-1.4,2.2-2.4,5.5-3,9.1c-4.4,0.7-8.2,2-10.3,3.8C57.8,314.5,63,309.4,69.6,307.9z M56.4,327.4c2.1,1.9,5.9,3.2,10.3,3.8
		c0.6,3.6,1.6,6.9,3,9.1C63,338.8,57.8,333.7,56.4,327.4z M77.9,340.3c1.4-2.2,2.4-5.5,3-9.1c4.4-0.7,8.2-2,10.3-3.8
		C89.8,333.7,84.6,338.8,77.9,340.3z"/>
</g>
<radialGradient id="SVGID_39_" cx="638.7822" cy="310.7036" r="6.2945" gradientTransform="matrix(1.4682 0 0 -1.4707 -241.7896 686.5737)" gradientUnits="userSpaceOnUse">
	<stop  offset="0" style="stop-color:#658BBA"/>
	<stop  offset="7.193732e-02" style="stop-color:#6A93BE"/>
	<stop  offset="0.1821" style="stop-color:#77A8C8"/>
	<stop  offset="0.3167" style="stop-color:#8DCBD8"/>
	<stop  offset="0.4693" style="stop-color:#ABFBEF"/>
	<stop  offset="0.4812" style="stop-color:#AEFFF1"/>
	<stop  offset="0.5523" style="stop-color:#ABFBEE;stop-opacity:0.863"/>
	<stop  offset="0.6182" style="stop-color:#A4F0E3;stop-opacity:0.7359"/>
	<stop  offset="0.6822" style="stop-color:#97DDD1;stop-opacity:0.6126"/>
	<stop  offset="0.7449" style="stop-color:#85C3B8;stop-opacity:0.4918"/>
	<stop  offset="0.8066" style="stop-color:#6EA198;stop-opacity:0.3727"/>
	<stop  offset="0.8678" style="stop-color:#517770;stop-opacity:0.2549"/>
	<stop  offset="0.9284" style="stop-color:#2F4541;stop-opacity:0.1381"/>
	<stop  offset="0.9871" style="stop-color:#090D0D;stop-opacity:2.484018e-02"/>
	<stop  offset="1" style="stop-color:#000000;stop-opacity:0"/>
</radialGradient>
<path class="st75" d="M702.9,222.9c7.5,9.9-3.6,21.1-13.5,13.5l0,0C681.8,226.5,693,215.4,702.9,222.9z"/>
<radialGradient id="SVGID_40_" cx="214.6203" cy="309.5364" r="6.2945" gradientTransform="matrix(1.4682 0 0 -1.4707 -241.7896 686.5737)" gradientUnits="userSpaceOnUse">
	<stop  offset="0" style="stop-color:#658BBA"/>
	<stop  offset="7.193732e-02" style="stop-color:#6A93BE"/>
	<stop  offset="0.1821" style="stop-color:#77A8C8"/>
	<stop  offset="0.3167" style="stop-color:#8DCBD8"/>
	<stop  offset="0.4693" style="stop-color:#ABFBEF"/>
	<stop  offset="0.4812" style="stop-color:#AEFFF1"/>
	<stop  offset="0.5523" style="stop-color:#ABFBEE;stop-opacity:0.863"/>
	<stop  offset="0.6182" style="stop-color:#A4F0E3;stop-opacity:0.7359"/>
	<stop  offset="0.6822" style="stop-color:#97DDD1;stop-opacity:0.6126"/>
	<stop  offset="0.7449" style="stop-color:#85C3B8;stop-opacity:0.4918"/>
	<stop  offset="0.8066" style="stop-color:#6EA198;stop-opacity:0.3727"/>
	<stop  offset="0.8678" style="stop-color:#517770;stop-opacity:0.2549"/>
	<stop  offset="0.9284" style="stop-color:#2F4541;stop-opacity:0.1381"/>
	<stop  offset="0.9871" style="stop-color:#090D0D;stop-opacity:2.484018e-02"/>
	<stop  offset="1" style="stop-color:#000000;stop-opacity:0"/>
</radialGradient>
<path class="st76" d="M80.1,224.6c7.5,9.9-3.6,21.1-13.5,13.5l0,0C59,228.2,70.2,217.1,80.1,224.6z"/>
<radialGradient id="SVGID_41_" cx="530.783" cy="367.9621" r="6.2945" gradientTransform="matrix(1.4682 0 0 -1.4707 -241.7896 686.5737)" gradientUnits="userSpaceOnUse">
	<stop  offset="0" style="stop-color:#658BBA"/>
	<stop  offset="7.193732e-02" style="stop-color:#6A93BE"/>
	<stop  offset="0.1821" style="stop-color:#77A8C8"/>
	<stop  offset="0.3167" style="stop-color:#8DCBD8"/>
	<stop  offset="0.4693" style="stop-color:#ABFBEF"/>
	<stop  offset="0.4812" style="stop-color:#AEFFF1"/>
	<stop  offset="0.5523" style="stop-color:#ABFBEE;stop-opacity:0.863"/>
	<stop  offset="0.6182" style="stop-color:#A4F0E3;stop-opacity:0.7359"/>
	<stop  offset="0.6822" style="stop-color:#97DDD1;stop-opacity:0.6126"/>
	<stop  offset="0.7449" style="stop-color:#85C3B8;stop-opacity:0.4918"/>
	<stop  offset="0.8066" style="stop-color:#6EA198;stop-opacity:0.3727"/>
	<stop  offset="0.8678" style="stop-color:#517770;stop-opacity:0.2549"/>
	<stop  offset="0.9284" style="stop-color:#2F4541;stop-opacity:0.1381"/>
	<stop  offset="0.9871" style="stop-color:#090D0D;stop-opacity:2.484018e-02"/>
	<stop  offset="1" style="stop-color:#000000;stop-opacity:0"/>
</radialGradient>
<path class="st77" d="M544.3,138.6c7.5,9.9-3.6,21.1-13.5,13.5l0,0C523.2,142.2,534.4,131.1,544.3,138.6z"/>
<radialGradient id="SVGID_42_" cx="528.6473" cy="419.1703" r="6.2945" gradientTransform="matrix(1.4682 0 0 -1.4707 -241.7896 686.5737)" gradientUnits="userSpaceOnUse">
	<stop  offset="0" style="stop-color:#658BBA"/>
	<stop  offset="7.193732e-02" style="stop-color:#6A93BE"/>
	<stop  offset="0.1821" style="stop-color:#77A8C8"/>
	<stop  offset="0.3167" style="stop-color:#8DCBD8"/>
	<stop  offset="0.4693" style="stop-color:#ABFBEF"/>
	<stop  offset="0.4812" style="stop-color:#AEFFF1"/>
	<stop  offset="0.5523" style="stop-color:#ABFBEE;stop-opacity:0.863"/>
	<stop  offset="0.6182" style="stop-color:#A4F0E3;stop-opacity:0.7359"/>
	<stop  offset="0.6822" style="stop-color:#97DDD1;stop-opacity:0.6126"/>
	<stop  offset="0.7449" style="stop-color:#85C3B8;stop-opacity:0.4918"/>
	<stop  offset="0.8066" style="stop-color:#6EA198;stop-opacity:0.3727"/>
	<stop  offset="0.8678" style="stop-color:#517770;stop-opacity:0.2549"/>
	<stop  offset="0.9284" style="stop-color:#2F4541;stop-opacity:0.1381"/>
	<stop  offset="0.9871" style="stop-color:#090D0D;stop-opacity:2.484018e-02"/>
	<stop  offset="1" style="stop-color:#000000;stop-opacity:0"/>
</radialGradient>
<path class="st78" d="M541.2,63.3c7.5,9.9-3.6,21.1-13.5,13.5l0,0C520.1,66.9,531.3,55.8,541.2,63.3z"/>
<radialGradient id="SVGID_43_" cx="594.1461" cy="260.6403" r="6.2945" gradientTransform="matrix(1.4682 0 0 -1.4707 -241.7896 686.5737)" gradientUnits="userSpaceOnUse">
	<stop  offset="0" style="stop-color:#658BBA"/>
	<stop  offset="7.193732e-02" style="stop-color:#6A93BE"/>
	<stop  offset="0.1821" style="stop-color:#77A8C8"/>
	<stop  offset="0.3167" style="stop-color:#8DCBD8"/>
	<stop  offset="0.4693" style="stop-color:#ABFBEF"/>
	<stop  offset="0.4812" style="stop-color:#AEFFF1"/>
	<stop  offset="0.5523" style="stop-color:#ABFBEE;stop-opacity:0.863"/>
	<stop  offset="0.6182" style="stop-color:#A4F0E3;stop-opacity:0.7359"/>
	<stop  offset="0.6822" style="stop-color:#97DDD1;stop-opacity:0.6126"/>
	<stop  offset="0.7449" style="stop-color:#85C3B8;stop-opacity:0.4918"/>
	<stop  offset="0.8066" style="stop-color:#6EA198;stop-opacity:0.3727"/>
	<stop  offset="0.8678" style="stop-color:#517770;stop-opacity:0.2549"/>
	<stop  offset="0.9284" style="stop-color:#2F4541;stop-opacity:0.1381"/>
	<stop  offset="0.9871" style="stop-color:#090D0D;stop-opacity:2.484018e-02"/>
	<stop  offset="1" style="stop-color:#000000;stop-opacity:0"/>
</radialGradient>
<path class="st79" d="M637.3,296.5c7.5,9.9-3.6,21.1-13.5,13.5l0,0C616.2,300.1,627.4,289,637.3,296.5z"/>
<radialGradient id="SVGID_44_" cx="387.9307" cy="406.7272" r="6.2945" gradientTransform="matrix(1.4682 0 0 -1.4707 -241.7896 686.5737)" gradientUnits="userSpaceOnUse">
	<stop  offset="0" style="stop-color:#658BBA"/>
	<stop  offset="7.193732e-02" style="stop-color:#6A93BE"/>
	<stop  offset="0.1821" style="stop-color:#77A8C8"/>
	<stop  offset="0.3167" style="stop-color:#8DCBD8"/>
	<stop  offset="0.4693" style="stop-color:#ABFBEF"/>
	<stop  offset="0.4812" style="stop-color:#AEFFF1"/>
	<stop  offset="0.5523" style="stop-color:#ABFBEE;stop-opacity:0.863"/>
	<stop  offset="0.6182" style="stop-color:#A4F0E3;stop-opacity:0.7359"/>
	<stop  offset="0.6822" style="stop-color:#97DDD1;stop-opacity:0.6126"/>
	<stop  offset="0.7449" style="stop-color:#85C3B8;stop-opacity:0.4918"/>
	<stop  offset="0.8066" style="stop-color:#6EA198;stop-opacity:0.3727"/>
	<stop  offset="0.8678" style="stop-color:#517770;stop-opacity:0.2549"/>
	<stop  offset="0.9284" style="stop-color:#2F4541;stop-opacity:0.1381"/>
	<stop  offset="0.9871" style="stop-color:#090D0D;stop-opacity:2.484018e-02"/>
	<stop  offset="1" style="stop-color:#000000;stop-opacity:0"/>
</radialGradient>
<path class="st80" d="M334.6,81.6c7.5,9.9-3.6,21.1-13.5,13.5l0,0C313.5,85.2,324.7,74.1,334.6,81.6z"/>
<radialGradient id="SVGID_45_" cx="365.0242" cy="425.2218" r="6.2945" gradientTransform="matrix(1.4682 0 0 -1.4707 -241.7896 686.5737)" gradientUnits="userSpaceOnUse">
	<stop  offset="0" style="stop-color:#658BBA"/>
	<stop  offset="7.193732e-02" style="stop-color:#6A93BE"/>
	<stop  offset="0.1821" style="stop-color:#77A8C8"/>
	<stop  offset="0.3167" style="stop-color:#8DCBD8"/>
	<stop  offset="0.4693" style="stop-color:#ABFBEF"/>
	<stop  offset="0.4812" style="stop-color:#AEFFF1"/>
	<stop  offset="0.5523" style="stop-color:#ABFBEE;stop-opacity:0.863"/>
	<stop  offset="0.6182" style="stop-color:#A4F0E3;stop-opacity:0.7359"/>
	<stop  offset="0.6822" style="stop-color:#97DDD1;stop-opacity:0.6126"/>
	<stop  offset="0.7449" style="stop-color:#85C3B8;stop-opacity:0.4918"/>
	<stop  offset="0.8066" style="stop-color:#6EA198;stop-opacity:0.3727"/>
	<stop  offset="0.8678" style="stop-color:#517770;stop-opacity:0.2549"/>
	<stop  offset="0.9284" style="stop-color:#2F4541;stop-opacity:0.1381"/>
	<stop  offset="0.9871" style="stop-color:#090D0D;stop-opacity:2.484018e-02"/>
	<stop  offset="1" style="stop-color:#000000;stop-opacity:0"/>
</radialGradient>
<path class="st81" d="M300.9,54.4c7.5,9.9-3.6,21.1-13.5,13.5l0,0C279.8,58,291,46.9,300.9,54.4z"/>
<radialGradient id="SVGID_46_" cx="616.3448" cy="312.0064" r="6.29" gradientTransform="matrix(1.4682 0 0 -1.4707 -241.7896 686.5737)" gradientUnits="userSpaceOnUse">
	<stop  offset="0" style="stop-color:#111111;stop-opacity:0.1361"/>
	<stop  offset="0.4812" style="stop-color:#DB2107;stop-opacity:0.8"/>
	<stop  offset="0.8128" style="stop-color:#CC2C26;stop-opacity:0.15"/>
	<stop  offset="1" style="stop-color:#000000;stop-opacity:0"/>
</radialGradient>
<path class="st82" d="M669.9,220.9c7.5,9.9-3.6,21.1-13.5,13.5C648.8,224.6,660,213.4,669.9,220.9z"/>
</svg>
