<?xml version="1.0" encoding="utf-8"?>
<!-- Generator: Adobe Illustrator 23.0.5, SVG Export Plug-In . SVG Version: 6.00 Build 0)  -->
<svg version="1.1" id="Capa_1" xmlns="http://www.w3.org/2000/svg" xmlns:xlink="http://www.w3.org/1999/xlink" x="0px" y="0px"
	 viewBox="0 0 601 800" style="enable-background:new 0 0 601 800;" xml:space="preserve">
<style type="text/css">
	.st0{fill:#5382A1;}
	.st1{fill:#E76F00;}
</style>
<g>
	<path class="st0" d="M195.9,618.4c0,0-30.5,17.7,21.7,23.8c63.3,7.2,95.6,6.2,165.4-7c0,0,18.3,11.5,43.9,21.5
		C270.6,723.6,73.1,652.7,195.9,618.4"/>
	<path class="st0" d="M176.8,531c0,0-34.2,25.3,18,30.7c67.6,7,121,7.5,213.4-10.2c0,0,12.8,13,32.9,20
		C252.1,626.8,41.6,575.9,176.8,531"/>
	<path class="st1" d="M337.9,382.7c38.5,44.3-10.1,84.3-10.1,84.3s97.8-50.5,52.9-113.7c-42-59-74.1-88.3,100-189.3
		C480.7,164,207.3,232.2,337.9,382.7"/>
	<path class="st0" d="M544.6,683.1c0,0,22.6,18.6-24.9,33c-90.2,27.3-375.6,35.6-454.8,1.1c-28.5-12.4,24.9-29.6,41.7-33.2
		c17.5-3.8,27.5-3.1,27.5-3.1c-31.7-22.3-204.8,43.8-87.9,62.8C365,795.4,627.3,720.4,544.6,683.1"/>
	<path class="st0" d="M210.6,440.4c0,0-145.1,34.5-51.4,47c39.6,5.3,118.5,4.1,192-2.1c60.1-5.1,120.4-15.8,120.4-15.8
		s-21.2,9.1-36.5,19.5C287.7,527.8,2.9,509.8,84.9,470.1C154.2,436.6,210.6,440.4,210.6,440.4"/>
	<path class="st0" d="M471,585.9c149.8-77.9,80.6-152.7,32.2-142.6c-11.9,2.5-17.1,4.6-17.1,4.6s4.4-6.9,12.8-9.9
		c95.7-33.6,169.2,99.2-30.9,151.8C467.9,589.9,470.3,587.8,471,585.9"/>
	<path class="st1" d="M380.6,0.9c0,0,83,83-78.7,210.6c-129.6,102.4-29.6,160.8-0.1,227.5c-75.7-68.3-131.2-128.4-94-184.3
		C262.6,172.5,414.1,132.7,380.6,0.9"/>
	<path class="st0" d="M225.3,796.9c143.8,9.2,364.7-5.1,369.9-73.2c0,0-10.1,25.8-118.9,46.3c-122.7,23.1-274.1,20.4-363.9,5.6
		C112.4,775.6,130.8,790.9,225.3,796.9"/>
</g>
</svg>
