<?xml version="1.0" encoding="utf-8"?>
<!-- Generator: Adobe Illustrator 23.0.5, SVG Export Plug-In . SVG Version: 6.00 Build 0)  -->
<svg version="1.1" id="Capa_1" xmlns="http://www.w3.org/2000/svg" xmlns:xlink="http://www.w3.org/1999/xlink" x="0px" y="0px"
	 viewBox="0 0 165.2 53.2" style="enable-background:new 0 0 165.2 53.2;" xml:space="preserve">
<style type="text/css">
	.st0{display:none;}
	.st1{fill:url(#SVGID_1_);}
</style>
<g id="Capa_3" class="st0">
</g>
<g>
	<g>
		<g>
			<path d="M30.9,32.2c0,1.5-0.4,2.8-1.1,3.9S28,38,26.6,38.6c-1.4,0.6-3,0.9-5,0.9c-0.9,0-1.7-0.1-2.5-0.2
				c-0.8-0.1-1.6-0.3-2.4-0.5c-0.8-0.2-1.5-0.5-2.2-0.8v-4.9c1.2,0.5,2.4,1,3.7,1.4c1.3,0.4,2.5,0.6,3.8,0.6c0.9,0,1.6-0.1,2.1-0.3
				c0.5-0.2,0.9-0.5,1.2-0.9c0.2-0.4,0.4-0.9,0.4-1.4c0-0.6-0.2-1.2-0.6-1.6c-0.4-0.4-1-0.9-1.7-1.2c-0.7-0.4-1.6-0.8-2.5-1.2
				c-0.6-0.3-1.2-0.6-1.9-1c-0.7-0.4-1.3-0.9-1.9-1.4c-0.6-0.6-1.1-1.3-1.5-2.1c-0.4-0.8-0.6-1.8-0.6-2.9c0-1.5,0.3-2.8,1-3.8
				c0.7-1.1,1.7-1.9,2.9-2.4c1.3-0.6,2.8-0.8,4.5-0.8c1.3,0,2.5,0.2,3.7,0.5c1.2,0.3,2.4,0.7,3.7,1.3L29,19.7
				c-1.2-0.5-2.2-0.8-3.1-1.1c-0.9-0.3-1.8-0.4-2.8-0.4c-0.7,0-1.2,0.1-1.7,0.3c-0.5,0.2-0.8,0.5-1.1,0.9c-0.2,0.4-0.4,0.8-0.4,1.3
				c0,0.6,0.2,1.1,0.5,1.5c0.3,0.4,0.9,0.8,1.6,1.2c0.7,0.4,1.6,0.8,2.6,1.3c1.3,0.6,2.4,1.2,3.3,1.9c0.9,0.7,1.6,1.4,2.1,2.3
				C30.6,29.8,30.9,30.9,30.9,32.2z"/>
		</g>
	</g>
	<linearGradient id="SVGID_1_" gradientUnits="userSpaceOnUse" x1="1.1326" y1="26.8997" x2="44.0688" y2="26.8997">
		<stop  offset="1.118836e-07" style="stop-color:#074BA8"/>
		<stop  offset="0.201" style="stop-color:#3657B3"/>
		<stop  offset="0.4731" style="stop-color:#6F65C0"/>
		<stop  offset="0.7067" style="stop-color:#986FC9"/>
		<stop  offset="0.8899" style="stop-color:#B276CF"/>
		<stop  offset="1" style="stop-color:#BB78D1"/>
	</linearGradient>
	<path class="st1" d="M23.7,1.8h-2.1L1.1,13.6v26.3L21.5,52h2.2l20.4-12V13.6L23.7,1.8z M38.9,36.3L23,46.1h-0.7L6.5,36V17.5l15-9.1
		h2.2l15.2,9.1V36.3z"/>
	<g>
		<g>
			<path d="M55,20c2.6,0,4.5,0.6,5.9,1.7c1.4,1.1,2.1,2.8,2.1,5.1v12.7h-3.6l-1-2.6h-0.1c-0.5,0.7-1.1,1.2-1.7,1.7
				c-0.6,0.4-1.2,0.8-2,1c-0.7,0.2-1.6,0.3-2.7,0.3c-1.1,0-2.1-0.2-3-0.6c-0.9-0.4-1.6-1.1-2.1-2c-0.5-0.9-0.8-2-0.8-3.4
				c0-2,0.7-3.5,2.1-4.5c1.4-1,3.6-1.5,6.4-1.6l3.3-0.1v-0.8c0-1-0.3-1.7-0.8-2.2c-0.5-0.5-1.3-0.7-2.2-0.7c-0.9,0-1.8,0.1-2.7,0.4
				c-0.9,0.3-1.8,0.6-2.7,1l-1.7-3.5c1-0.5,2.2-1,3.4-1.3S53.6,20,55,20z M57.7,30.7l-2,0.1c-1.7,0-2.9,0.3-3.5,0.9
				c-0.7,0.6-1,1.3-1,2.2c0,0.8,0.2,1.4,0.7,1.7c0.5,0.3,1.1,0.5,1.8,0.5c1.1,0,2.1-0.3,2.8-1c0.8-0.7,1.2-1.6,1.2-2.8V30.7z"/>
			<path d="M74.3,39.9c-2.1,0-3.9-0.8-5.2-2.5c-1.3-1.7-2-4.1-2-7.4c0-3.3,0.7-5.7,2-7.4c1.4-1.7,3.1-2.5,5.3-2.5
				c0.9,0,1.7,0.1,2.4,0.4c0.7,0.3,1.3,0.6,1.8,1c0.5,0.4,0.9,0.9,1.3,1.4h0.2c-0.1-0.4-0.2-0.9-0.2-1.6s-0.1-1.4-0.1-2.2v-6.1H85
				v26.6h-4L80,37h-0.2c-0.3,0.5-0.7,1-1.2,1.4c-0.5,0.4-1.1,0.8-1.8,1S75.2,39.9,74.3,39.9z M76.1,35.7c1.4,0,2.4-0.4,3-1.3
				s0.9-2.1,0.9-3.8V30c0-1.9-0.3-3.3-0.9-4.3c-0.6-1-1.6-1.5-3.2-1.5c-1.2,0-2.1,0.5-2.7,1.5s-1,2.4-1,4.3c0,1.9,0.3,3.3,1,4.2
				C74,35.2,74.9,35.7,76.1,35.7z"/>
			<path d="M96.5,39.9c-2.1,0-3.9-0.8-5.2-2.5c-1.3-1.7-2-4.1-2-7.4c0-3.3,0.7-5.7,2-7.4c1.4-1.7,3.1-2.5,5.3-2.5
				c0.9,0,1.7,0.1,2.4,0.4c0.7,0.3,1.3,0.6,1.8,1c0.5,0.4,0.9,0.9,1.3,1.4h0.2c-0.1-0.4-0.2-0.9-0.2-1.6s-0.1-1.4-0.1-2.2v-6.1h5.2
				v26.6h-4l-1-2.5h-0.2c-0.3,0.5-0.7,1-1.2,1.4c-0.5,0.4-1.1,0.8-1.8,1S97.4,39.9,96.5,39.9z M98.3,35.7c1.4,0,2.4-0.4,3-1.3
				s0.9-2.1,0.9-3.8V30c0-1.9-0.3-3.3-0.9-4.3c-0.6-1-1.6-1.5-3.2-1.5c-1.2,0-2.1,0.5-2.7,1.5s-1,2.4-1,4.3c0,1.9,0.3,3.3,1,4.2
				C96.2,35.2,97.1,35.7,98.3,35.7z"/>
			<path d="M143.7,14.5l-6.4,25h-6l-3.4-13.1c-0.1-0.3-0.2-0.6-0.3-1.1c-0.1-0.5-0.2-1.1-0.4-1.7c-0.1-0.6-0.2-1.2-0.3-1.7
				c-0.1-0.5-0.2-1-0.2-1.3c0,0.3-0.1,0.7-0.2,1.3c-0.1,0.5-0.2,1.1-0.3,1.7c-0.1,0.6-0.2,1.2-0.4,1.7c-0.1,0.5-0.2,0.9-0.3,1.2
				l-3.4,13.1h-6l-6.4-25h5.2l3.2,13.6c0.1,0.4,0.2,0.9,0.3,1.5c0.1,0.6,0.2,1.2,0.4,1.8c0.1,0.6,0.2,1.2,0.3,1.8
				c0.1,0.6,0.2,1.1,0.2,1.5c0.1-0.4,0.1-0.9,0.2-1.5c0.1-0.6,0.2-1.2,0.3-1.8c0.1-0.6,0.2-1.2,0.3-1.7c0.1-0.5,0.2-0.9,0.3-1.2
				l3.6-14h5l3.6,14c0.1,0.3,0.2,0.7,0.3,1.2c0.1,0.5,0.2,1.1,0.3,1.7c0.1,0.6,0.2,1.2,0.3,1.8c0.1,0.6,0.2,1.1,0.2,1.5
				c0.1-0.6,0.2-1.3,0.3-2.1c0.1-0.8,0.3-1.6,0.5-2.4c0.2-0.8,0.3-1.5,0.4-2l3.2-13.6H143.7z"/>
			<path d="M143.7,20.4h5.7l3.6,10.7c0.1,0.3,0.2,0.7,0.3,1c0.1,0.4,0.1,0.7,0.2,1.1c0.1,0.4,0.1,0.8,0.1,1.2h0.1
				c0.1-0.6,0.2-1.2,0.3-1.7c0.1-0.5,0.3-1.1,0.5-1.6l3.5-10.7h5.6L155.5,42c-0.5,1.3-1.1,2.4-1.9,3.3c-0.8,0.9-1.7,1.5-2.7,2
				c-1,0.4-2.1,0.7-3.4,0.7c-0.6,0-1.1,0-1.5-0.1c-0.4-0.1-0.8-0.1-1.1-0.2v-4.1c0.2,0.1,0.5,0.1,0.9,0.2c0.4,0,0.7,0.1,1.1,0.1
				c0.7,0,1.4-0.2,1.9-0.5c0.5-0.3,1-0.7,1.3-1.2c0.4-0.5,0.6-1.1,0.8-1.7l0.3-0.9L143.7,20.4z"/>
		</g>
	</g>
</g>
</svg>
