<?xml version="1.0" encoding="utf-8"?>
<!-- Generator: Adobe Illustrator 23.0.5, SVG Export Plug-In . SVG Version: 6.00 Build 0)  -->
<svg version="1.1" id="Capa_1" xmlns="http://www.w3.org/2000/svg" xmlns:xlink="http://www.w3.org/1999/xlink" x="0px" y="0px"
	 viewBox="0 0 712 708" style="enable-background:new 0 0 712 708;" xml:space="preserve">
<style type="text/css">
	.st0{fill-rule:evenodd;clip-rule:evenodd;fill:url(#SVGID_1_);}
	.st1{fill-rule:evenodd;clip-rule:evenodd;fill:url(#SVGID_2_);}
</style>
<g>
	
		<linearGradient id="SVGID_1_" gradientUnits="userSpaceOnUse" x1="148.964" y1="-44.324" x2="148.964" y2="-23.58" gradientTransform="matrix(25 0 0 25 -3456 1112)">
		<stop  offset="0" style="stop-color:#327EBD"/>
		<stop  offset="1" style="stop-color:#1565A7"/>
	</linearGradient>
	<path class="st0" d="M281.4,4c-54.9,0-99.5,43.1-99.5,96.3V167H354v18.5H105.5C50.6,185.5,6,228.6,6,281.8v144.4
		c0,53.2,44.5,96.3,99.5,96.3h57.4V441c0-53.2,44.5-96.3,99.5-96.3H446c46.5,0,84.2-36.5,84.2-81.5v-163c0-53.2-44.5-96.3-99.5-96.3
		L281.4,4L281.4,4z M258.5,122.5c19,0,34.4-14.9,34.4-33.3s-15.4-33.3-34.4-33.3s-34.4,14.9-34.4,33.3
		C224,107.6,239.4,122.5,258.5,122.5z"/>
	
		<linearGradient id="SVGID_2_" gradientUnits="userSpaceOnUse" x1="155.998" y1="-37.06" x2="155.998" y2="-16.316" gradientTransform="matrix(25 0 0 25 -3456 1112)">
		<stop  offset="0" style="stop-color:#FFDA4B"/>
		<stop  offset="1" style="stop-color:#F9C600"/>
	</linearGradient>
	<path class="st1" d="M430.6,704c54.9,0,99.5-43.1,99.5-96.3V541H357.9v-18.5h248.6c54.9,0,99.5-43.1,99.5-96.3V281.8
		c0-53.2-44.5-96.3-99.5-96.3h-57.4V267c0,53.2-44.5,96.3-99.5,96.3H266.1c-46.5,0-84.2,36.5-84.2,81.5v163
		c0,53.2,44.5,96.3,99.5,96.3L430.6,704L430.6,704z M453.5,585.5c-19,0-34.4,14.9-34.4,33.3s15.4,33.3,34.4,33.3
		s34.4-14.9,34.4-33.3S472.5,585.5,453.5,585.5z"/>
</g>
</svg>
